<?xml version="1.0" encoding="utf-8"?>
<!-- Generator: Adobe Illustrator 24.0.1, SVG Export Plug-In . SVG Version: 6.00 Build 0)  -->
<svg version="1.1" id="Layer_1" xmlns="http://www.w3.org/2000/svg" xmlns:xlink="http://www.w3.org/1999/xlink" x="0px" y="0px"
	 viewBox="0 0 225.1 47.8" style="enable-background:new 0 0 225.1 47.8;" xml:space="preserve">
<style type="text/css">
	.st0{fill:#ECECEC;}
	.st1{fill:#0F639B;}
</style>
<g>
	<g>
		<path class="st0" d="M220,3.5H41.5c4.7,4.9,7.5,11.5,7.5,18.8c0,9.4-4.7,17.6-11.9,22.5H220V3.5z"/>
	</g>
	<g>
		<path class="st0" d="M4.8,39.8c0.3-1.3,0.8-3.7,2.4-6.5c0.8-1.3,2.7-4.6,6.5-7.1c1.8-1.1,3.6-2.1,5.8-2.5c1.3-0.2,2.6-0.5,4-0.7
			V45c-6.4,0-12.8,0-19.3,0C4.2,43.7,4.3,41.9,4.8,39.8z"/>
		<path class="st0" d="M25.4,23c3.8,0,7.4,0,11.1,0c2.4,0,4.9,0,7.3,0c0.4,0,0.7,0.3,0.6,0.7c-0.2,1.6-0.2,3.3-0.6,4.9
			c-0.9,4-2.8,7.6-5.6,10.5c-1.8,1.8-3.8,3.3-6.2,4.3c-2,0.8-4,1.3-6.2,1.4c-0.5,0-0.7-0.1-0.6-0.6c0.1-6.5,0.2-13,0.3-19.5
			C25.4,24.2,25.4,23.7,25.4,23z"/>
		<path class="st0" d="M44.7,21.5H25.5c3.7-6.1,7.4-12,11-18C42.1,8.2,44.7,14.2,44.7,21.5z"/>
		<path class="st0" d="M34.9,2.8C34.2,4,33.6,5,33,6c-1.3,2.1-2.7,4.2-4,6.4c-1,1.6-2.1,3.3-3.1,4.9c-0.6,1-1.3,2-1.9,3
			c-0.2,0.4-0.4,0.4-0.7,0.1c-2.6-2.3-4.5-5.1-5.8-8.4c-1.1-2.7-1.6-5.5-1.8-8.4c0-0.5,0.3-0.9,0.8-0.9c5.9,0,11.8,0.1,17.7,0.1
			C34.3,2.8,34.6,2.8,34.9,2.8z"/>
	</g>
	<g>
		<path class="st1" d="M72.8,14.3c1.9,0.9,3.3,2.3,4.4,4c1,1.7,1.5,3.7,1.5,5.9s-0.5,4.2-1.5,5.9c-1,1.7-2.5,3-4.4,4
			c-1.9,0.9-4,1.4-6.5,1.4h-7.9V12.9h7.9C68.8,12.9,70.9,13.3,72.8,14.3z M70.3,33.6c1.3-0.9,2.4-2.2,3.1-3.8
			c0.7-1.6,1.1-3.5,1.1-5.7s-0.4-4-1.1-5.7c-0.7-1.6-1.7-2.9-3.1-3.8c-1.3-0.9-2.9-1.3-4.6-1.3h-3.3V35h3.3
			C67.4,35,69,34.5,70.3,33.6z"/>
		<path class="st1" d="M93.8,35v0.5H81.4V12.9h12.2v0.5h-8.2v9.9h6.8v0.5h-6.8V35H93.8z"/>
		<path class="st1" d="M95.8,35.5v-0.3l12.6-21.8H96.8v-0.5h16.1v0.3L100,35h12.8v0.5H95.8z"/>
		<path class="st1" d="M128.2,35v0.5h-12.4V12.9H128v0.5h-8.2v9.9h6.8v0.5h-6.8V35H128.2z"/>
		<path class="st1" d="M130.9,35.5V12.6h0.4l15.9,17.7V12.9h0.6v22.9h-0.5l-15.9-17.7v17.4H130.9z"/>
		<path class="st1" d="M151.3,12.9h4v22.6h-4V12.9z M169.4,35.5h-4.6l-8.9-11.9l11.3-10.7h0.8l-8.9,8.4L169.4,35.5z"/>
		<path class="st1" d="M190.2,30.2c-1,1.8-2.4,3.1-4.2,4.1c-1.8,1-3.8,1.4-6.2,1.4c-2.4,0-4.4-0.5-6.2-1.4c-1.8-1-3.2-2.3-4.2-4.1
			c-1-1.8-1.5-3.8-1.5-6.1s0.5-4.3,1.5-6.1c1-1.8,2.4-3.1,4.2-4.1c1.8-1,3.9-1.4,6.2-1.4c2.3,0,4.4,0.5,6.2,1.4
			c1.8,1,3.2,2.3,4.2,4.1c1,1.8,1.5,3.8,1.5,6.1S191.2,28.5,190.2,30.2z M173.2,30c0.6,1.7,1.5,3,2.7,3.9c1.1,0.9,2.5,1.4,4,1.4
			c1.5,0,2.8-0.5,4-1.4c1.1-0.9,2-2.2,2.7-3.9c0.6-1.7,0.9-3.6,0.9-5.8s-0.3-4.1-0.9-5.8c-0.6-1.7-1.5-3-2.7-3.9
			c-1.1-0.9-2.5-1.4-4-1.4c-1.5,0-2.8,0.5-4,1.4s-2,2.2-2.7,3.9c-0.6,1.7-0.9,3.6-0.9,5.8S172.6,28.3,173.2,30z"/>
		<path class="st1" d="M194.4,35.5V12.6h0.4l15.9,17.7V12.9h0.6v22.9h-0.5L195,18.1v17.4H194.4z"/>
	</g>
</g>
</svg>
