<svg width="228" height="71" viewBox="0 0 228 71" fill="none" xmlns="http://www.w3.org/2000/svg">
<g clip-path="url(#clip0_9_2)">
<path d="M1.17 13.03H20.72V24.5C20.69 25.78 21.1 26.71 22.83 26.77H31.41C31.82 26.75 31.98 26.91 31.98 27.13V62.53H17.44C16.48 62.51 16.34 62.11 16.36 61.22V46.17C16.36 45.02 16.04 44.69 15 44.7H8.88C8.16 44.72 7.82 44.46 7.82 43.87V32.74C7.8 31.92 8.14 31.41 9.01 31.37H15.56C16.12 31.37 16.37 31.11 16.35 30.52V27.19C16.35 26.44 16.1 26.1 15.2 26.09H1.29C0.65 26.09 4.1147e-07 25.83 4.1147e-07 25.18V13.9C-0.0199996 13.17 0.27 13.03 1.17 13.03Z" fill="url(#paint0_linear_9_2)"/>
<path d="M22.23 13.13H60.65V25.01C60.65 25.31 60.49 25.36 60.23 25.36H52.38C50.55 25.25 49.53 25.81 49.49 27.51V61.99C49.49 62.27 49.43 62.45 49.01 62.45H33.95C33.53 62.47 33.33 62.35 33.33 62.03V27.66C33.29 26.11 32.78 25.33 31.01 25.36H22.63C22.3 25.37 22.21 25.19 22.22 24.78V13.13H22.23Z" fill="url(#paint1_linear_9_2)"/>
<path d="M95.27 13.22H74.72C74.19 13.22 73.79 13.4 73.71 14.13L71.93 27.12C71.85 27.73 71.45 27.67 71.33 27.12L69.13 14.32C69 13.54 68.9 13.23 68.12 13.23H62.1L62.08 24.98C62.11 26.2 61.39 26.82 59.66 26.8L51.38 26.82C51.22 26.82 50.93 26.82 50.92 26.98V61.53C50.92 62 51.29 62.35 51.71 62.35H60.95C61.57 62.35 61.78 62.09 61.76 61.48V42.44C61.79 41.24 62.49 41.38 62.77 42.45L66.27 61.48C66.36 61.87 66.54 62.4 67.34 62.33H75.5C76.06 62.31 76.33 62.14 76.37 61.63L80.27 41.39C80.49 40.14 81.01 40 80.94 41.39V61.63C80.95 62.13 81.27 62.34 81.82 62.33H95.28C95.7 62.32 96.03 61.97 96.03 61.5V14.07C96.03 13.6 95.68 13.21 95.26 13.21L95.27 13.22Z" fill="url(#paint2_linear_9_2)"/>
<path d="M223.95 70.44H101.73V66.25H223.95V70.44Z" fill="url(#paint3_linear_9_2)"/>
<path d="M0.16 70.44H60.25V66.25H0.16V70.44Z" fill="url(#paint4_linear_9_2)"/>
<path d="M119.5 42.45C119.5 41.61 119.4 40.83 119.19 40.13C118.98 39.42 118.62 38.77 118.12 38.16C117.62 37.55 116.94 36.96 116.09 36.41C115.24 35.85 114.18 35.3 112.9 34.74C111.83 34.28 110.97 33.83 110.31 33.42C109.65 33 109.17 32.57 108.86 32.11C108.56 31.66 108.41 31.14 108.41 30.57C108.41 29.99 108.55 29.45 108.84 28.97C109.13 28.48 109.57 28.1 110.16 27.8C110.75 27.51 111.5 27.36 112.4 27.35C112.99 27.35 113.6 27.44 114.23 27.61C114.85 27.78 115.45 28 116.03 28.28C116.61 28.56 117.13 28.86 117.6 29.18L119.01 25.29C118.5 24.94 117.9 24.63 117.21 24.35C116.52 24.07 115.77 23.84 114.97 23.68C114.17 23.51 113.35 23.43 112.51 23.42C111.16 23.42 109.96 23.63 108.9 24.03C107.85 24.42 106.96 24.96 106.23 25.64C105.5 26.32 104.95 27.09 104.57 27.95C104.19 28.82 104 29.72 104 30.66C104 31.69 104.19 32.65 104.59 33.52C104.99 34.4 105.64 35.2 106.54 35.95C107.44 36.69 108.64 37.37 110.14 38.01C111.16 38.44 111.99 38.84 112.63 39.22C113.27 39.59 113.77 39.96 114.11 40.32C114.46 40.68 114.69 41.05 114.83 41.43C114.96 41.82 115.02 42.23 115.01 42.68C115.01 43.29 114.87 43.85 114.6 44.36C114.32 44.87 113.89 45.28 113.32 45.6C112.74 45.91 112 46.07 111.1 46.08C110.35 46.08 109.59 45.98 108.82 45.79C108.04 45.6 107.28 45.33 106.52 44.97C105.76 44.61 105.04 44.18 104.35 43.69L102.83 47.65C103.59 48.15 104.41 48.59 105.29 48.97C106.17 49.35 107.09 49.65 108.05 49.86C109.01 50.08 109.98 50.18 110.96 50.19C112.3 50.19 113.49 49.97 114.55 49.57C115.6 49.16 116.5 48.6 117.24 47.89C117.98 47.18 118.54 46.36 118.93 45.43C119.31 44.5 119.51 43.51 119.51 42.46L119.5 42.45ZM132.25 37.89V34.64H128.05V29.59L124.06 32.08V34.5L121.2 37.36V37.89H124.06V44.63C124.06 45.97 124.25 47.03 124.63 47.83C125.01 48.62 125.54 49.19 126.23 49.54C126.92 49.89 127.74 50.05 128.68 50.05C129.2 50.05 129.73 50.01 130.26 49.93C130.79 49.85 131.33 49.75 131.9 49.62L131.16 46.51C130.91 46.56 130.69 46.6 130.48 46.64C130.27 46.67 130.06 46.69 129.86 46.69C129.28 46.69 128.83 46.56 128.52 46.27C128.21 45.99 128.06 45.51 128.06 44.85V37.9H132.26L132.25 37.89ZM148.68 41.63C148.68 40.62 148.53 39.68 148.24 38.8C147.95 37.93 147.51 37.16 146.93 36.5C146.35 35.84 145.63 35.33 144.77 34.96C143.91 34.59 142.92 34.4 141.79 34.39C140.56 34.4 139.47 34.62 138.53 35.05C137.58 35.48 136.78 36.07 136.13 36.8C135.48 37.54 134.99 38.38 134.66 39.32C134.33 40.26 134.16 41.24 134.16 42.26C134.16 43.34 134.32 44.34 134.65 45.28C134.99 46.22 135.49 47.03 136.17 47.75C136.85 48.46 137.71 49.02 138.75 49.42C139.79 49.82 141.01 50.03 142.42 50.03C143.19 50.03 144.03 49.95 144.93 49.79C145.84 49.64 146.75 49.44 147.68 49.18L147.19 46.07C146.69 46.22 146.19 46.36 145.68 46.48C145.17 46.6 144.67 46.7 144.19 46.77C143.7 46.84 143.25 46.88 142.82 46.88C141.79 46.88 140.95 46.73 140.29 46.46C139.64 46.18 139.14 45.78 138.79 45.26C138.44 44.75 138.22 44.14 138.12 43.42H148.57C148.61 43.24 148.63 43.04 148.65 42.83C148.66 42.62 148.67 42.41 148.67 42.19C148.67 41.98 148.67 41.79 148.67 41.62L148.68 41.63ZM138.19 40.92C138.34 39.84 138.71 39 139.32 38.42C139.93 37.83 140.73 37.54 141.72 37.53C142.39 37.53 142.97 37.68 143.46 37.95C143.94 38.23 144.33 38.62 144.6 39.13C144.88 39.64 145.05 40.23 145.11 40.92H138.19ZM160.97 38.34V34.38C160.19 34.38 159.49 34.48 158.86 34.68C158.22 34.88 157.64 35.18 157.11 35.59C156.57 36 156.07 36.51 155.61 37.14V34.67H151.72V49.75H155.75V39.82C156.06 39.38 156.47 39.04 157 38.8C157.52 38.55 158.11 38.39 158.79 38.32C159.47 38.25 160.2 38.26 160.98 38.34H160.97ZM168.07 29.44C168.07 29 167.96 28.6 167.75 28.24C167.54 27.89 167.25 27.6 166.9 27.39C166.54 27.18 166.15 27.07 165.71 27.07C165.27 27.07 164.87 27.18 164.53 27.39C164.18 27.6 163.9 27.88 163.69 28.24C163.49 28.59 163.38 28.99 163.38 29.44C163.38 29.88 163.49 30.28 163.69 30.64C163.9 30.99 164.17 31.28 164.53 31.49C164.88 31.7 165.27 31.81 165.71 31.81C166.15 31.81 166.55 31.7 166.9 31.49C167.25 31.28 167.54 31 167.75 30.64C167.96 30.28 168.07 29.89 168.07 29.44ZM167.72 49.75V34.67H163.69V49.75H167.72ZM192.34 34.63H187.92L185.48 43.13L181.49 34.63H180.78L176.89 43.14L174.38 34.63H169.93L175.79 50.14H176.5L181.16 40.93L185.79 50.14H186.5L192.33 34.63H192.34ZM206.5 49.75V41.03C206.5 38.82 205.94 37.16 204.8 36.06C203.66 34.95 201.9 34.39 199.54 34.39C199.04 34.39 198.5 34.43 197.93 34.5C197.36 34.57 196.79 34.66 196.23 34.78C195.67 34.9 195.16 35.03 194.69 35.17L195.15 38.17C195.74 37.99 196.35 37.84 196.99 37.72C197.63 37.6 198.27 37.54 198.89 37.54C200.09 37.54 201 37.8 201.61 38.34C202.22 38.88 202.53 39.74 202.53 40.89V41.53C202.16 41.35 201.78 41.19 201.38 41.05C200.99 40.91 200.56 40.79 200.08 40.71C199.61 40.63 199.07 40.58 198.46 40.58C197.35 40.58 196.38 40.8 195.56 41.2C194.74 41.6 194.11 42.16 193.66 42.86C193.21 43.57 192.98 44.37 192.98 45.27C192.98 46.03 193.12 46.71 193.4 47.3C193.67 47.89 194.05 48.39 194.53 48.79C195.01 49.2 195.58 49.51 196.21 49.72C196.85 49.93 197.54 50.04 198.28 50.04C199.23 50.04 200.05 49.89 200.77 49.59C201.48 49.29 202.11 48.87 202.66 48.31V49.76H206.48L206.5 49.75ZM202.54 45.97C202.19 46.42 201.76 46.77 201.26 47.02C200.75 47.28 200.17 47.41 199.5 47.41C198.63 47.41 197.96 47.21 197.49 46.83C197.02 46.45 196.78 45.91 196.78 45.22C196.78 44.77 196.9 44.38 197.13 44.07C197.36 43.75 197.67 43.5 198.07 43.33C198.46 43.16 198.92 43.07 199.43 43.07C199.86 43.07 200.24 43.11 200.58 43.18C200.92 43.26 201.24 43.37 201.55 43.52C201.86 43.67 202.19 43.87 202.53 44.1V45.97H202.54ZM224.51 34.63H220.17L216.39 44.23L212.54 34.63H208.09L214.45 48.24L209.86 57.42H213.85L224.52 34.64L224.51 34.63Z" fill="url(#paint5_linear_9_2)"/>
<path d="M223.9 18.15H101.72V13.97H223.9V18.15Z" fill="url(#paint6_linear_9_2)"/>
<path fill-rule="evenodd" clip-rule="evenodd" d="M222.19 0C223.04 0 223.86 0.22 224.67 0.65C225.48 1.08 226.11 1.71 226.55 2.51C227 3.32 227.23 4.16 227.23 5.04C227.23 5.92 227.01 6.74 226.56 7.55C226.12 8.35 225.5 8.97 224.7 9.41C223.9 9.85 223.06 10.08 222.19 10.08C221.32 10.08 220.48 9.86 219.68 9.41C218.88 8.97 218.26 8.35 217.81 7.55C217.37 6.75 217.14 5.91 217.14 5.04C217.14 4.17 217.37 3.32 217.82 2.51C218.27 1.7 218.9 1.08 219.71 0.65C220.52 0.21 221.34 0 222.19 0ZM222.19 0.83C221.48 0.83 220.79 1.01 220.12 1.37C219.45 1.73 218.93 2.25 218.55 2.93C218.17 3.6 217.98 4.31 217.98 5.04C217.98 5.77 218.17 6.46 218.54 7.13C218.91 7.8 219.43 8.31 220.1 8.69C220.77 9.06 221.47 9.25 222.19 9.25C222.91 9.25 223.61 9.06 224.28 8.69C224.95 8.32 225.47 7.8 225.84 7.13C226.21 6.46 226.39 5.77 226.39 5.04C226.39 4.31 226.2 3.61 225.82 2.93C225.44 2.25 224.92 1.74 224.25 1.37C223.58 1.01 222.89 0.83 222.19 0.83ZM219.98 7.82V2.41H221.84C222.48 2.41 222.94 2.46 223.23 2.56C223.51 2.66 223.74 2.83 223.91 3.08C224.08 3.33 224.16 3.59 224.16 3.87C224.16 4.27 224.02 4.61 223.74 4.91C223.46 5.21 223.08 5.37 222.61 5.41C222.8 5.49 222.96 5.59 223.07 5.7C223.29 5.91 223.55 6.27 223.87 6.78L224.53 7.84H223.46L222.98 6.99C222.6 6.32 222.3 5.9 222.07 5.73C221.91 5.6 221.68 5.54 221.37 5.54H220.86V7.84H219.98V7.82ZM220.86 4.77H221.92C222.43 4.77 222.77 4.69 222.96 4.54C223.14 4.39 223.24 4.19 223.24 3.94C223.24 3.78 223.2 3.63 223.11 3.51C223.02 3.38 222.9 3.29 222.74 3.22C222.58 3.16 222.29 3.13 221.86 3.13H220.86V4.77Z" fill="url(#paint7_linear_9_2)"/>
<path d="M64.79 66.17H67.24C67.65 66.17 67.95 66.26 68.13 66.45C68.31 66.64 68.41 66.93 68.41 67.34V67.92C68.41 68.33 68.32 68.63 68.13 68.81C67.95 68.99 67.65 69.09 67.24 69.09H65.84V70.26H64.79V66.17ZM67.36 67.34C67.36 67.11 67.24 66.99 67.01 66.99H65.84V68.28H67.01C67.24 68.28 67.36 68.16 67.36 67.93V67.35V67.34Z" fill="#036E88"/>
<path d="M69.32 70.27H68.18L69.73 66.18H70.9L72.45 70.27H71.31L71.05 69.54H69.59L69.33 70.27H69.32ZM69.85 68.78H70.78L70.31 67.41L69.84 68.78H69.85Z" fill="#036E88"/>
<path d="M75.78 70.21C74.91 70.29 74.19 70.33 73.62 70.33C73.24 70.33 72.96 70.24 72.78 70.06C72.6 69.88 72.51 69.6 72.51 69.22V67.35C72.51 66.94 72.6 66.64 72.79 66.46C72.98 66.28 73.27 66.18 73.68 66.18H75.78V67H73.91C73.68 67 73.56 67.12 73.56 67.35V69.22C73.56 69.31 73.59 69.38 73.64 69.43C73.69 69.48 73.76 69.51 73.84 69.51C73.92 69.51 74.01 69.51 74.11 69.51C74.21 69.51 74.31 69.51 74.41 69.51C74.51 69.51 74.62 69.51 74.73 69.5C74.84 69.5 74.98 69.49 75.14 69.48C75.31 69.47 75.52 69.45 75.77 69.44V70.23L75.78 70.21Z" fill="#036E88"/>
<path d="M77.3 70.27H76.25V66.18H77.3V67.79H77.83L78.74 66.18H79.85L78.7 68.2L79.84 70.27H78.73L77.82 68.6H77.29V70.27H77.3Z" fill="#036E88"/>
<path d="M80.93 70.27H79.79L81.34 66.18H82.51L84.06 70.27H82.92L82.66 69.54H81.2L80.94 70.27H80.93ZM81.46 68.78H82.39L81.92 67.41L81.45 68.78H81.46Z" fill="#036E88"/>
<path d="M87.73 70.18C86.82 70.28 85.98 70.33 85.22 70.33C84.84 70.33 84.56 70.24 84.38 70.06C84.2 69.88 84.11 69.6 84.11 69.22V67.35C84.11 66.94 84.2 66.64 84.39 66.46C84.58 66.28 84.87 66.18 85.28 66.18H87.38V67H85.51C85.28 67 85.16 67.12 85.16 67.35V69.22C85.16 69.31 85.19 69.38 85.24 69.43C85.29 69.48 85.36 69.51 85.45 69.51C85.9 69.51 86.31 69.51 86.68 69.48V68.63H85.92V67.93H87.73V70.18Z" fill="#036E88"/>
<path d="M90.25 70.27H88.15V69.45H88.68V67H88.15V66.18H90.25V67H89.72V69.45H90.25V70.27Z" fill="#036E88"/>
<path d="M94.34 70.27H93.23L91.83 67.82V70.27H90.78V66.18H91.89L93.29 68.63V66.18H94.34V70.27Z" fill="#036E88"/>
<path d="M98.55 70.18C97.64 70.28 96.8 70.33 96.04 70.33C95.66 70.33 95.38 70.24 95.2 70.06C95.02 69.88 94.93 69.6 94.93 69.22V67.35C94.93 66.94 95.02 66.64 95.21 66.46C95.4 66.28 95.69 66.18 96.1 66.18H98.2V67H96.33C96.1 67 95.98 67.12 95.98 67.35V69.22C95.98 69.31 96.01 69.38 96.06 69.43C96.11 69.48 96.18 69.51 96.27 69.51C96.72 69.51 97.13 69.51 97.5 69.48V68.63H96.74V67.93H98.55V70.18Z" fill="#036E88"/>
</g>
<defs>
<linearGradient id="paint0_linear_9_2" x1="1.22" y1="37.78" x2="241.37" y2="37.78" gradientUnits="userSpaceOnUse">
<stop stop-color="#97D4ED"/>
<stop offset="1" stop-color="#046E88"/>
</linearGradient>
<linearGradient id="paint1_linear_9_2" x1="1.22" y1="37.78" x2="241.37" y2="37.78" gradientUnits="userSpaceOnUse">
<stop stop-color="#97D4ED"/>
<stop offset="1" stop-color="#046E88"/>
</linearGradient>
<linearGradient id="paint2_linear_9_2" x1="1.22" y1="37.77" x2="241.37" y2="37.77" gradientUnits="userSpaceOnUse">
<stop stop-color="#97D4ED"/>
<stop offset="1" stop-color="#046E88"/>
</linearGradient>
<linearGradient id="paint3_linear_9_2" x1="102.58" y1="68.35" x2="225.64" y2="68.35" gradientUnits="userSpaceOnUse">
<stop stop-color="#97D4ED"/>
<stop offset="1" stop-color="#046E88"/>
</linearGradient>
<linearGradient id="paint4_linear_9_2" x1="59.83" y1="68.35" x2="-0.670001" y2="68.35" gradientUnits="userSpaceOnUse">
<stop stop-color="#97D4ED"/>
<stop offset="1" stop-color="#046E88"/>
</linearGradient>
<linearGradient id="paint5_linear_9_2" x1="10.69" y1="40.44" x2="226.86" y2="40.44" gradientUnits="userSpaceOnUse">
<stop stop-color="#97D4ED"/>
<stop offset="1" stop-color="#046E88"/>
</linearGradient>
<linearGradient id="paint6_linear_9_2" x1="11.31" y1="16.06" x2="226.86" y2="16.06" gradientUnits="userSpaceOnUse">
<stop stop-color="#97D4ED"/>
<stop offset="1" stop-color="#046E88"/>
</linearGradient>
<linearGradient id="paint7_linear_9_2" x1="14.0201" y1="5.04" x2="230.19" y2="5.04" gradientUnits="userSpaceOnUse">
<stop stop-color="#97D4ED"/>
<stop offset="1" stop-color="#046E88"/>
</linearGradient>
<clipPath id="clip0_9_2">
<rect width="227.23" height="70.44" fill="white"/>
</clipPath>
</defs>
</svg>
