<?xml version="1.0" encoding="UTF-8"?>
<svg id="katman_1" data-name="katman 1" xmlns="http://www.w3.org/2000/svg" xmlns:xlink="http://www.w3.org/1999/xlink" viewBox="0 0 165.24 117.81">
  <defs>
    <style>
      .cls-1 {
        fill: none;
      }

      .cls-2 {
        fill: #13a393;
      }

      .cls-3 {
        fill: #5f5f5e;
      }

      .cls-4 {
        clip-path: url(#clippath-1);
      }

      .cls-5 {
        clip-path: url(#clippath-2);
      }

      .cls-6 {
        opacity: .25;
      }

      .cls-7 {
        clip-path: url(#clippath);
      }
    </style>
    <clipPath id="clippath">
      <rect class="cls-1" width="165.24" height="116.84"/>
    </clipPath>
    <clipPath id="clippath-1">
      <rect class="cls-1" y=".97" width="165.24" height="116.84"/>
    </clipPath>
    <clipPath id="clippath-2">
      <rect class="cls-1" x="24.67" y="18.67" width="115.07" height="40.11"/>
    </clipPath>
  </defs>
  <g class="cls-7">
    <g class="cls-4">
      <path class="cls-2" d="M32.36,69.5c.64-.91,1.44-1.6,2.4-2.08.96-.48,2.02-.72,3.2-.72,2.15,0,3.72.65,4.7,1.94.98,1.29,1.47,3.36,1.47,6.23v7.99h-1.94v-8.41c0-2.09-.34-3.58-1.04-4.47-.69-.89-1.82-1.34-3.39-1.34-.9,0-1.7.19-2.38.56-.69.37-1.23.9-1.63,1.59-.24.43-.41.93-.52,1.48-.1.55-.16,1.51-.16,2.88v7.71h-1.91v-8.87c0-1.82-.37-3.17-1.11-4.04-.74-.87-1.87-1.31-3.4-1.31-.92,0-1.73.19-2.43.56-.7.37-1.25.9-1.65,1.59-.25.43-.42.93-.53,1.48-.1.55-.15,1.51-.15,2.88v7.71h-2v-15.84h2v1.8c.61-.7,1.32-1.23,2.14-1.58.82-.36,1.75-.53,2.79-.53,1.2,0,2.29.25,3.28.76.99.5,1.75,1.18,2.26,2.04"/>
      <path class="cls-2" d="M62.93,75.59h-14.31c.13,1.72.75,3.12,1.87,4.18,1.12,1.06,2.52,1.59,4.21,1.59,1.19,0,2.26-.31,3.21-.93.95-.61,1.69-1.47,2.2-2.57h2.31c-.73,1.75-1.76,3.1-3.08,4.04-1.32.93-2.85,1.41-4.59,1.41-2.3,0-4.25-.82-5.85-2.46-1.6-1.64-2.39-3.61-2.39-5.92s.78-4.4,2.34-5.98c1.56-1.57,3.56-2.36,5.99-2.36s4.32.82,5.83,2.46c1.5,1.64,2.25,3.78,2.25,6.4v.15ZM60.68,73.82c-.38-1.76-1.09-3.09-2.12-3.98-1.03-.89-2.37-1.33-4.02-1.33-1.54,0-2.84.48-3.9,1.43-1.06.96-1.72,2.25-1.96,3.88h12Z"/>
      <path class="cls-2" d="M78.58,69.53v-7.63h2.05v20.97h-2.05v-2.39c-.71.89-1.59,1.58-2.65,2.07-1.06.49-2.17.74-3.35.74-2.29,0-4.21-.81-5.78-2.42-1.57-1.61-2.35-3.59-2.35-5.94s.77-4.28,2.32-5.87c1.55-1.59,3.48-2.39,5.81-2.39,1.25,0,2.38.24,3.4.73,1.02.49,1.89,1.19,2.6,2.12M78.64,75.1c0-1.8-.6-3.34-1.8-4.62-1.19-1.28-2.6-1.91-4.21-1.91s-3.1.61-4.29,1.83c-1.19,1.21-1.79,2.7-1.79,4.46,0,1.85.6,3.41,1.79,4.67,1.2,1.26,2.64,1.89,4.34,1.89,1.57,0,2.95-.63,4.15-1.89,1.2-1.26,1.8-2.73,1.8-4.41"/>
      <path class="cls-3" d="M93.1,89.99h-1.97v-14.07h-2.12v-1.77h2.03v-.43c0-1.68.42-2.93,1.27-3.73.85-.81,2.15-1.21,3.91-1.21h.19v1.83c-1.22.02-2.08.26-2.59.72-.5.47-.76,1.26-.76,2.39v.43h3.34v1.77h-3.31v14.07Z"/>
      <path class="cls-3" d="M101.21,89.99h-1.97v-14.07h-2.12v-1.77h2.03v-.43c0-1.68.42-2.93,1.27-3.73.85-.81,2.15-1.21,3.91-1.21h.19v1.83c-1.22.02-2.08.26-2.59.72-.5.47-.76,1.26-.76,2.39v.43h3.34v1.77h-3.31v14.07Z"/>
      <rect class="cls-3" x="106.53" y="74.14" width="2.03" height="15.84"/>
      <path class="cls-3" d="M124.52,79.01c-.62-1.15-1.38-2.01-2.28-2.56-.9-.55-1.97-.82-3.2-.82-1.63,0-3.02.62-4.16,1.86-1.14,1.24-1.71,2.77-1.71,4.6s.57,3.35,1.71,4.57c1.15,1.22,2.55,1.84,4.24,1.84,1.23,0,2.32-.3,3.25-.9.94-.61,1.66-1.46,2.15-2.55h2.25c-.61,1.72-1.58,3.05-2.9,3.99-1.32.94-2.87,1.41-4.65,1.41-2.3,0-4.23-.81-5.81-2.44-1.58-1.63-2.37-3.59-2.37-5.88s.8-4.33,2.4-5.96c1.6-1.63,3.55-2.44,5.84-2.44,1.72,0,3.23.46,4.54,1.39,1.31.93,2.29,2.24,2.95,3.92h-2.25Z"/>
      <path class="cls-3" d="M145.26,82.71h-14.3c.13,1.72.75,3.12,1.87,4.18,1.12,1.07,2.52,1.6,4.21,1.6,1.19,0,2.26-.31,3.21-.92.95-.62,1.69-1.48,2.2-2.58h2.31c-.73,1.75-1.76,3.1-3.08,4.03-1.32.94-2.85,1.41-4.59,1.41-2.31,0-4.25-.82-5.85-2.46-1.6-1.64-2.39-3.62-2.39-5.92s.78-4.4,2.34-5.98c1.56-1.58,3.56-2.37,5.98-2.37s4.32.82,5.83,2.46c1.5,1.64,2.26,3.77,2.26,6.4v.15ZM143.01,80.94c-.38-1.76-1.09-3.09-2.12-3.98-1.03-.89-2.37-1.33-4.02-1.33-1.54,0-2.84.47-3.9,1.43-1.06.95-1.72,2.25-1.96,3.88h12Z"/>
      <path class="cls-2" d="M142.74,66.33c.34,0,.65.06.95.18.3.12.56.3.79.53.23.23.4.49.52.78.12.29.18.61.18.94s-.06.65-.18.94c-.12.29-.29.55-.52.77-.24.24-.51.42-.81.54-.3.13-.61.19-.93.19s-.64-.06-.93-.19c-.3-.12-.56-.3-.79-.54-.23-.23-.41-.49-.53-.78-.12-.3-.18-.61-.18-.93s.07-.63.19-.93c.13-.3.31-.56.54-.8.22-.23.48-.41.77-.52.29-.12.6-.18.93-.18M144.92,68.78c0-.3-.05-.57-.16-.84-.11-.26-.26-.49-.46-.7-.21-.21-.44-.36-.71-.47-.26-.11-.54-.16-.84-.16s-.56.05-.82.16c-.26.1-.49.26-.7.46-.21.21-.37.45-.48.72-.11.26-.17.54-.17.82s.05.57.17.82c.11.26.27.5.47.71.21.21.44.36.71.47.26.11.53.16.82.16s.57-.05.83-.16c.27-.11.51-.27.72-.48.2-.2.36-.42.46-.68.1-.25.16-.53.16-.83M142.82,67.33c.39,0,.68.06.87.19.19.13.29.32.29.59,0,.19-.06.36-.18.5-.12.13-.28.21-.48.24l.62,1.29h-.48l-.59-1.23h-.65v1.23h-.42v-2.8h1.03ZM142.74,67.61h-.52v1.01h.52c.3,0,.51-.04.63-.11.12-.07.18-.2.18-.38s-.06-.32-.19-.4c-.13-.07-.33-.12-.62-.12"/>
      <path class="cls-3" d="M85.46,76.07c-1.37-1.37-2.98-2.16-4.83-2.37v1.97c1.32.2,2.45.76,3.38,1.72,1.17,1.2,1.75,2.75,1.75,4.62s-.58,3.38-1.73,4.61c-1.15,1.23-2.58,1.85-4.28,1.85s-3.17-.62-4.34-1.85c-1.16-1.23-1.74-2.76-1.74-4.59s.58-3.36,1.74-4.6c.92-.99,1.99-1.57,3.2-1.77.07-.73.02-1.4-.09-1.96-1.73.23-3.26,1.02-4.58,2.4-1.59,1.65-2.39,3.64-2.39,5.97s.79,4.26,2.38,5.89c1.59,1.64,3.53,2.46,5.83,2.46s4.18-.83,5.76-2.51c1.59-1.67,2.38-3.68,2.38-6.05s-.81-4.18-2.43-5.8"/>
      <g class="cls-6">
        <g class="cls-5">
          <path class="cls-2" d="M71.54,58.6c.1-8.59,2.84-15.92,8.34-21.79,5.52-5.87,12.33-8.84,20.55-8.82,8.27.02,15.22,3.01,20.76,8.9,5.56,5.93,8.3,13.21,8.33,21.82l10.23.02c0-11.02-3.8-20.44-11.32-28.19-7.64-7.93-17-11.86-27.97-11.88-10.81-.02-20.1,4.02-27.73,11.9-7.38,7.84-11.16,17.12-11.42,28.01l10.24.02Z"/>
          <path class="cls-3" d="M91.21,30.46c-7.84-7.7-17.24-11.52-28.3-11.42-10.47.09-19.51,4.15-27.09,12.16-7.28,7.73-10.99,16.95-11.15,27.57h10.21c.12-8.35,2.8-15.47,8.1-21.27,5.52-5.95,12.14-8.97,19.9-9.04,8.62-.08,15.71,2.71,21.42,8.43,5.55,5.71,8.41,12.92,8.54,21.83h10.27c0-.15,0-.3,0-.45-.1-10.86-4.09-20.1-11.92-27.8"/>
        </g>
      </g>
      <rect class="cls-3" x="106.52" y="70.16" width="2.01" height="2.35"/>
    </g>
  </g>
</svg>