<?xml version="1.0" encoding="UTF-8"?>
<svg id="özbil_logo_3_Image" data-name="özbil logo 3 Image" xmlns="http://www.w3.org/2000/svg" viewBox="0 0 1118.5379 759.4834">
  <g>
    <path d="M210.7922,613.2428c-9.7353-5.0961-19.1115-10.0303-28.5282-14.8863-.7932-.409-1.8607-.4254-2.795-.4011-34.2009.8877-61.2907-12.0467-79.3409-41.626-2.6449-4.3342-5.5504-6.7802-9.9832-8.8314-15.2305-7.0474-25.844-18.9489-33.2651-33.7809-2.7307-5.4576-5.1961-11.0677-7.4341-16.7456-1.7947-4.5533-1.1515-5.1879,3.3656-4.8275-15.6973-14.7753-25.42-33.1563-30.9955-53.9347-.2259-.8417-.3106-1.723-.5588-2.5568-.9784-3.2868.6435-4.0687,3.4988-3.6839,1.215.1637,2.4259.3578,4.2954.6357-2.8681-2.7449-5.3557-4.9701-7.6674-7.3651-9.773-10.125-14.7984-21.7356-13.1518-36.286,1.1602-10.2528,1.1885-20.7033-1.2113-30.9607-.2715-1.1604.6716-2.6049,1.2782-4.7013-2.0035-6.4145-5.0162-13.8306-6.5869-21.5405-3.5741-17.5443-1.3019-34.9303,4.4842-51.6091,1.5826-4.5621.942-8.3795.6369-12.4772-1.0048-13.4928,1.1254-26.1142,9.0288-37.4256.833-1.1922,1.366-2.6521,1.7921-4.0621,13.3578-44.196,27.4158-88.1404,46.4499-130.3132,14.4433-32.0012,31.0462-62.8929,48.0469-93.5805.2971-.5363.6736-1.0285,1.0044-1.5284,3.5069.46,2.4863,2.1488,1.4308,4.1168-10.3825,19.3569-20.9107,38.6391-31.0186,58.139-24.0909,46.4754-41.8193,95.4688-57.0088,145.4457-1.3979,4.5993-2.7688,9.2069-4.2589,14.1656,3.7608-2.2727,7.1882-4.0518,10.24-6.3333,1.2059-.9015,1.7765-2.8556,2.296-4.4418,6.6375-20.2649,12.9281-40.6481,19.8637-60.8097,14.5381-42.2622,34.2866-82.1647,55.7433-121.2654,5.4012-9.8426,10.8016-19.6856,16.2164-29.554,3.8752.4839,2.568,2.3137,1.5081,4.3255-14.7175,27.9348-29.8845,55.647-43.9542,83.9052-17.6724,35.4941-30.287,73.008-42.0058,110.8126-1.7718,5.7158-3.0501,11.6351-5.3601,17.1221-3.7467,8.9-.1108,16.1558,4.8393,23.7982.7356-1.9416,1.6683-3.8329,2.1775-5.8322,8.9976-35.3225,19.6182-70.1249,32.993-104.0613C94.4723,85.5918,116.6818,43.1451,139.911,1.1943c.177-.3197.4591-.5811.9031-1.1309.776.3429,1.6037.7087,2.2234.9825.1711.4039.2954.561.258.6282-38.4953,69.1988-72.7704,140.1782-91.791,217.9006,2.3323-3.9137,3.9978-8.1173,6.8524-11.2305,8.0306-8.7576,11.7826-19.4814,15.2787-30.4207,18.854-58.9948,45.0161-114.6779,76.183-168.0934,1.6986-2.9111,3.298-5.88,4.9595-8.813.1143-.2017.3626-.3275.5876-.5223,3.4908.4742,2.2093,2.265,1.1929,4.136-12.0932,22.262-24.3986,44.4131-36.1739,66.8424-17.2768,32.9082-29.7153,67.8344-41.9965,102.8058-1.2392,3.5288-2.0828,7.2743-3.8344,10.5294-3.8685,7.1893-1.9344,13.5951,2.506,21.1096C99.9485,133.3325,129.8793,64.738,168.7853,0c.661.3881,1.473.8649,2.4288,1.426-6.8939,12.6425-13.5894,25.1713-20.5125,37.573-27.6029,49.446-48.3159,101.832-66.4706,155.3173-1.5236,4.4887-3.2969,8.9046-4.574,13.461-.8213,2.9303-1.3765,6.0665-1.301,9.0917.2084,8.3438.8111,16.6777,1.3221,26.2156.8354-1.9679,1.4492-3.0149,1.7349-4.1448,8.5959-34.0006,18.4647-67.6005,31.1201-100.3463,16.244-42.0312,36.9267-81.879,59.2382-120.9326,3.2215-5.6389,6.5014-11.2445,9.762-16.861.1222-.2105.3262-.3735.6974-.7879.7457.3526,1.5698.7424,2.755,1.3029-4.6672,8.1823-9.2354,16.159-13.7737,24.1526-24.3121,42.823-46.7503,86.5882-62.4236,133.3822-9.0621,27.0555-16.3897,54.6933-24.3855,82.1018-.529,1.8134-.4027,3.9591-.07,5.8607,2.9024,16.5886,3.1612,33.0313-2.2617,49.2295-.1088.3249-.0136.718-.0136,1.6824,2.5867-2.1247,4.7915-4.0638,7.1419-5.8066,1.0154-.7529,2.3318-1.1001,3.5114-1.6315.4302,1.233,1.2833,2.4865,1.2244,3.6957-.5277,10.8408-.7762,21.7236-1.9949,32.4935-.9899,8.7482-3.2004,17.3583-4.8782,26.0739,2.6615-2.8408,5.3048-5.7838,8.1-8.5748.8939-.8925,2.1901-1.3819,3.3022-2.0558.6229,1.1453,1.5879,2.226,1.8176,3.4454,3.7224,19.7563,5.417,39.5748,1.4438,59.524-.1178.5915-.1225,1.2054-.223,2.2608,2.2518-1.2602,4.167-2.3322,6.0822-3.4039,3.347-1.8728,4.7069-1.6239,5.8465,2.0805,1.7927,5.8272,3.4794,11.7441,4.4822,17.7447,1.7862,10.6885,3.0277,21.468,4.4487,31.8566,1.8968-2.3958,3.9527-5.4341,6.4563-8.0425,3.1014-3.2312,4.3376-2.9477,6.3358,1.0396,8.009,15.9817,14.9512,32.3737,18.9425,49.885.1005.4408.4147.8329.6769,1.3398,4.2818-5.9913,4.2468-5.9491,10.1906-1.0211,13.0967,10.8586,24.6778,22.997,32.3781,38.3849,5.4044,10.7998,8.0761,22.2311,7.6189,34.3586-.0485,1.2869.0358,2.9074.7518,3.8417,5.0832,6.6327,10.3471,13.127,15.9005,20.1011,3.2666-6.6238,6.9088-13.0098,9.61-19.7717,2.6299-6.5835,6.6904-10.2624,13.7353-12.0564,10.7345-2.7336,21.1508-6.7059,31.7486-10.0032,1.0271-.3196,2.7304.006,3.5308.7058,37.254,32.5687,79.7597,57.0992,123.3638,79.7444,27.5609,14.3134,55.8052,27.3248,83.8901,40.6095,14.1225,6.6801,29.4251,9.4658,44.79,11.4187,26.644,3.3866,53.236,2.4245,79.1645-4.6284,14.7529-4.0129,29.004-9.9731,43.3158-15.4856,41.2477-15.8875,81.8035-33.3299,120.646-54.5569,22.3196-12.1974,43.4692-26.0965,62.7069-42.7915,3.7194-3.2278,7.5742-4.2616,12.4007-2.6323,11.3373,3.8269,22.7644,7.389,34.1738,10.9997,2.5556.8088,4.0944,2.2745,5.1068,4.8688,2.0633,5.2872,4.5551,10.4072,6.916,15.6982,5.7104-7.1472,11.1794-13.9321,16.5428-20.7995.5277-.6757.6067-1.8679.5583-2.803-1.2231-23.6398,9.0396-42.5568,24.6478-59.0926,5.642-5.9771,12.0103-11.2727,18.0984-16.823,3.1749-2.8943,3.5937-2.7721,5.5983,1.0457.4585.8734.8853,1.7633,1.6332,3.2581.6354-2.3487,1.1309-4.1561,1.6133-5.9671,4.2909-16.1063,10.5098-31.4583,18.2083-46.2166,2.0555-3.9404,2.9391-4.1368,6.0035-1.026,2.4683,2.5057,4.4871,5.4542,6.88,8.423.7124-6.6518,1.0678-13.2399,2.1917-19.6942,1.6653-9.5641,3.6017-19.1017,5.9552-28.5175,1.4363-5.7462,2.5541-5.8796,7.7903-2.9047,1.4801.8409,2.9529,1.6947,4.9214,2.8255-2.9942-13.1827-3.426-25.9855-2.1699-38.8216.7647-7.8149,1.9887-15.5874,3.1373-23.3595.1659-1.1226,1.0659-2.1368,1.626-3.2011,1.1294.6094,2.4657,1.0065,3.3494,1.8679,2.6615,2.5942,5.1469,5.3691,8.3414,7.8342-.8842-3.747-1.8455-7.4777-2.6391-11.2437-3.2024-15.1963-4.8895-30.5458-4.325-46.0919.0495-1.3647.8159-2.7034,1.2493-4.0541,1.2692.6204,2.6614,1.0732,3.7818,1.8962,2.2784,1.6737,4.4099,3.5473,6.6813,5.4034-1.169-6.1043-2.5413-11.8879-3.3424-17.7496-1.5175-11.1027-.7624-22.1638,1.2523-33.1699.3263-1.783.3621-3.7699-.063-5.5179-14.1426-58.1541-33.3592-114.4964-61.0992-167.6662-12.0046-23.0094-24.8903-45.5592-37.378-68.3166-.5962-1.0865-1.2145-2.1608-1.8026-3.2054,2.347-2.2992,2.449-2.356,4.0568.5266,10.9453,19.6237,22.095,39.1389,32.7104,58.9401,29.8843,55.7436,51.1111,114.7678,66.0667,176.1288.3708,1.5211.8366,3.019,2.0414,4.4935.133-.7208.3475-1.4372.3865-2.1631.4291-7.9763.8662-15.9525,1.2119-23.9325.0742-1.7097.162-3.5636-.3827-5.1341-13.4859-38.8928-26.1578-78.1609-44.0134-115.3122-14.8012-30.7962-31.3018-60.7759-47.0724-91.1055-1.542-2.9656-1.6165-2.9269.9884-4.1917,38.7095,64.5448,68.7161,133.0023,91.8255,204.7116,2.6334-5.5426,5.8602-10.2427,3.3701-17.083-12.543-34.4556-23.6743-69.499-40.126-102.3593-13.6281-27.2205-28.5176-53.8095-42.8583-80.6729-.9231-1.7291-2.6504-3.5516,1.2926-4.4929,3.0131,5.4123,6.1005,10.9256,9.158,16.4554,18.1203,32.7725,36.5827,65.4016,49.9937,100.4858,9.5735,25.0449,18.3799,50.3824,27.6591,75.5412,1.0517,2.8514,2.7873,5.4988,4.4876,8.0531,4.2036,6.3145,8.5707,12.5202,12.1698,17.7492-18.9316-76.2835-52.6389-147.8147-91.8874-216.7807,2.3634-2.6803,3.3011-1.3025,4.3416.6497,8.9822,16.853,18.2149,33.5755,26.9979,50.5312,20.8693,40.2883,38.9234,81.7907,52.294,125.2005,5.8346,18.9425,10.8757,38.1289,16.3347,57.1881.4821,1.6835,1.3931,3.2442,2.3839,5.4957,4.775-8.4943,7.2078-15.8763,4.2543-25.2353-12.5061-39.6299-24.4691-79.498-42.5945-116.9846-15.4767-32.0087-32.5627-63.2394-48.9374-94.8141-.3417-.6589-.6896-1.3145-1.056-2.0125,1.6479-2.1162,2.7296-1.9452,4.0285.3837,28.4785,51.054,55.847,102.629,74.2327,158.4053,5.6624,17.1776,11.1195,34.4234,16.5526,51.6752.7468,2.3711,1.6866,4.0243,4.1089,5.1327,2.6824,1.2274,5.032,3.1821,8.4058,5.3975-11.7599-39.0346-24.0366-76.9558-39.7437-113.7096-15.7165-36.7757-34.7289-71.8825-53.975-106.7945,2.0622-2.4621,3.0627-1.3699,4.2061.6607,31.4138,55.7886,59.5703,113.0433,78.7278,174.3654,5.0944,16.3068,10.2314,32.6004,15.3589,48.8968.3354,1.0659.5358,2.2674,1.1718,3.1314,9.863,13.3987,11.2776,28.5235,8.7365,44.2833-.4616,2.8627,1.282,4.3667,1.7778,6.5447,1.7962,7.8895,3.8992,15.7527,5.0008,23.7479,2.429,17.6293-.0265,34.5951-8.0149,49.2318.9778,2.3009,2.2108,3.7388,1.9554,4.8273-2.6417,11.2576-1.999,22.6567-1.0888,33.9445.8716,10.81-2.4355,19.9493-8.8924,28.1444-3.302,4.1909-7.2481,7.8743-10.9605,11.8486.0591.0355.3376.3495.6099.3443,7.0588-.1349,7.3164-.0661,5.3232,6.8222-5.7383,19.8306-14.492,37.9776-30.1574,52.0923-.1613.1453-.2198.4046-.3377.6326,1.2157.3322,3.08.327,3.4511,1.0688.4989.9973.0955,2.6626-.3509,3.8837-7.3195,20.0196-17.3513,38.2622-36.9933,48.6029-7.1621,3.7705-11.9024,8.5555-16.4229,15.199-17.7569,26.0957-43.2177,37.8414-74.5902,37.4282-2.4488-.0323-5.1021.788-7.3385,1.8745-9.079,4.4108-18.0324,9.0803-27.5475,13.9165,40.5824,67.7025,99.638,113.0452,173.0673,141.0981.5061,3.0314-1.446,2.9766-3.653,2.6028-21.8096-3.6935-43.2553-8.8229-64.0803-16.3613-37.9832-13.7496-71.9561-33.9494-100.5948-62.6958-11.8625-11.9072-22.2557-24.9937-31.3205-39.1417-.6013-.9385-1.2177-1.8675-1.8187-2.7884-9.5287,4.5593-18.8047,9.3524-28.3586,13.5063-37.4584,16.2868-75.8741,30.0646-115.388,40.2917-27.6694,7.1614-56.1357,10.5399-84.596,13.4622-36.8459,3.7834-73.7722,5.0176-110.7824,4.2004-39.9616-.8824-79.3246-6.1557-118.139-15.7724-46.1304-11.4294-90.7918-27.1479-134.3619-45.967-14.0706-6.0775-27.5806-13.4526-41.3483-20.2316-1.2112-.5964-2.4315-1.1743-3.6179-1.7465-6.0721,7.6886-11.8098,15.3962-18.0016,22.72-32.2463,38.1416-71.0821,66.6843-119.4544,81.0358-22.3209,6.6224-45.107,9.8127-68.4347,7.8159-1.2017-.1029-2.3203-1.1773-3.4776-1.7993,1.0695-.9247,1.9961-2.3469,3.2295-2.7013,32.2976-9.2814,63.2103-21.7533,91.9079-39.4237,32.68-20.1226,60.3261-45.5476,81.8077-77.4863.693-1.0304,1.3471-2.087,1.9212-2.9791ZM1056.2796,751.4936c-.5254-.3056-1.028-.6622-1.5795-.9094-18.7298-8.3957-36.6241-18.298-53.5934-29.8459-50.6578-34.4734-89.6373-78.7933-113.8543-135.4718-1.3071-3.0593-3.0708-4.816-6.1734-5.7752-10.1213-3.1295-20.2452-6.2689-30.2568-9.7267-4.3968-1.5186-7.9623-1.0184-11.1874,2.2762-.5206.5318-1.1812.9234-1.7458,1.4157-23.4324,20.4299-50.0357,35.9688-77.5478,50.0572-39.488,20.2209-80.5761,36.7419-121.8952,52.7708-18.8715,7.3208-38.1278,12.4611-58.282,14.2126-17.7409,1.5418-35.4532,1.1824-53.0519-1.5165-13.5706-2.0811-27.0416-4.8067-39.7076-10.3685-33.9608-14.9129-67.3076-31.1002-99.8651-48.8744-37.9807-20.7349-75.0849-42.8233-108.0883-71.1478-.9433-.8095-2.9926-1.0115-4.2722-.6345-6.9369,2.0436-13.7937,4.3592-20.6784,6.5805-5.2115,1.6815-11.523,2.0938-15.3306,5.3946-3.9283,3.4053-5.5433,9.5622-7.9586,14.6165-16.4635,34.4527-39.3072,63.9258-68.6847,88.3337-32.2397,26.7859-68.926,45.2785-108.5596,58.2883-2.9793.978-5.9533,1.9724-8.9298,2.9592.0636.3062.1273.6123.1909.9184,8.7041-.6722,17.4635-.9313,26.1029-2.0878,38.21-5.1147,72.4284-19.9915,103.2155-42.9894,32.5248-24.2959,57.7782-54.9856,78.5457-89.5948,2.9221-4.8698,5.7427-9.8005,8.7607-14.9602,2.7814,2.2192,5.1486,4.2384,7.646,6.0812,38.441,28.3647,80.4682,50.1086,124.8417,67.5002,37.8667,14.8414,76.887,25.5946,116.885,32.8654,3.3698.6125,3.365.6393,2.1453,4.227-3.8547-.6725-7.7832-1.2739-11.6769-2.05-45.0145-8.9725-89.7569-19.098-133.8323-31.989-27.6814-8.0961-55.1547-16.8649-81.3999-28.9443-12.1985-5.6144-23.9755-12.1447-36.32-18.4523-1.8791,2.2886-4.1931,5.107-6.7821,8.2602,15.3874,7.5661,29.8886,15.4578,44.9837,21.9736,41.964,18.1139,84.9709,33.2905,129.3306,44.5704,40.3383,10.2574,81.2604,15.8942,122.8536,16.6983,41.1292.7952,82.2014-.3936,122.9842-6.0062,24.4434-3.3639,49.1555-6.3108,72.95-12.5055,38.8623-10.1174,76.7094-23.7715,113.5029-40.0598,8.64-3.8248,17.0338-8.2057,25.7941-12.4536-1.6831-3.0385-3.0583-5.5212-4.6216-8.3435-42.9106,15.7239-84.4797,34.8841-128.9895,45.7741-44.492,10.8855-89.595,18.2008-135.0678,24.4579-.2451-1.4356-.4049-2.3715-.5887-3.4477.8766-.2925,1.5526-.6108,2.263-.7409,8.4603-1.5489,16.9528-2.9346,25.3854-4.6202,52.0035-10.3943,102.8034-24.8151,151.5295-45.9787,26.4167-11.4738,51.7127-24.9946,74.7166-42.5087.8274-.63,1.8013-1.0674,2.7478-1.6183,12.5808,30.301,20.8411,44.9153,34.6069,61.7312,41.3171,50.4714,95.9315,77.9586,158.5392,91.6581ZM972.3405,538.4356c-4.2762,1.7251-7.8791,2.7743-11.0892,4.5384-23.8091,13.0848-42.985,31.289-58.9466,53.1616-3.1228,4.2793-2.8464,7.5683-.0371,11.3699.9557,1.2934,1.9028,2.593,3.0286,4.1281,21.191-9.1824,41.5158-19.3743,56.6748-37.3842,8.4302-10.0156,10.3253-22.0488,10.3695-35.8138ZM212.868,609.6979c1.4064-2.3146,2.4214-4.4965,3.8972-6.3014,2.5976-3.1767,1.7921-5.6228-.3667-8.8173-9.7573-14.4382-22.2654-26.1791-35.3238-37.4924-8.3813-7.2612-17.588-13.1066-27.5863-17.7598-2.0323-.9458-4.33-1.3213-6.526-1.9657-1.9809,8.6027,1.8774,24.8475,7.548,32.3066,14.9981,19.7283,36.3002,30.2218,58.3576,40.03ZM1058.9768,449.3582c23.6084-16.6132,26.3758-50.1171,13.3052-78.9487-1.5028,1.6479-2.9364,3.1686-4.3141,4.7384-13.5184,15.4019-26.6478,31.0521-34.7559,50.2262-3.0136,7.1264-.7305,14.269-1.7097,21.7358,8.8669-7.1329,16.9876-13.7096,25.1828-20.1922.8474-.6704,2.1375-.7814,3.2221-1.152.2092,1.1273.6594,2.2701.5879,3.3793-.4146,6.4385-.9521,12.8692-1.5183,20.2132ZM86.7023,445.3915c.0818-9.2672,1.0929-17.61-3.122-26.0924-7.8789-15.8563-18.7131-29.4121-30.1057-42.6726-2.3009-2.6782-4.667-5.3005-7.1503-8.1155-13.0821,29.578-10.1817,62.285,13.0098,78.9801,0-2.1224.1107-3.8184-.0207-5.4955-.3991-5.0942-.9552-10.177-1.2919-15.2747-.0639-.9671.5974-1.982.9241-2.9749.8735.3365,1.8652.5091,2.5996,1.0386,2.8318,2.0418,5.6604,4.1023,8.3448,6.331,5.4523,4.5266,10.8101,9.1672,16.8122,14.276ZM36.3579,385.525c2.3051-7.0031,4.413-13.5154,6.5976-20.002,1.2547-3.7253,3.598-4.3247,6.2853-1.3874,2.6033,2.8456,4.8521,6.0157,7.2511,9.0478,1.7732,2.2412,3.5375,4.4895,5.3057,6.7347,4.1034-31.9012-7.3174-59.6952-20.5424-87.1658-9.2975,22.4464-15.9419,45.3354-14.4393,69.7717.5174,8.4148,3.6379,16.2035,9.542,23.001ZM1078.2638,294.5728c-.5728.0803-1.1457.1606-1.7184.241-12.4566,27.4427-23.8776,55.1281-19.8194,86.6749.7343-.1607.8351-.7102,1.1387-1.1033,3.508-4.5419,6.9281-9.1614,10.6509-13.5216,1.0873-1.2734,3.0888-2.4724,4.6178-2.4094.988.0407,2.2235,2.3144,2.7531,3.7996,2.1964,6.1599,4.1665,12.4005,6.5869,19.7226.4971-1.1153.6186-1.6486.9246-2.0364,5.9624-7.5563,8.4207-16.3627,8.7492-25.7628.511-14.6134-2.5721-28.7561-6.4948-42.7034-2.1702-7.7161-4.9071-15.2727-7.3886-22.9012ZM145.4869,560.5379c-.7778-4.004-1.6824-7.6185-2.1361-11.2887-.4573-3.6993-.5747-7.4519-.6447-11.1849-.0828-4.4144.2605-4.8683,4.716-4.1502,3.7904.6109,7.4669,1.9291,11.2265,2.9431-1.7352-7.2009-7.547-15.9744-13.5071-20.1976-4.7846-3.3902-9.6845-6.6172-14.484-9.9868-8.6865-6.0986-18.6519-9.2864-28.4798-12.9684-5.0114,25.5166,5.1437,57.6651,43.3092,66.8335ZM1016.5178,495.6709c-.7054.1425-1.1879.2003-1.6461.3383-15.9114,4.7923-29.7717,13.4083-42.717,23.5077-6.1702,4.8137-10.0493,11.4754-12.3203,19.0182,4.3794-1.0568,8.428-2.1028,12.5104-2.9933,2.4666-.5379,3.8713.4984,3.7688,3.1601-.1198,3.1152-.0392,6.2579-.4387,9.3377-.601,4.6328-1.5438,9.2212-2.3495,13.8763,27.7303-2.0544,50.8289-37.3666,43.1926-66.2452ZM262.9125,591.2683c-3.4894,5.7981-6.8269,11.3329-10.1467,16.8784-.3099.5176-.5072,1.1025-1.0488,2.3042,48.8604,30.3544,103.7178,44.2443,158.2876,58.9602-52.3304-19.5378-101.9486-44.1164-147.0921-78.1428ZM96.9219,509.4762c0-1.8295.0161-3.6819-.0034-5.5338-.0392-3.7213-.4557-7.4818-.0505-11.1526.4307-3.9023,1.82-4.5747,5.6626-3.7271,2.8039.6185,5.585,1.3403,8.6616,2.0852-6.4117-20.2915-33.5786-53.5398-48.4533-59.6903,0,6.309-.627,12.713.1227,18.9515,1.9131,15.9192,6.0489,31.3315,12.6271,46.0016,3.2769,7.3077,13.4031,13.4113,21.4332,13.0654ZM1022.0218,511.7666c11.5865-1.9936,19.4143-7.7246,23.5559-18.9692,7.0107-19.0339,11.0918-38.4638,10.6013-58.7847-.0076-.317-.1884-.6297-.2945-.9637-16.2787,7.9701-47.845,47.4498-47.7825,59.8524,2.1863-.6027,4.3192-1.2371,6.4758-1.7763,5.6615-1.4155,7.106-.3393,7.5244,5.6014.0694.9863-.0733,1.9857-.076,2.9791-.0105,3.949-.0044,7.8981-.0044,12.0611ZM688.8991,680.1037c.8466-.0868,1.7038-.1158,2.5383-.2687,45.533-8.3431,89.8192-20.9056,132.5881-38.7568,14.9485-6.2393,30.1564-11.857,45.3466-17.798-2.7417-6.3448-5.4857-12.6949-8.2914-19.1878-52.2003,37.5633-111.4217,58.4495-172.1816,76.0112ZM1059.0029,320.5565c.3163-.19.6326-.38.949-.57,4.7088-9.6209,9.3487-19.2768,14.1996-28.8256.747-1.4704,2.4643-2.4478,3.733-3.6531,1.1007,1.4763,2.5789,2.803,3.2343,4.4558,2.3115,5.8296,4.3411,11.771,6.6779,18.2235,5.0037-7.4145,6.6598-15.0506,6.1925-23.2115-1.0491-18.3259-10.6244-32.5521-22.2285-46.1494-.5336.9775-.9902,1.6851-1.3247,2.4464-5.4401,12.3849-9.587,25.1454-11.0079,38.6696-1.0394,9.8932-2.2473,19.7805-2.8273,29.7028-.1704,2.9137,1.5489,5.9379,2.4021,8.9114ZM47.8987,239.1296c-.4727.0637-.9454.1273-1.4181.1909-1.9991,2.547-3.994,5.0973-5.998,7.6405-8.3431,10.5879-14.1875,22.3081-15.7823,35.8334-1.0661,9.0414.7247,17.4931,5.9319,25.3556.4698-.594.7931-.8446.9058-1.1685,2.1255-6.1119,4.138-12.2654,6.4065-18.3232.4538-1.2117,1.7224-2.5633,2.8872-2.8946.6848-.1948,2.1382,1.3364,2.8368,2.3683,1.4643,2.1628,2.8184,4.433,3.934,6.7933,3.7178,7.8658,7.3102,15.7909,10.9574,23.708,3.3908-2.6876,3.369-6.5944,3.57-10.4724.7127-13.749-2.3453-27.0783-5.1713-40.3147-2.0863-9.7716-5.9744-19.1584-9.0597-28.7166ZM110.5104,406.4886c-10.4551,4.9275-17.5127,11.6361-18.9577,22.303-.927,6.8427-.3265,13.8971-.3097,20.8563.0018.7639.6007,1.5694,1.041,2.2826,7.0679,11.4493,14.1578,22.885,21.2323,34.3302.5859.9478,1.0973,1.9417,1.6433,2.9141.3445-.1083.689-.2166,1.0334-.3249,5.5793-27.7553.9618-54.8026-5.6827-82.3614ZM1002.4049,490.4708c.3753.0781.7506.1563,1.1259.2344.6596-1.1451,1.2879-2.3097,1.9838-3.4323,6.8902-11.1146,13.8159-22.2072,20.6548-33.3532.7499-1.2223,1.4003-2.7275,1.4439-4.1219.1669-5.3498.3785-10.7299.0038-16.0586-.8129-11.559-9.1594-22.2224-19.5925-24.9464-6.7005,26.9852-10.9928,54.0113-5.6196,81.678ZM1028.7963,297.3647c-.4905.2346-.9811.4692-1.4717.7038.9487,10.4225,1.4258,20.915,2.9602,31.2505,2.1243,14.3081,5.3802,28.3151,11.9642,41.4903,2.8217,5.6466,3.5367,12.3455,5.2155,18.5646.1964.7277.4342,1.4442.6529,2.1659.4116.0707.8232.1413,1.2349.212.9593-2.78,2.8089-5.5847,2.7328-8.3361-.4796-17.3473-1.8941-34.7156,5.0191-51.3468,1.9183-4.615.9929-8.9823-2.7323-12.3196-8.4379-7.559-17.0402-14.9344-25.5755-22.3845ZM90.8941,296.4203c-.4672-.1885-.9344-.377-1.4016-.5655-8.2614,7.1836-16.5723,14.3113-24.7631,21.5746-4.028,3.5719-5.2488,8.0052-3.2624,13.1847.8462,2.2064,1.7131,4.4351,2.2326,6.7302,1.0382,4.5867,2.4438,9.2033,2.6213,13.8486.3849,10.0753.2129,20.1788.0146,30.2657-.0729,3.7103,1.8372,6.0219,3.5129,7.9313,2.0033-6.5701,3.8721-13.2472,6.1092-19.7986,1.077-3.1541,3.0991-5.9781,4.2616-9.1116,4.7888-12.908,7.6084-26.3111,9.1068-39.9562.878-7.9954,1.0685-16.0663,1.5682-24.1032ZM200.0725,569.5241c.4765-.3245.9529-.6489,1.4294-.9733-.7318-30.9571-19.5896-51.1841-41.7813-69.7789-.4735.9027-.8227,1.4251-1.0368,1.9979-5.0879,13.6114-2.6534,26.2669,7.0738,36.5097,10.791,11.3629,22.8232,21.5472,34.315,32.2446ZM958.9619,500.4583c-4.2629,3.7556-8.1136,6.9314-11.7198,10.364-13.299,12.6594-24.2184,26.8977-28.4361,45.2233-1.1024,4.7898-1.2561,9.7979-1.8455,14.7057l1.4395.4964c11.1996-10.2824,22.4889-20.47,33.53-30.92,2.4834-2.3504,4.4058-5.4505,6.0595-8.4919,5.4409-10.0063,5.9915-20.2859.9724-31.3775ZM1003.6409,550.7594c13.9179.7472,24.99-4.0628,34.9699-11.8333,13.3399-10.3865,20.7348-24.7274,27.0311-40.5547-1.4537.2068-2.206.191-2.8687.4267-9.0547,3.2184-17.8596,6.86-25.8604,12.4016-2.9241,2.0253-6.747,3.3333-10.2954,3.7181-3.7504.4067-5.6614,1.7013-6.4374,5.2935-2.473,11.447-7.3718,21.6563-16.5391,30.5481ZM114.5903,549.2367c-2.9114-3.7942-6.2505-7.0142-8.1874-10.9281-3.1233-6.3112-5.4528-13.0327-7.8532-19.6763-1.0815-2.9932-1.935-5.3107-5.9385-5.2852-4.5467.0291-8.6488-1.762-12.3472-4.6702-2.7169-2.1364-5.8113-3.9156-8.9686-5.3424-5.7931-2.618-11.7568-4.8586-18.3703-7.5498,9.9048,28.3712,29.9366,53.5771,61.6654,53.452ZM9.3316,283.5802c-.5324.0397-1.0648.0794-1.5973.1191-1.3111,9.0858-3.0489,18.1347-3.837,27.2656-1.3091,15.1663,1.8248,29.5901,9.4796,42.7955,2.3404,4.0374,5.7432,7.4588,8.6594,11.1623-.1686-16.5063,2.4743-32.077,6.5268-47.4798.2986-1.1348.3281-2.6038-.139-3.6361-4.9632-10.9688-11.6985-20.8144-19.0926-30.2267ZM1095.5196,366.9916c20.4523-18.3321,23.9115-52.7068,14.1364-81.7889-.5735.615-1.1473,1.0735-1.5247,1.6587-5.6706,8.7909-11.3164,17.5978-16.9655,26.4025-1.4955,2.3309-1.438,4.6751-.8948,7.417,1.9561,9.8736,3.8243,19.7845,5.1281,29.7594.6825,5.221.1205,10.6048.1205,16.5513ZM1029.9653,422.9932c3.348-6.2511,5.9654-12.2528,9.5753-17.5823,4.0561-5.9881,5.2155-12.0598,4.015-19.0847-2.5843-15.1213-11.5301-26.3039-22.0421-37.5756-2.8282,15.1825-3.6092,29.6103-3.271,44.2067.2657,11.4664,5.7412,20.5116,11.7229,30.0358ZM88.8023,421.128c2.5099-4.3188,5.004-8.4571,7.3314-12.6872.9992-1.8161,1.9865-3.7522,2.4086-5.7541,3.1574-14.9735,2.1177-29.9999.2597-45.0137-.4025-3.2527-1.0126-6.4796-1.572-10.0017-9.297,6.6416-20.3051,24.3218-21.7763,35.5104-.6189,4.7065-1.3352,10.1394.3715,14.2558,3.3624,8.11,8.3858,15.5314,12.9771,23.6905ZM72.2678,498.8563c-.5566-1.4557-1.0794-2.6647-1.486-3.9116-3.243-9.9446-7.8448-19.6979-9.3118-29.9006-1.5349-10.6746-7.1544-16.61-15.7921-21.1264-.6621-.3462-1.2676-.7992-1.9221-1.1616-5.7514-3.1853-11.6328-6.0192-18.3035-6.9946-.0587,20.6703,27.2661,57.5716,46.8154,63.0948ZM1094.2183,437.5795c-1.9495.2106-3.0745.1778-4.1093.4675-10.9026,3.0524-20.2357,8.985-28.9228,16.0273-.8695.7049-1.5067,2.0371-1.7076,3.1744-2.4833,14.0562-6.8298,27.5462-12.1463,40.7534-.298.7402-.4125,1.5542-.7601,2.9094,28.0109-12.3474,38.8979-36.5655,47.646-63.3319ZM151.2524,516.0241c3.3711-10.4561-10.0784-54.9368-19.9968-66.1211-3.865,3.4609-6.2715,7.809-7.0873,12.8031-1.7627,10.7909-3.1887,21.6369-4.7262,32.2784,10.6391,7.0368,21.2091,14.0279,31.8103,21.0396ZM966.2907,517.5726c.4239.0963.8479.1927,1.2718.289,1.118-.7467,2.2354-1.4941,3.354-2.2398,7.8857-5.2576,15.6111-10.7829,23.7328-15.6465,3.477-2.0821,4.7951-3.7254,3.9319-8.0279-1.7588-8.7673-2.4117-17.7505-3.9262-26.5751-.921-5.366-3.1223-10.2937-7.8907-13.993-8.4289,16.9114-15.6015,33.8692-19.3759,52.0472-.9539,4.5933-.7626,9.4243-1.0976,14.1462ZM1016.3517,554.426c-8.8622-.8682-17.414,1.0609-24.8167,4.8007-4.7383,2.3938-9.7585,4.2837-14.7736,6.0567-3.2688,1.1556-5.703,2.7829-7.9684,5.6135-5.0327,6.2883-10.6397,12.1398-16.2759,17.9124-2.5555,2.6174-5.7373,4.6232-8.85,7.0759,28.0433,1.7575,59.4802-15.0857,72.6846-41.4592ZM174.9878,593.987c-1.5734-1.1777-2.7108-2.0335-3.8528-2.883-8.1625-6.072-15.6347-12.8876-21.1222-21.5112-2.0461-3.2155-4.6502-4.7658-8.0565-6.0326-5.9148-2.1998-11.6429-4.9129-17.406-7.5067-7.0521-3.1739-14.3855-3.8775-22.2093-3.2598,13.5482,26.8105,45.6702,43.203,72.6468,41.1934ZM1076.1125,438.6827c7.2513-3.9802,14.2018-9.1507,20.048-15.7266,5.2073-5.857,9.5176-12.3297,10.5394-20.2529.5498-4.2626-.0759-8.671-.0927-13.0139-.0325-8.39-.0095-16.7802-.0095-26.347-7.8916,9.6582-15.298,18.6602-22.5809,27.7608-.5522.6901-.2953,2.0808-.3009,3.1464-.0356,6.67.9096,13.5166-.2897,19.9664-1.5489,8.3313-4.8029,16.3456-7.3136,24.4667ZM43.9932,437.6137c-.8478-1.7954-1.2896-2.7782-1.7701-3.7414-6.6632-13.3562-10.2599-27.2206-7.2082-42.2517.1849-.9108-.212-2.2319-.8179-2.9662-6.5774-7.9701-13.2424-15.868-19.9115-23.7619-.6316-.7476-1.453-1.335-2.3542-2.1484,0,8.3587.7548,16.2869-.1633,24.0165-1.7041,14.3466,2.3115,26.3078,12.4702,36.3817,5.6551,5.6079,11.8752,10.4215,19.7551,14.4715ZM59.3418,260.6656c4.6395-4.3805,8.5294-8.4278,12.8305-11.9769,2.681-2.2123,3.9228-4.675,3.7428-7.9988-.5186-9.571-.7436-19.1735-1.7313-28.6964-.4389-4.2312-2.4329-8.301-3.7211-12.444-.505-.0596-1.0101-.1192-1.5151-.1788-4.2401,6.4113-8.8162,12.6305-12.6246,19.2887-3.7167,6.4979-5.5895,13.8141-3.7964,21.2407,1.6496,6.8319,4.353,13.4093,6.8153,20.7656ZM1058.9018,261.9697c12.0755-21.1401,7.4854-47.5655-10.6914-60.527-1.261,3.5939-3.2696,7.0403-3.5812,10.6339-.9353,10.7936-1.2405,21.6432-1.6934,32.475-.0481,1.1483.1795,2.7111.9159,3.4241,4.9164,4.7609,10.0056,9.3432,15.0501,13.994ZM20.58,290.3562c.3377-3.9578.4737-7.9089,1.045-11.796,1.575-10.716,6.2534-20.3319,12.0431-29.2088,3.3385-5.1186,3.944-9.087.7614-14.3382-1.7296-2.8538-1.9258-6.6376-2.8092-10.003-.2693-1.0257-.524-2.0551-.7984-3.1337-20.0016,8.7956-29.9415,49.544-10.2419,68.4797ZM1097.6739,291.876c.3072.122.6142.2441.9214.3661,2.7075-4.2738,6.7018-8.2216,7.8822-12.8822,3.6064-14.2374,3.1718-28.457-4.352-41.673-3.4871-6.1253-8.2776-11.0462-13.7558-14.0855-2.0279,5.9208-3.6681,11.7692-6.0752,17.2829-1.1751,2.6917-.9505,4.3437.5332,6.7068,8.497,13.5337,15.7655,27.5398,14.8461,44.2848ZM80.7252,246.0382c-4.8191,4.3276-8.8353,7.6673-12.5393,11.3234-5.4649,5.3943-6.8807,11.9065-5.8309,19.5522,1.4974,10.9065,6.4006,21.3897,3.7984,33.3736,5.0903-3.6004,9.1558-6.9417,11.3757-12.3146,5.2989-12.8248,5.8664-26.1603,4.8353-39.7023-.2799-3.6766-.9677-7.3221-1.6393-12.2323ZM1051.7526,311.5474c0-3.1689-.3826-6.4488.0839-9.6032.8365-5.6575,2.1201-11.2532,3.329-16.8505,3.6054-16.6921-2.7552-30.0253-17.3646-36.1222-2.3695,12.2577-2.8858,24.5772-.7505,36.8469,1.7972,10.3266,4.701,20.287,14.7022,25.729Z"/>
    <path d="M524.6944,128.8154c-22.9064,26.5298-45.1691,52.314-67.3174,77.9659,6.9897-.7886,13.9105-1.9563,20.8705-2.2791,18.0023-.8349,33.4722,4.6857,44.8849,19.2934,5.6155,7.1876,7.9312,15.4619,7.1984,25.3782,2.5765-2.2934,4.5352-4.2548,6.7164-5.9259,3.0683-2.3509,6.4206-4.3415,9.404-6.7879,1.1379-.9331,2.2531-2.6969,2.2599-4.0876.1291-26.4929.1265-52.9868-.0143-79.4796-.0072-1.358-1.239-2.9906-2.3495-4.003-2.289-2.0869-5.1671-3.5691-7.2847-5.7934-3.4552-3.6294-2.7236-7.8277,1.6851-10.233,2.015-1.0994,4.4276-2.0337,6.6725-2.0626,27.1048-.3485,54.2144-.8208,81.3174-.6005,14.2052.1155,28.5214.6528,42.566,2.5984,14.6874,2.0347,25.7437,10.4367,31.9322,24.316,4.2098,9.4416,2.3446,18.6606-2.1187,27.4019-2.3635,4.629-5.5998,8.8122-8.6457,13.5108,1.7282,1.1134,3.7928,2.4128,5.8266,3.7586,22.2648,14.7315,30.7667,38.6829,22.6747,64.0536-.5574,1.7475-1.3809,3.5228-2.4967,4.9628-20.6529,26.6521-47.7587,42.2478-81.1096,46.9325-27.8557,3.9128-55.3059,1.2368-81.4882-8.5457-14.8965-5.5658-27.2629-15.7427-32.9804-31.7442-.9451-2.6451-1.1144-5.5674-1.6919-8.6246-11.341,10.0371-25.365,13.228-39.726,15.5081-12.9927,2.0628-25.8588.9322-38.7372-1.3163-30.1736-5.2682-60.5158-6.6832-91.0322-3.5086-6.1871.6436-12.401,1.0563-18.6115,1.4258-1.319.0785-2.7246-.3566-4.008-.7955-4.238-1.4492-5.7246-3.6787-3.8614-7.6296,2.2526-4.7767,4.8272-9.6701,8.3324-13.545,26.8954-29.7315,54.0513-59.2273,81.1236-88.7988.501-.5473.9695-1.1244,2.0743-2.4107-6.5683,1.6858-12.2925,3.3261-18.0962,4.6067-10.2051,2.2518-19.713,5.9787-28.482,11.773-4.5599,3.0131-9.914,4.2538-15.402,3.5428-6.2784-.8134-10.4091-5.8254-8.9414-11.9584,3.5953-15.0236,7.7956-29.904,11.9158-44.7968.2494-.9015,1.9042-1.4449,2.9538-2.0736.2763-.1655.735-.0276,1.1099-.0276,53.2361-.0002,106.4722-.0003,159.7084-.0004.7273,0,1.4547,0,3.1683,0ZM594.6981,133.407c-.0001.2325-.0003.465-.0005.6975-15.4947,0-30.9896-.0434-46.4836.059-1.7844.0118-3.7008.5541-5.3156,1.3427-3.0873,1.5077-3.4495,3.441-.8893,5.816,2.2619,2.0983,5.1894,3.4754,7.4748,5.5537,1.293,1.1759,2.6661,3.1187,2.6754,4.7237.1592,27.3733.0835,54.7479.1502,82.122.0064,2.6133-1.2579,3.8211-3.2024,5.3295-6.0789,4.7157-12.481,9.2582-17.5917,14.9203-7.324,8.1143-8.9919,17.8701-3.264,27.7069,6.7639,11.6159,16.802,20.2592,29.2627,24.6221,26.7693,9.3726,54.4202,12.3677,82.6196,7.663,30.7877-5.1364,55.8822-19.9646,75.1791-44.5241.911-1.1595,1.7852-2.4739,2.224-3.8595,5.5047-17.3832,4.0173-33.7554-7.4139-48.5435-5.2017-6.7293-11.9329-11.6647-19.2595-15.8522-3.7856-2.1636-3.8119-2.9431-1.1028-6.1685,2.4026-2.8607,4.8522-5.763,6.7238-8.9719,4.0838-7.0021,7.2759-14.4996,5.172-22.7775-3.7272-14.6647-14.0106-23.5749-28.1429-26.5474-11.7402-2.4694-24.0175-2.7642-36.0863-3.1933-14.2264-.5057-28.4846-.1186-42.729-.1186ZM517.4425,132.0779c-1.7934-.085-2.6435-.1606-3.4937-.1605-49.9892.0006-99.9785.0376-149.9675-.066-2.805-.0058-3.7293,1.2074-4.3304,3.4507-3.0007,11.1982-6.0743,22.3773-8.9982,33.5954-.7479,2.8695-1.4043,5.8495-1.4618,8.7913-.0817,4.1783,2.3865,6.9085,6.4787,6.4972,4.4741-.4498,9.0456-1.5321,13.1895-3.2617,5.2545-2.1931,9.8485-6.1887,15.2096-7.8621,12.4803-3.8955,25.2489-6.8678,37.9026-10.2071,1.2293-.3244,2.4715-.5998,3.7077-.8979-.7885,2.0319-1.9209,3.3121-3.0751,4.5725-29.1031,31.78-58.2532,63.5171-87.2415,95.4013-2.793,3.072-4.7352,6.9709-6.7849,10.6463-1.3166,2.3608-.3346,4.2824,2.401,4.5848,3.447.381,6.9548.6893,10.4044.4862,15.2923-.9003,30.5607-2.5343,45.8612-2.8876,20.7644-.4795,41.3057,2.3828,61.7613,5.8478,19.7871,3.3517,39.0377,1.1271,57.653-6.4043,11.3793-4.6039,18.1152-13.1299,20.011-25.1038,2.1812-13.7769-4.3816-23.9764-14.8992-31.8136-15.2785-11.385-32.5502-11.6571-50.1111-7.3421-15.1757,3.7289-18.6588,12.6015-11.0618,26.2855,1.3639,2.4567,2.8838,4.8267,4.3909,7.3352h-32.5331c-.1382-.3496-.2764-.6993-.4146-1.0489,31.6214-36.6053,63.2428-73.2105,95.4022-110.4386ZM428.403,240.3357h19.8008c-1.8844-5.5574-3.7147-10.9554-5.5936-16.4965-4.4145,5.1258-8.974,10.42-14.2072,16.4965Z"/>
    <path d="M934.0655,274.8578c-17.4487,0-33.5582-.3194-49.649.0938-14.7926.3799-29.1613,3.7516-43.3498,7.8254-6.2365,1.7906-12.5737,2.1068-18.8837.616-7.1009-1.6776-8.7318-7.0342-3.8691-12.5253,1.2151-1.3722,2.7258-2.7882,4.3891-3.3992,4.6306-1.7011,6.2491-5.3158,6.3388-9.6467.2664-12.8595.3475-25.7243.3579-38.5872.0144-17.7428-.1107-35.4856-.1576-53.2285-.0146-5.4984.1688-11.0026-.0523-16.4915-.0528-1.313-1.0775-2.9325-2.1515-3.7877-2.3287-1.8542-5.1685-3.0764-7.4541-4.973-3.8584-3.2018-3.8659-7.7763.4552-10.2696,3.4349-1.9819,7.5836-3.281,11.5354-3.6721,4.9143-.4864,9.9976-.0775,14.9271.5647,11.7457,1.53,23.0953-1.2736,34.5901-2.5955,8.5386-.9819,17.0968-1.7954,25.6524-2.6215,1.0986-.1061,2.2636.0338,3.3463.2836,3.5591.8213,4.4961,3.3411,1.933,5.9499-2.4345,2.4779-5.1049,4.8791-8.0682,6.6506-6.5876,3.9383-8.5036,9.3082-8.4803,16.9947.0565,18.5933-1.2643,37.1863-1.6168,55.7872-.1509,7.9627.5738,15.9568,1.1949,23.9136.3535,4.5271,2.0055,5.9285,6.6442,6.6487,8.6082,1.3364,17.0339-.1411,25.0818-2.8233,13.9488-4.6489,27.641-10.0622,41.514-14.9466,5.278-1.8582,10.6836-3.5292,16.166-4.5849,6.2133-1.1964,7.7.7229,6.3429,6.8686-3.4943,15.8248-6.9216,31.6645-10.4713,47.4768-1.2798,5.7008-1.4058,5.7265-7.1598,5.5776-13.485-.3489-26.9686-.7544-39.1059-1.0988ZM909.2216,126.6821c-.1225-.4969-.245-.9937-.3674-1.4906-4.9128.3061-9.8714.288-14.7302.9755-19.1205,2.7054-38.0742,6.7039-57.6553,3.7651-4.4425-.6667-9.5438,1.2761-13.9826,2.9632-3.1978,1.2154-3.0706,3.5518-.265,5.6832,1.977,1.5019,4.1614,2.7518,6.3342,3.9701,2.9863,1.6745,4.4894,3.8589,4.3028,7.5465-.3596,7.1066-.3357,14.2374-.3141,21.3576.0769,25.3676.2551,50.735.3017,76.1026.0076,4.1074-.2894,8.2348-.7503,12.3185-.5158,4.5699-2.3618,8.2933-7.0858,10.1524-1.6511.6498-3.155,2.0475-4.3397,3.4338-2.9375,3.4373-2.3388,6.0529,2.0544,6.5176,5.4749.579,11.3975,1.0506,16.5742-.4015,21.1976-5.9458,42.7505-9.1019,64.6808-8.8988,22.5972.2093,45.1891,1.2338,67.7757,2.1016,3.5993.1383,5.0305-1.0127,5.7531-4.471,3.2632-15.6158,6.7647-31.1818,10.147-46.773.1673-.7709.0216-1.6096.0216-3.1377-5.234,1.4602-10.1104,2.5059-14.7618,4.1782-13.1437,4.7255-26.117,9.9332-39.3098,14.5113-9.085,3.1525-18.4701,5.2218-28.2275,5.0375-9.7651-.1844-13.4412-3.0084-13.9612-12.5886-.6288-11.5842-.8335-23.2167-.6054-34.8162.3192-16.2296,1.6965-32.4519,1.5652-48.6688-.0412-5.0888,2.0189-7.4952,5.1992-10.0791,3.8539-3.1313,7.7618-6.196,11.6464-9.2895Z"/>
    <path d="M248.2597,126.5642c12.6043.0863,31.1201,2.209,48.6545,9.6912,27.5049,11.7367,42.5294,32.7561,46.1927,62.2564,2.8009,22.5557-2.1115,42.7096-18.2687,59.3432-11.3363,11.6705-25.267,19.1275-40.8231,23.3218-33.5649,9.05-66.8074,8.1399-98.984-5.6261-22.0821-9.4473-37.9082-25.3495-44.3757-49.0979-10.1488-37.2661,8.4209-73.8838,45.078-89.5129,17.0581-7.2729,33.9253-10.3834,62.5264-10.3757ZM241.4,283.3779c18.1642.2093,34.2543-2.1735,49.7293-8.0284,12.7909-4.8393,24.2845-11.7526,33.4105-22.1168,13.182-14.9707,17.6194-32.4913,15.5084-52.148-2.9291-27.2737-15.4014-48.0018-40.5621-59.9958-20.9297-9.9771-43.3561-11.9016-66.1607-11.0145-18.807.7317-36.815,4.597-53.6022,13.518-29.9185,15.8992-44.7056,48.8452-35.9901,81.4424,6.5591,24.5319,23.4005,39.7768,46.204,49.0921,16.9948,6.9425,34.8656,9.3737,51.463,9.2509Z"/>
    <path d="M751.8461,128.2735c14.4865,0,28.9731-.0225,43.4595.0163,3.4917.0094,6.9868.1554,10.4734.3582,4.3646.2539,8.2322,3.6234,8.9584,7.657.7336,4.075-.9196,7.1068-5.4755,9.0902-2.1321.9282-2.9937,2.0096-3.014,4.4032-.1379,16.112-.4945,32.222-.6664,48.3338-.1761,16.4898-.2227,32.9811-.3235,49.4717-.0061.9993.0757,2.0032.006,2.9973-.2845,4.0615.874,7.0267,5.0817,8.6783,2.9079,1.1415,4.789,3.6369,4.5829,7.0766-.2007,3.3494-2.7188,4.7822-5.2669,6.2548-5.3799,3.1089-11.3801,2.5223-17.1671,2.8585-17.4059,1.0113-34.4517,3.6612-50.8965,9.7175-4.4686,1.6457-9.1652,2.5047-13.9375.8729-7.16-2.4483-8.906-9.4121-3.7405-14.8317,5.1556-5.4093,7.9703-11.368,7.9274-19.3581-.1601-29.8545.4126-59.713.6963-89.5701.0201-2.1222-.2009-4.2523-.0859-6.3666.1921-3.5334-.7792-6.3172-4.0744-8.1327-1.1661-.6424-2.1215-1.7479-3.0247-2.7727-4.0613-4.6075-3.607-9.4732,1.7711-12.5286,3.1375-1.7824,6.8933-2.9111,10.4899-3.3421,4.6799-.5609,9.4778-.1371,14.225-.1371.0004-.2489.0009-.4979.0013-.7468ZM770.8016,131.8586c.0004.2223.0007.4447.0011.667-11.4897,0-22.9798-.0578-34.4688.0303-4.2147.0323-9.4169,2.9845-9.909,5.5904-.7899,4.1827,2.7816,5.7226,5.1925,7.9287.0918.084.2354.1305.2927.2302,1.1835,2.0594,3.2139,4.059,3.3767,6.1997.5285,6.9479.5031,13.9487.4563,20.9276-.1795,26.7338-.5952,53.4673-.5563,80.2003.0071,4.8913-.9325,9.1328-3.5295,13.0671-1.5757,2.3871-3.6232,4.4641-5.1824,6.8603-.9993,1.5358-2.5545,4.0071-1.9922,4.9866,1.1092,1.9325,3.3852,4.1247,5.4169,4.3907,3.4583.4528,7.351.1982,10.6242-.9764,19.0263-6.828,38.7023-9.4542,58.7719-10.1459,3.0115-.1038,6.1544-1.047,8.9301-2.2875,4.5813-2.0475,4.5605-4.7268.2968-7.5572-.5195-.3448-1.0297-.7787-1.6092-.9461-4.1676-1.2035-4.9305-4.2628-4.8953-8.1211.3073-33.7336.5959-67.4678.6897-101.2024.0133-4.7596.9203-8.0676,5.9144-9.8062,3.301-1.1491,4.1651-4.2062,2.0355-6.5764-1.4836-1.6512-4.0117-3.248-6.1179-3.3083-11.2383-.3216-22.4906-.1515-33.738-.1515Z"/>
    <path d="M284.3254,76.3298c7.9037.177,15.803,1.0382,23.0561,4.9386,15.9075,8.5544,16.8493,28.9743,1.1719,37.8374-15.9825,9.0356-32.9542,9.0715-49.0482.3348-15.1222-8.2092-15.198-27.474-.7863-36.8868,7.7353-5.0522,16.4881-6.1096,25.6065-6.2241ZM283.9841,78.8794c-7.3658.852-14.3926,1.6844-20.8826,5.0251-6.7588,3.4791-11.316,8.5787-11.4704,16.614-.1581,8.2239,4.1715,13.8436,11.2456,17.0503,13.7696,6.2417,27.8634,6.4021,41.6425.0849,7.0506-3.2325,12.0395-8.5015,11.6539-17.1161-.3915-8.7494-4.9759-14.72-12.991-17.408-6.1794-2.0724-12.783-2.8801-19.198-4.2502Z"/>
    <path d="M161.3649,96.8739c.0801-6.0646,5.5319-12.7568,14.3117-16.4367,13.9435-5.8441,28.3056-5.7908,42.3256-.251,11.2831,4.4583,16.7008,15.0945,14.0342,25.8675-1.5798,6.3822-5.6716,10.8951-11.3227,13.7211-15.2103,7.6066-30.8023,7.7293-46.2229.8256-8.8348-3.9553-13.0852-11.0243-13.126-23.7267ZM197.0742,122.0285c7.9967.0661,15.6301-1.3506,22.5982-5.5124,5.8385-3.4871,9.7664-8.2889,9.6145-15.3812-.1696-7.9217-3.7328-14.2806-11.1923-17.1009-5.8468-2.2105-12.1982-3.5913-18.4324-4.1525-9.031-.813-17.9553.4196-25.9419,5.3676-11.9888,7.4275-12.3063,22.896-.5968,30.7305,7.2474,4.849,15.4711,5.9908,23.9508,6.0488Z"/>
    <path d="M767.8626,122.9686c-7.8262-.0319-15.4482-1.0683-22.4426-4.854-7.5376-4.0798-12.4202-10.0606-12.4897-18.9885-.0703-9.0252,4.3742-15.7481,12.283-19.4609,15.4299-7.2435,31.4059-7.3943,46.5904.2021,15.4588,7.7335,15.5923,28.1212.8272,37.1155-7.6007,4.63-16.0162,6.0442-24.7683,5.9859ZM768.0261,119.7553c8.2852-.1008,15.9621-1.3943,22.8793-5.677,5.7977-3.5895,9.4996-8.4788,9.1394-15.6376-.3701-7.3507-3.7122-13.1747-10.5027-15.9898-5.0955-2.1124-10.6549-3.5583-16.1358-4.1899-9.935-1.1448-19.7704-.1706-28.4883,5.4042-11.8007,7.5461-11.6966,22.803.1141,30.3373,7.1041,4.5319,15.0957,5.583,22.9939,5.7527Z"/>
    <path d="M1056.2796,751.4936c-62.6077-13.6995-117.2221-41.1867-158.5392-91.6581-13.7659-16.8159-22.0261-31.4302-34.6069-61.7312-.9465.5509-1.9204.9883-2.7478,1.6183-23.0039,17.514-48.2999,31.0349-74.7166,42.5087-48.7261,21.1635-99.526,35.5843-151.5295,45.9787-8.4326,1.6855-16.9251,3.0712-25.3854,4.6202-.7104.1301-1.3864.4484-2.263.7409.1837,1.0762.3436,2.0121.5887,3.4477,45.4729-6.2572,90.5759-13.5724,135.0678-24.4579,44.5098-10.89,86.0789-30.0502,128.9895-45.7741,1.5633,2.8223,2.9385,5.305,4.6216,8.3435-8.7603,4.2479-17.1541,8.6288-25.7941,12.4536-36.7935,16.2882-74.6407,29.9423-113.5029,40.0598-23.7946,6.1947-48.5067,9.1416-72.95,12.5055-40.7828,5.6126-81.855,6.8014-122.9842,6.0062-41.5931-.8041-82.5153-6.4409-122.8536-16.6983-44.3597-11.2799-87.3666-26.4565-129.3306-44.5704-15.0951-6.5158-29.5963-14.4074-44.9837-21.9736,2.589-3.1532,4.903-5.9716,6.7821-8.2602,12.3445,6.3075,24.1215,12.8379,36.32,18.4523,26.2451,12.0794,53.7185,20.8482,81.3999,28.9443,44.0754,12.891,88.8178,23.0164,133.8323,31.989,3.8936.7761,7.8222,1.3775,11.6769,2.05,1.2197-3.5877,1.2246-3.6145-2.1453-4.227-39.998-7.2708-79.0183-18.024-116.885-32.8654-44.3734-17.3916-86.4006-39.1355-124.8417-67.5002-2.4974-1.8427-4.8646-3.8619-7.646-6.0812-3.018,5.1597-5.8386,10.0904-8.7607,14.9602-20.7675,34.6092-46.0209,65.2988-78.5457,89.5948-30.787,22.998-65.0054,37.8747-103.2155,42.9894-8.6393,1.1564-17.3987,1.4156-26.1029,2.0878-.0636-.3061-.1273-.6123-.1909-.9184,2.9765-.9868,5.9504-1.9812,8.9298-2.9592,39.6336-13.0098,76.3199-31.5024,108.5596-58.2883,29.3776-24.4079,52.2212-53.881,68.6847-88.3337,2.4152-5.0544,4.0302-11.2112,7.9586-14.6165,3.8076-3.3008,10.119-3.713,15.3306-5.3946,6.8846-2.2213,13.7414-4.5368,20.6784-6.5805,1.2796-.377,3.3289-.175,4.2722.6345,33.0033,28.3245,70.1076,50.4129,108.0883,71.1478,32.5574,17.7742,65.9042,33.9615,99.8651,48.8744,12.666,5.5619,26.137,8.2874,39.7076,10.3685,17.5987,2.6989,35.311,3.0583,53.0519,1.5165,20.1542-1.7515,39.4105-6.8919,58.282-14.2126,41.3192-16.0289,82.4072-32.5499,121.8952-52.7708,27.5121-14.0884,54.1154-29.6273,77.5478-50.0572.5646-.4923,1.2253-.8839,1.7458-1.4157,3.225-3.2947,6.7906-3.7949,11.1874-2.2762,10.0116,3.4578,20.1355,6.5972,30.2568,9.7267,3.1026.9592,4.8663,2.7159,6.1734,5.7752,24.2171,56.6785,63.1966,100.9984,113.8543,135.4718,16.9693,11.5479,34.8636,21.4502,53.5934,29.8459.5515.2473,1.054.6038,1.5795.9094Z" fill="#fff200"/>
    <path d="M972.3405,538.4356c-.0442,13.765-1.9394,25.7982-10.3695,35.8138-15.159,18.0098-35.4838,28.2018-56.6748,37.3842-1.1257-1.535-2.0728-2.8347-3.0286-4.1281-2.8093-3.8017-3.0857-7.0907.0371-11.3699,15.9616-21.8725,35.1375-40.0768,58.9466-53.1616,3.2101-1.7641,6.8131-2.8133,11.0892-4.5384Z" fill="#fff200"/>
    <path d="M212.868,609.6979c-22.0574-9.8082-43.3594-20.3017-58.3576-40.03-5.6706-7.4591-9.5289-23.7039-7.548-32.3066,2.196.6444,4.4938,1.0199,6.526,1.9657,9.9983,4.6533,19.205,10.4986,27.5863,17.7598,13.0583,11.3133,25.5665,23.0542,35.3238,37.4924,2.1588,3.1945,2.9643,5.6406.3667,8.8173-1.4759,1.8049-2.4909,3.9868-3.8972,6.3014Z" fill="#fff200"/>
    <path d="M1058.9768,449.3582c.5662-7.344,1.1037-13.7747,1.5183-20.2132.0715-1.1092-.3787-2.252-.5879-3.3793-1.0846.3706-2.3747.4816-3.2221,1.152-8.1952,6.4827-16.3159,13.0594-25.1828,20.1922.9792-7.4668-1.304-14.6094,1.7097-21.7358,8.1081-19.1742,21.2375-34.8243,34.7559-50.2262,1.3777-1.5698,2.8112-3.0905,4.3141-4.7384,13.0706,28.8317,10.3033,62.3356-13.3052,78.9487Z" fill="#fff200"/>
    <path d="M86.7023,445.3915c-6.0021-5.1088-11.3599-9.7493-16.8122-14.276-2.6844-2.2287-5.5131-4.2892-8.3448-6.331-.7344-.5295-1.7261-.7021-2.5996-1.0386-.3267.9929-.988,2.0078-.9241,2.9749.3367,5.0977.8928,10.1805,1.2919,15.2747.1314,1.6772.0207,3.3732.0207,5.4955-23.1915-16.6951-26.0919-49.4022-13.0098-78.9801,2.4833,2.815,4.8493,5.4373,7.1503,8.1155,11.3926,13.2605,22.2268,26.8163,30.1057,42.6726,4.2148,8.4824,3.2038,16.8252,3.122,26.0924Z" fill="#fff200"/>
    <path d="M36.3579,385.525c-5.9041-6.7975-9.0246-14.5862-9.542-23.001-1.5026-24.4363,5.1418-47.3253,14.4393-69.7717,13.225,27.4705,24.6459,55.2646,20.5424,87.1658-1.7683-2.2451-3.5325-4.4935-5.3057-6.7347-2.3989-3.032-4.6478-6.2022-7.2511-9.0478-2.6873-2.9374-5.0306-2.338-6.2853,1.3874-2.1846,6.4865-4.2925,12.9989-6.5976,20.002Z" fill="#fff200"/>
    <path d="M1078.2638,294.5728c2.4814,7.6285,5.2184,15.1851,7.3886,22.9012,3.9228,13.9474,7.0058,28.09,6.4948,42.7034-.3286,9.4002-2.7869,18.2066-8.7492,25.7628-.306.3878-.4275.9211-.9246,2.0364-2.4205-7.3222-4.3906-13.5627-6.5869-19.7226-.5295-1.4852-1.765-3.759-2.7531-3.7996-1.529-.063-3.5305,1.136-4.6178,2.4094-3.7228,4.3602-7.1429,8.9797-10.6509,13.5216-.3036.393-.4044.9425-1.1387,1.1033-4.0582-31.5468,7.3629-59.2322,19.8194-86.6749.5728-.0803,1.1456-.1607,1.7184-.241Z" fill="#fff200"/>
    <path d="M145.4869,560.5379c-38.1656-9.1684-48.3206-41.3169-43.3092-66.8335,9.828,3.682,19.7933,6.8698,28.4798,12.9684,4.7995,3.3696,9.6994,6.5966,14.484,9.9868,5.9601,4.2232,11.7719,12.9967,13.5071,20.1976-3.7596-1.014-7.436-2.3322-11.2265-2.9431-4.4556-.7181-4.7988-.2642-4.716,4.1502.07,3.7329.1874,7.4856.6447,11.1849.4537,3.6703,1.3583,7.2848,2.1361,11.2887Z" fill="#fff200"/>
    <path d="M1016.5178,495.6709c7.6363,28.8786-15.4622,64.1908-43.1926,66.2452.8058-4.6551,1.7485-9.2436,2.3495-13.8763.3995-3.0798.3189-6.2226.4387-9.3377.1025-2.6617-1.3022-3.698-3.7688-3.1601-4.0824.8905-8.131,1.9365-12.5104,2.9933,2.2711-7.5428,6.1501-14.2045,12.3203-19.0182,12.9454-10.0995,26.8056-18.7154,42.717-23.5077.4582-.138.9407-.1958,1.6461-.3383Z" fill="#fff200"/>
    <path d="M96.9219,509.4762c-8.03.3458-18.1563-5.7578-21.4332-13.0654-6.5782-14.6701-10.714-30.0824-12.6271-46.0016-.7497-6.2385-.1227-12.6424-.1227-18.9515,14.8748,6.1505,42.0417,39.3988,48.4533,59.6903-3.0766-.7449-5.8577-1.4667-8.6616-2.0852-3.8427-.8476-5.2319-.1753-5.6626,3.7271-.4052,3.6708.0114,7.4313.0505,11.1526.0195,1.8519.0034,3.7043.0034,5.5338Z" fill="#fff200"/>
    <path d="M1022.0218,511.7666c0-4.163-.0061-8.112.0044-12.0611.0027-.9934.1454-1.9928.076-2.9791-.4184-5.9407-1.8628-7.0168-7.5244-5.6014-2.1566.5392-4.2895,1.1735-6.4758,1.7763-.0625-12.4026,31.5038-51.8823,47.7825-59.8524.1061.3341.2869.6468.2945.9637.4904,20.3209-3.5907,39.7508-10.6013,58.7847-4.1416,11.2446-11.9693,16.9757-23.5559,18.9692Z" fill="#fff200"/>
    <path d="M1059.0029,320.5565c-.8532-2.9735-2.5724-5.9977-2.4021-8.9114.58-9.9223,1.7879-19.8096,2.8273-29.7028,1.4209-13.5242,5.5679-26.2847,11.0079-38.6696.3344-.7613.7911-1.4689,1.3247-2.4464,11.604,13.5973,21.1794,27.8235,22.2285,46.1494.4673,8.1609-1.1888,15.797-6.1925,23.2115-2.3369-6.4525-4.3664-12.394-6.6779-18.2235-.6554-1.6529-2.1335-2.9795-3.2343-4.4558-1.2686,1.2054-2.986,2.1828-3.733,3.6532-4.8508,9.5487-9.4907,19.2047-14.1996,28.8256-.3164.19-.6327.38-.949.57Z" fill="#fff200"/>
    <path d="M47.8987,239.1296c3.0853,9.5582,6.9735,18.9451,9.0597,28.7166,2.826,13.2364,5.8841,26.5657,5.1713,40.3147-.201,3.8779-.1792,7.7847-3.57,10.4724-3.6472-7.9171-7.2397-15.8422-10.9574-23.708-1.1156-2.3603-2.4696-4.6305-3.934-6.7933-.6986-1.0319-2.152-2.5631-2.8368-2.3683-1.1648.3314-2.4334,1.6829-2.8872,2.8946-2.2685,6.0578-4.2809,12.2113-6.4065,18.3232-.1126.3239-.4359.5745-.9058,1.1685-5.2072-7.8624-6.998-16.3142-5.9319-25.3556,1.5948-13.5254,7.4391-25.2456,15.7823-35.8334,2.004-2.5432,3.9989-5.0935,5.998-7.6405.4727-.0637.9454-.1273,1.4181-.1909Z" fill="#fff200"/>
    <path d="M110.5104,406.4886c6.6446,27.5588,11.262,54.6062,5.6827,82.3614-.3445.1083-.6889.2166-1.0334.3249-.546-.9725-1.0574-1.9663-1.6433-2.9141-7.0746-11.4452-14.1645-22.8809-21.2323-34.3302-.4403-.7132-1.0392-1.5188-1.041-2.2826-.0168-6.9592-.6173-14.0136.3097-20.8563,1.445-10.6669,8.5026-17.3756,18.9577-22.303Z" fill="#fff200"/>
    <path d="M1002.4049,490.4708c-5.3732-27.6667-1.0809-54.6928,5.6196-81.678,10.4331,2.724,18.7796,13.3874,19.5925,24.9464.3747,5.3287.1631,10.7087-.0038,16.0586-.0436,1.3944-.694,2.8997-1.4439,4.1219-6.8389,11.146-13.7646,22.2386-20.6548,33.3532-.6959,1.1226-1.3241,2.2872-1.9838,3.4323-.3753-.0781-.7506-.1563-1.1259-.2344Z" fill="#fff200"/>
    <path d="M1028.7963,297.3647c8.5354,7.4501,17.1377,14.8255,25.5755,22.3845,3.7252,3.3373,4.6506,7.7046,2.7323,12.3196-6.9132,16.6313-5.4987,33.9995-5.0191,51.3468.0761,2.7514-1.7736,5.556-2.7328,8.3361-.4116-.0707-.8232-.1413-1.2349-.212-.2186-.7217-.4565-1.4382-.6529-2.1659-1.6788-6.219-2.3937-12.918-5.2155-18.5646-6.584-13.1752-9.8399-27.1822-11.9642-41.4903-1.5344-10.3355-2.0115-20.828-2.9602-31.2505.4906-.2346.9812-.4692,1.4717-.7038Z" fill="#fff200"/>
    <path d="M90.8941,296.4203c-.4997,8.0369-.6902,16.1078-1.5682,24.1032-1.4984,13.6451-4.318,27.0482-9.1068,39.9562-1.1625,3.1336-3.1846,5.9576-4.2616,9.1116-2.2371,6.5513-4.1058,13.2284-6.1092,19.7986-1.6757-1.9093-3.5858-4.2209-3.5129-7.9313.1983-10.087.3704-20.1905-.0146-30.2657-.1775-4.6453-1.583-9.2619-2.6213-13.8486-.5195-2.2951-1.3864-4.5238-2.2326-6.7302-1.9864-5.1796-.7656-9.6129,3.2624-13.1847,8.1908-7.2632,16.5017-14.391,24.7631-21.5746.4672.1885.9344.377,1.4016.5655Z" fill="#fff200"/>
    <path d="M200.0725,569.5241c-11.4918-10.6975-23.524-20.8817-34.315-32.2446-9.7272-10.2427-12.1617-22.8983-7.0738-36.5097.2141-.5728.5634-1.0952,1.0368-1.9979,22.1917,18.5948,41.0495,38.8217,41.7813,69.7789-.4765.3244-.9529.6488-1.4294.9733Z" fill="#fff200"/>
    <path d="M958.9619,500.4583c5.0191,11.0917,4.4685,21.3712-.9724,31.3775-1.6537,3.0414-3.5761,6.1415-6.0595,8.4919-11.0411,10.45-22.3304,20.6376-33.53,30.92l-1.4395-.4964c.5894-4.9078.7431-9.9159,1.8455-14.7057,4.2177-18.3257,15.1371-32.5639,28.4361-45.2233,3.6062-3.4327,7.4569-6.6084,11.7198-10.364Z" fill="#fff200"/>
    <path d="M1003.6409,550.7594c9.1673-8.8917,14.0661-19.1011,16.5391-30.5481.776-3.5922,2.6871-4.8868,6.4374-5.2935,3.5484-.3848,7.3713-1.6928,10.2954-3.7181,8.0008-5.5415,16.8058-9.1832,25.8604-12.4016.6628-.2357,1.415-.2199,2.8687-.4267-6.2964,15.8273-13.6913,30.1681-27.0311,40.5547-9.98,7.7705-21.052,12.5805-34.9699,11.8333Z" fill="#fff200"/>
    <path d="M114.5903,549.2367c-31.7288.1251-51.7606-25.0808-61.6654-53.452,6.6135,2.6912,12.5772,4.9318,18.3703,7.5498,3.1573,1.4268,6.2517,3.206,8.9686,5.3424,3.6984,2.9081,7.8005,4.6992,12.3472,4.6702,4.0035-.0255,4.857,2.292,5.9385,5.2852,2.4004,6.6437,4.7299,13.3651,7.8532,19.6763,1.9369,3.9139,5.2761,7.1339,8.1874,10.9281Z" fill="#fff200"/>
    <path d="M9.3316,283.5802c7.3941,9.4122,14.1294,19.2579,19.0926,30.2267.4671,1.0323.4376,2.5013.139,3.6361-4.0525,15.4028-6.6954,30.9735-6.5268,47.4798-2.9163-3.7035-6.3191-7.125-8.6594-11.1623-7.6549-13.2054-10.7888-27.6292-9.4796-42.7955.7882-9.1309,2.526-18.1799,3.837-27.2656.5324-.0397,1.0648-.0794,1.5973-.1191Z" fill="#fff200"/>
    <path d="M1095.5196,366.9916c0-5.9465.562-11.3303-.1205-16.5513-1.3038-9.9749-3.172-19.8858-5.1281-29.7594-.5432-2.7418-.6007-5.0861.8948-7.417,5.6491-8.8047,11.2949-17.6117,16.9655-26.4025.3774-.5852.9512-1.0437,1.5247-1.6587,9.7751,29.0821,6.3159,63.4568-14.1364,81.7889Z" fill="#fff200"/>
    <path d="M1029.9653,422.9932c-5.9817-9.5243-11.4572-18.5694-11.7229-30.0358-.3382-14.5964.4428-29.0242,3.271-44.2067,10.5121,11.2716,19.4579,22.4542,22.0421,37.5756,1.2005,7.0249.0411,13.0967-4.015,19.0847-3.6099,5.3295-6.2273,11.3312-9.5753,17.5823Z" fill="#fff200"/>
    <path d="M88.8023,421.128c-4.5913-8.1591-9.6147-15.5805-12.9771-23.6905-1.7067-4.1164-.9904-9.5493-.3715-14.2558,1.4712-11.1885,12.4793-28.8688,21.7763-35.5104.5594,3.522,1.1695,6.749,1.572,10.0017,1.8581,15.0138,2.8977,30.0401-.2597,45.0137-.4221,2.0019-1.4094,3.938-2.4086,5.7541-2.3273,4.2301-4.8215,8.3684-7.3314,12.6872Z" fill="#fff200"/>
    <path d="M72.2678,498.8563c-19.5493-5.5232-46.8741-42.4246-46.8154-63.0948,6.6707.9754,12.5521,3.8094,18.3035,6.9946.6544.3625,1.2599.8155,1.9221,1.1616,8.6377,4.5164,14.2572,10.4518,15.7921,21.1264,1.467,10.2027,6.0688,19.956,9.3118,29.9006.4066,1.2469.9294,2.4559,1.486,3.9116Z" fill="#fff200"/>
    <path d="M1094.2183,437.5795c-8.748,26.7664-19.635,50.9845-47.646,63.3319.3475-1.3552.4621-2.1693.7601-2.9094,5.3165-13.2072,9.663-26.6971,12.1463-40.7534.2009-1.1372.8381-2.4695,1.7076-3.1744,8.6871-7.0423,18.0202-12.9749,28.9228-16.0273,1.0347-.2897,2.1597-.2569,4.1093-.4675Z" fill="#fff200"/>
    <path d="M151.2524,516.0241c-10.6011-7.0117-21.1712-14.0028-31.8103-21.0396,1.5375-10.6415,2.9635-21.4875,4.7262-32.2784.8158-4.9942,3.2223-9.3422,7.0873-12.8031,9.9184,11.1843,23.3678,55.665,19.9968,66.1211Z" fill="#fff200"/>
    <path d="M966.2907,517.5726c.335-4.7218.1437-9.5529,1.0976-14.1462,3.7744-18.178,10.9471-35.1357,19.3759-52.0472,4.7683,3.6992,6.9696,8.627,7.8907,13.993,1.5146,8.8245,2.1674,17.8077,3.9262,26.5751.8632,4.3025-.4549,5.9458-3.9319,8.0279-8.1216,4.8637-15.847,10.3889-23.7328,15.6465-1.1186.7457-2.2361,1.4932-3.354,2.2398-.4239-.0963-.8479-.1927-1.2718-.289Z" fill="#fff200"/>
    <path d="M1016.3517,554.426c-13.2045,26.3735-44.6413,43.2167-72.6846,41.4592,3.1127-2.4527,6.2945-4.4585,8.85-7.0759,5.6362-5.7726,11.2431-11.6241,16.2759-17.9124,2.2654-2.8306,4.6996-4.4579,7.9684-5.6135,5.0151-1.773,10.0353-3.6629,14.7736-6.0567,7.4028-3.7398,15.9545-5.6689,24.8167-4.8007Z" fill="#fff200"/>
    <path d="M174.9878,593.987c-26.9766,2.0096-59.0986-14.3829-72.6468-41.1934,7.8238-.6177,15.1572.086,22.2093,3.2598,5.7632,2.5938,11.4912,5.3069,17.406,7.5067,3.4063,1.2669,6.0103,2.8171,8.0565,6.0326,5.4875,8.6236,12.9597,15.4392,21.1222,21.5112,1.142.8496,2.2794,1.7054,3.8528,2.883Z" fill="#fff200"/>
    <path d="M1076.1125,438.6827c2.5107-8.1211,5.7647-16.1354,7.3136-24.4667,1.1992-6.4498.2541-13.2963.2897-19.9664.0057-1.0656-.2513-2.4564.3009-3.1464,7.2829-9.1007,14.6894-18.1026,22.5809-27.7608,0,9.5668-.023,17.957.0095,26.347.0168,4.3429.6425,8.7513.0927,13.0139-1.0217,7.9232-5.332,14.3959-10.5394,20.2529-5.8463,6.5759-12.7967,11.7464-20.048,15.7266Z" fill="#fff200"/>
    <path d="M43.9932,437.6137c-7.8799-4.05-14.1-8.8635-19.7551-14.4715-10.1587-10.0739-14.1743-22.0351-12.4702-36.3817.9181-7.7295.1633-15.6578.1633-24.0165.9012.8134,1.7226,1.4007,2.3542,2.1484,6.6691,7.894,13.3341,15.7919,19.9115,23.7619.6059.7343,1.0028,2.0554.8179,2.9662-3.0517,15.031.545,28.8955,7.2082,42.2517.4806.9633.9223,1.946,1.7701,3.7414Z" fill="#fff200"/>
    <path d="M59.3418,260.6656c-2.4623-7.3562-5.1657-13.9337-6.8153-20.7656-1.7931-7.4266.0797-14.7429,3.7964-21.2407,3.8084-6.6582,8.3845-12.8774,12.6246-19.2887.505.0596,1.0101.1192,1.5151.1788,1.2881,4.1431,3.2822,8.2129,3.7211,12.444.9878,9.5229,1.2127,19.1254,1.7313,28.6964.1801,3.3239-1.0617,5.7866-3.7428,7.9988-4.3011,3.5491-8.191,7.5965-12.8305,11.9769Z" fill="#fff200"/>
    <path d="M1058.9018,261.9697c-5.0445-4.6508-10.1337-9.2331-15.0501-13.994-.7364-.713-.964-2.2758-.9159-3.4241.4528-10.8318.7581-21.6814,1.6934-32.475.3116-3.5935,2.3202-7.0399,3.5812-10.6339,18.1769,12.9615,22.767,39.3869,10.6914,60.527Z" fill="#fff200"/>
    <path d="M20.58,290.3562c-19.6996-18.9356-9.7597-59.6841,10.2419-68.4797.2743,1.0785.5291,2.108.7984,3.1337.8835,3.3654,1.0797,7.1492,2.8092,10.003,3.1826,5.2512,2.5771,9.2196-.7614,14.3382-5.7897,8.8769-10.4681,18.4928-12.0431,29.2088-.5713,3.8871-.7073,7.8382-1.045,11.796Z" fill="#fff200"/>
    <path d="M1097.6739,291.876c.9194-16.745-6.3491-30.7511-14.8461-44.2848-1.4837-2.3631-1.7083-4.0152-.5332-6.7068,2.4071-5.5137,4.0473-11.3621,6.0752-17.2829,5.4782,3.0393,10.2687,7.9602,13.7558,14.0855,7.5238,13.216,7.9583,27.4356,4.352,41.673-1.1804,4.6606-5.1747,8.6084-7.8822,12.8822-.3072-.122-.6142-.2441-.9214-.3661Z" fill="#fff200"/>
    <path d="M80.7252,246.0382c.6716,4.9102,1.3593,8.5557,1.6393,12.2323,1.0311,13.542.4636,26.8775-4.8353,39.7023-2.22,5.3729-6.2855,8.7142-11.3757,12.3146,2.6022-11.984-2.301-22.4672-3.7984-33.3736-1.0497-7.6457.366-14.1579,5.8309-19.5522,3.7039-3.6561,7.7202-6.9958,12.5393-11.3234Z" fill="#fff200"/>
    <path d="M1051.7526,311.5474c-10.0011-5.4419-12.905-15.4024-14.7022-25.729-2.1354-12.2697-1.619-24.5892.7505-36.8469,14.6094,6.0969,20.9701,19.4301,17.3646,36.1222-1.209,5.5973-2.4925,11.193-3.329,16.8505-.4665,3.1543-.0839,6.4342-.0839,9.6032Z" fill="#fff200"/>
    <path d="M594.6981,133.407c14.2444,0,28.5026-.3871,42.729.1186,12.0688.429,24.3462.7239,36.0863,3.1933,14.1323,2.9725,24.4158,11.8827,28.1429,26.5474,2.1039,8.2779-1.0882,15.7754-5.172,22.7775-1.8716,3.2089-4.3212,6.1112-6.7238,8.9719-2.709,3.2254-2.6827,4.0049,1.1028,6.1685,7.3266,4.1876,14.0578,9.1229,19.2595,15.8522,11.4312,14.7881,12.9186,31.1603,7.4139,48.5435-.4388,1.3856-1.3129,2.7-2.224,3.8595-19.2969,24.5595-44.3914,39.3877-75.1791,44.5241-28.1994,4.7046-55.8503,1.7096-82.6196-7.663-12.4607-4.3628-22.4988-13.0062-29.2627-24.6221-5.7279-9.8368-4.06-19.5927,3.264-27.7069,5.1107-5.6621,11.5128-10.2046,17.5917-14.9203,1.9444-1.5084,3.2087-2.7162,3.2024-5.3295-.0667-27.3741.009-54.7487-.1502-82.122-.0093-1.6051-1.3824-3.5479-2.6754-4.7237-2.2854-2.0784-5.2129-3.4554-7.4748-5.5537-2.5603-2.3751-2.198-4.3083.8893-5.816,1.6148-.7886,3.5312-1.3309,5.3156-1.3427,15.494-.1024,30.9889-.059,46.4836-.059.0001-.2325.0003-.465.0005-.6975ZM674.6741,199.9369c3.2997-4.8879,7.2446-9.7711,10.1249-15.2174,4.6279-8.751,4.9561-17.8095-1.058-26.2216-7.9012-11.0519-18.8448-17.365-32.3665-17.5702-28.618-.4344-57.2463-.1906-85.8704-.2155-1.1096-.001-2.2194.0959-3.6244.1608v95.3849h39.9066c0-6.1906.0734-12.156-.0392-18.1178-.0402-2.1307.5039-3.1987,2.8247-3.3554,14.6884-.9914,29.2667-.4964,43.3348,4.2407,14.96,5.0373,25.5954,20.9574,23.5481,35.2459-1.559,10.8799-8.4673,18.4566-17.0686,24.4954-11.7024,8.2161-25.1783,10.5663-39.1211,10.7448-10.635.1362-21.2545-.2944-31.3754-4.1421-4.526-1.7207-8.5253-4.2148-10.9008-8.6688-2.103-3.9431-1.6468-9.4985,1.2511-12.5632.3725,6.22,3.5102,10.4003,9.027,12.3596,11.0791,3.9348,22.4366,4.039,33.4024.0627,12.2734-4.4504,15.0958-17.0369,6.5965-26.9703-4.5679-5.3386-10.5291-8.4973-17.2642-9.8761-20.5054-4.1978-39.6294.7294-57.9385,9.662-5.6694,2.766-9.09,7.9018-10.0659,14.1562-.6875,4.4054-.6996,8.9353-.769,13.4134-.0936,6.0401,1.8476,11.6335,6.4912,15.3926,4.688,3.795,9.8096,7.6432,15.3948,9.6436,31.5164,11.2881,63.4514,12.1697,95.535,2.2265,15.5485-4.8187,30.1054-11.4165,41.6279-23.4489,10.2968-10.7524,14.5052-23.852,14.0099-38.337-.3827-11.1936-6.9384-19.7037-14.9892-26.742-6.551-5.7272-13.8367-10.6141-20.6237-15.7428ZM634.0666,277.2205c.6411.0465,1.4958.1894,2.3416.1487.9899-.0477,2.0006-.1507,2.9534-.4097,10.6046-2.8822,17.5513-9.7867,20.9449-20.0393,3.917-11.8339-1.4409-23.1142-13.6225-29.968-9.5418-5.3685-20.0245-7.417-30.6924-8.6998-.8984-.108-2.8294,1.6716-2.9159,2.6902-.3462,4.0775-.3415,8.2144-.0446,12.2987.0875,1.2035,1.3398,2.6295,2.4446,3.3987,4.7769,3.326,10.0648,6.0132,14.4702,9.7532,5.2759,4.479,7.8982,10.683,7.0515,17.7257-.5262,4.3772-1.905,8.6519-2.9308,13.1016Z" fill="#fff200"/>
    <path d="M517.4425,132.0779c-32.1595,37.2281-63.7808,73.8333-95.4022,110.4386.1382.3496.2764.6993.4146,1.0489h32.5331c-1.507-2.5085-3.027-4.8785-4.3909-7.3352-7.597-13.684-4.1139-22.5566,11.0618-26.2855,17.561-4.315,34.8326-4.0429,50.1111,7.3421,10.5175,7.8372,17.0804,18.0367,14.8992,31.8136-1.8957,11.9739-8.6317,20.4999-20.011,25.1038-18.6154,7.5315-37.866,9.7561-57.653,6.4043-20.4556-3.465-40.9969-6.3273-61.7613-5.8478-15.3005.3533-30.5689,1.9873-45.8612,2.8876-3.4496.2031-6.9574-.1053-10.4044-.4862-2.7356-.3024-3.7176-2.224-2.401-4.5848,2.0497-3.6754,3.9919-7.5743,6.7849-10.6463,28.9883-31.8842,58.1384-63.6213,87.2415-95.4013,1.1542-1.2603,2.2867-2.5406,3.0751-4.5725-1.2362.2981-2.4784.5735-3.7077.8979-12.6536,3.3393-25.4223,6.3116-37.9026,10.2071-5.3611,1.6734-9.9551,5.669-15.2096,7.8621-4.1439,1.7296-8.7154,2.8119-13.1895,3.2617-4.0922.4114-6.5604-2.3189-6.4787-6.4972.0575-2.9418.7139-5.9219,1.4618-8.7913,2.9239-11.2182,5.9976-22.3972,8.9982-33.5954.6011-2.2433,1.5254-3.4565,4.3304-3.4507,49.989.1036,99.9783.0666,149.9675.066.8502,0,1.7003.0756,3.4937.1605ZM501.3579,139.399c-1.4695-.1424-2.0735-.2521-2.6775-.2522-42.6231-.0066-85.2461.019-127.869-.064-2.4349-.0047-3.1632,1.1351-3.8588,3.0526-3.9566,10.9066-8.0052,21.7798-11.9966,32.6738-.3133.8551-.4298,1.7823-.7453,3.1381,1.4462-.4029,2.3784-.6495,3.3029-.9221,12.4407-3.6684,24.7791-7.7443,37.3496-10.8943,11.8255-2.9633,23.8766-5.0546,35.8813-7.2392,1.5411-.2804,4.4637.8143,4.8541,1.9325.5411,1.55-.1632,4.1713-1.2904,5.5551-4.4941,5.5173-9.2558,10.8286-14.1037,16.0439-26.877,28.9137-53.8096,57.7757-80.7152,86.6629-.8673.9311-1.6488,1.942-2.4253,2.8624,15.3198-.7306,30.2653-2.131,45.1945-1.9747,17.2011.1801,34.4331,1.2463,51.5672,2.8378,15.5609,1.4453,31.0391,3.4928,46.6748,1.5434,10.7807-1.3441,21.0176-4.0869,29.6802-11.2333,13.8739-11.4456,12.802-37.9052-7.9169-44.7239-10.1662-3.3458-20.4879-3.8081-31.0656-3.0675-6.0561.424-10.8051,2.7606-14.6128,7.2259-3.5962,4.2173-3.7452,9.3462-.403,13.7699,3.9554,5.2353,9.5492,6.9709,15.8461,6.8172.8712-.0212,2.1742-.5581,2.4993-1.2316.8771-1.8176,2.2503-2.9053,3.597-1.3418.8878,1.0307,1.2059,4.022.4579,4.7203-2.3883,2.2296-5.1719,4.5244-8.2123,5.4528-4.5962,1.4035-9.5354,2.3028-14.3322,2.3171-16.6143.0493-33.2301-.3702-49.8448-.6397-.8103-.0131-1.6162-.2956-3.6566-.6922,33.1409-37.671,65.7166-74.6995,98.8212-112.3292Z" fill="#fff200"/>
    <path d="M909.2216,126.6821c-3.8846,3.0935-7.7925,6.1583-11.6464,9.2895-3.1803,2.5839-5.2404,4.9903-5.1992,10.0791.1313,16.2169-1.2459,32.4392-1.5652,48.6688-.2281,11.5995-.0233,23.2319.6054,34.8162.5199,9.5802,4.196,12.4042,13.9612,12.5886,9.7574.1842,19.1426-1.885,28.2275-5.0375,13.1928-4.5781,26.1661-9.7858,39.3098-14.5113,4.6513-1.6723,9.5278-2.718,14.7618-4.1782,0,1.5281.1457,2.3668-.0216,3.1377-3.3822,15.5912-6.8838,31.1572-10.147,46.773-.7226,3.4583-2.1538,4.6094-5.7531,4.471-22.5866-.8678-45.1784-1.8923-67.7757-2.1016-21.9304-.2031-43.4832,2.953-64.6808,8.8988-5.1768,1.452-11.0994.9805-16.5742.4015-4.3932-.4646-4.9918-3.0803-2.0544-6.5176,1.1847-1.3863,2.6886-2.784,4.3397-3.4338,4.724-1.8591,6.57-5.5825,7.0858-10.1524.4609-4.0837.7579-8.2111.7503-12.3185-.0466-25.3676-.2248-50.735-.3017-76.1026-.0216-7.1203-.0455-14.251.3141-21.3576.1866-3.6876-1.3165-5.872-4.3028-7.5465-2.1727-1.2182-4.3572-2.4681-6.3342-3.9701-2.8055-2.1314-2.9328-4.4678.265-5.6832,4.4388-1.687,9.5401-3.6299,13.9826-2.9632,19.5811,2.9388,38.5348-1.0597,57.6553-3.7651,4.8588-.6875,9.8174-.6694,14.7302-.9755.1224.4969.2449.9937.3674,1.4906ZM977.1057,228.0747c-.3632-.2188-.7265-.4377-1.0898-.6565-.9869.4045-2.01.7386-2.955,1.2248-5.9932,3.0834-11.865,6.4244-17.97,9.265-19.6738,9.1541-39.8526,15.1034-61.9562,10.216-5.1829-1.146-8.3716-3.711-9.0407-8.5208-.9055-6.5075-1.2998-13.1406-1.2551-19.7153.1148-16.8591.6588-33.7148.9029-50.5737.1609-11.1193.1143-22.2419.127-33.363.0029-2.5902-.5453-4.252-3.7357-2.51-7.1542,3.9063-14.9005,4.8446-22.8753,3.7888-6.174-.8174-12.2953-2.0309-18.4666-2.8742-1.73-.2364-3.5537.2138-5.3345.3491.2473,1.8783-.0006,4.024.8407,5.5814,2.0083,3.7176,4.6929,7.0655,6.7788,10.7471,1.1025,1.946,2.1657,4.2811,2.1555,6.4353-.1443,30.3571-.5581,60.7129-.6912,91.0699-.0253,5.7719.0374,11.0355-5.9025,14.4324-1.361.7783-2.424,3.7923-2.029,5.3807.3124,1.256,2.9984,2.0981,4.7691,2.7441.9545.3482,2.231.0323,3.3089-.2161,3.3944-.7824,6.7229-1.9243,10.1493-2.4835,21.2891-3.4744,42.8083-2.9491,64.2606-3.4019,16.112-.3401,32.233-.2815,48.3502-.3212,2.3904-.0059,3.4805-.7835,4.0456-3.2553,1.9168-8.3835,4.1884-16.6853,6.2056-25.0469.6562-2.7202.9487-5.5283,1.4074-8.2962Z" fill="#fff200"/>
    <path d="M241.4,283.3779c-16.5974.1228-34.4682-2.3084-51.463-9.2509-22.8035-9.3153-39.6449-24.5602-46.204-49.0921-8.7155-32.5973,6.0715-65.5432,35.9901-81.4424,16.7872-8.921,34.7952-12.7863,53.6022-13.518,22.8046-.8872,45.231,1.0373,66.1607,11.0145,25.1607,11.994,37.633,32.722,40.5621,59.9958,2.111,19.6566-2.3264,37.1773-15.5084,52.148-9.126,10.3643-20.6195,17.2775-33.4105,22.1168-15.475,5.8548-31.5651,8.2376-49.7293,8.0284ZM240.9397,277.0055c15.887.0541,31.29-2.4486,46.0104-8.6391,23.073-9.7031,46.4889-30.4845,43.4781-66.3827-2.1109-25.1679-13.9021-43.9157-36.735-55.1505-17.3147-8.5196-35.9889-10.6668-54.9919-10.5463-16.7513.1063-33.1111,2.6165-48.322,10.0378-24.266,11.8394-38.2099,31.1332-39.1121,58.3293-.8276,24.9469,10.0298,44.428,31.2571,57.6816,17.8258,11.1299,37.7573,14.4895,58.4154,14.6698Z" fill="#fff200"/>
    <path d="M770.8016,131.8586c11.2474,0,22.4997-.17,33.738.1515,2.1062.0603,4.6343,1.6571,6.1179,3.3083,2.1296,2.3702,1.2655,5.4273-2.0355,6.5764-4.9941,1.7386-5.9011,5.0466-5.9144,9.8062-.0938,33.7346-.3823,67.4688-.6897,101.2024-.0352,3.8583.7278,6.9177,4.8953,8.1211.5795.1674,1.0898.6012,1.6092.9461,4.2637,2.8304,4.2845,5.5096-.2968,7.5572-2.7757,1.2405-5.9186,2.1837-8.9301,2.2875-20.0696.6917-39.7456,3.3179-58.7719,10.1459-3.2733,1.1747-7.166,1.4293-10.6242.9764-2.0316-.2661-4.3076-2.4582-5.4169-4.3907-.5623-.9795.9929-3.4509,1.9922-4.9866,1.5591-2.3962,3.6067-4.4732,5.1824-6.8603,2.597-3.9343,3.5366-8.1758,3.5295-13.0671-.0389-26.7331.3768-53.4665.5563-80.2003.0469-6.9789.0722-13.9797-.4563-20.9276-.1628-2.1407-2.1932-4.1402-3.3767-6.1997-.0573-.0997-.2009-.1462-.2927-.2302-2.4108-2.2061-5.9824-3.746-5.1925-7.9287.4921-2.6058,5.6944-5.558,9.909-5.5904,11.489-.0882,22.9791-.0303,34.4688-.0303-.0004-.2223-.0007-.4447-.0011-.667ZM747.5864,141.3741c0,3.2192-.0088,5.9421.0014,8.6649.112,29.9886.2383,59.9772.3319,89.9659.0194,6.1999-.1301,12.2685-3.4319,17.9854-2.5898,4.4838-2.0323,9.5447-.5909,14.5029,1.8007-.2934,3.4296-.4363,4.9942-.8331,11.8227-2.9979,23.5619-6.4456,35.9116-6.5229,3.0213-.0189,3.118-1.8986,3.1152-4.2513-.0471-38.6171-.0305-77.2343-.0409-115.8515-.0004-1.1993-.1353-2.3986-.2113-3.6604h-40.0792Z" fill="#fff200"/>
    <path d="M283.9841,78.8794c6.415,1.3701,13.0185,2.1778,19.198,4.2502,8.0151,2.688,12.5995,8.6585,12.991,17.408.3855,8.6147-4.6033,13.8837-11.6539,17.1161-13.7791,6.3172-27.8729,6.1568-41.6425-.0849-7.0741-3.2067-11.4036-8.8263-11.2456-17.0503.1544-8.0353,4.7116-13.1349,11.4704-16.614,6.4899-3.3407,13.5168-4.1731,20.8826-5.0251ZM283.8816,86.7613c-4.0337,1.0242-8.2488,1.6654-12.1173,3.1875-4.6365,1.8242-7.3039,5.6352-7.3951,10.7487-.0916,5.1397,2.5326,8.8266,7.1021,10.943,8.2731,3.8317,16.6377,3.8555,24.8992-.0863,4.549-2.1705,7.2025-5.7375,7.0432-10.9459-.1614-5.2789-2.8293-9.1131-7.6897-10.9102-3.6784-1.36-7.6488-1.9303-11.8425-2.9369Z" fill="#fff200"/>
    <path d="M197.0731,122.0291c-8.4784-.0587-16.7022-1.2004-23.9496-6.0494-11.7095-7.8345-11.392-23.303.5968-30.7305,7.9867-4.948,16.9109-6.1807,25.9419-5.3676,6.2342.5612,12.5855,1.942,18.4324,4.1525,7.4596,2.8202,11.0227,9.1792,11.1923,17.1009.1519,7.0924-3.776,11.8941-9.6145,15.3812-6.9681,4.1618-14.6015,5.5785-22.5993,5.513ZM197.2076,86.5823c-4.4287,1.2445-9.1215,1.841-13.1186,3.8333-8.9587,4.4653-9.2271,15.9014-.4381,20.698,8.8999,4.8571,18.3086,4.8474,27.1043-.4068,8.1289-4.8558,7.6963-16.1184-.7816-20.3487-3.7872-1.8897-8.2224-2.4807-12.766-3.7759Z" fill="#fff200"/>
    <path d="M768.0261,119.7553c-7.8982-.1697-15.8898-1.2209-22.9939-5.7527-11.8107-7.5343-11.9148-22.7911-.1141-30.3373,8.7179-5.5748,18.5533-6.549,28.4883-5.4042,5.4809.6315,11.0403,2.0775,16.1358,4.1899,6.7905,2.815,10.1326,8.6391,10.5027,15.9898.3602,7.1589-3.3418,12.0481-9.1394,15.6376-6.9172,4.2826-14.5941,5.5762-22.8793,5.677ZM768.0598,113.0447c4.4893-1.3642,9.1956-2.0335,13.1269-4.1453,8.5585-4.5973,8.5492-16.1121-.042-20.4824-8.4427-4.2948-17.4775-4.2667-25.895.1069-8.7142,4.5279-8.7772,15.7504-.1345,20.4514,3.8108,2.0728,8.4092,2.6979,12.9446,4.0693Z" fill="#fff200"/>
    <path d="M674.6741,199.9369c6.7869,5.1288,14.0727,10.0156,20.6237,15.7428,8.0508,7.0383,14.6065,15.5484,14.9892,26.742.4953,14.4851-3.7132,27.5847-14.0099,38.337-11.5225,12.0324-26.0793,18.6302-41.6279,23.4489-32.0835,9.9432-64.0186,9.0616-95.535-2.2265-5.5851-2.0004-10.7068-5.8486-15.3948-9.6436-4.6436-3.7591-6.5848-9.3525-6.4912-15.3926.0694-4.4781.0816-9.008.769-13.4134.976-6.2544,4.3965-11.3903,10.0659-14.1562,18.3091-8.9326,37.4331-13.8598,57.9385-9.662,6.7351,1.3788,12.6963,4.5375,17.2642,9.8761,8.4993,9.9334,5.6769,22.5198-6.5965,26.9703-10.9659,3.9763-22.3233,3.8722-33.4024-.0627-5.5168-1.9593-8.6545-6.1396-9.027-12.3596-2.8979,3.0648-3.3541,8.6201-1.2511,12.5632,2.3755,4.454,6.3747,6.9481,10.9008,8.6688,10.1209,3.8478,20.7404,4.2783,31.3754,4.1421,13.9428-.1785,27.4187-2.5287,39.1211-10.7448,8.6012-6.0388,15.5096-13.6155,17.0686-24.4954,2.0473-14.2885-8.5881-30.2086-23.5481-35.2459-14.0681-4.7371-28.6464-5.2321-43.3348-4.2407-2.3208.1566-2.865,1.2247-2.8247,3.3554.1126,5.9618.0392,11.9271.0392,18.1178h-39.9066v-95.3849c1.4051-.0649,2.5148-.1617,3.6244-.1608,28.6241.0249,57.2524-.2188,85.8704.2155,13.5217.2052,24.4653,6.5183,32.3665,17.5702,6.0141,8.4121,5.6859,17.4706,1.058,26.2216-2.8803,5.4463-6.8252,10.3295-10.1249,15.2174ZM603.2905,182.6713c-.1432.0004-.2865.0007-.4297.0011,0,3.3641.0075,6.7282-.0025,10.0923-.0072,2.4562,1.0367,3.6144,3.645,3.3864,6.8148-.5959,13.7022-.6698,20.4436-1.7102,6.9134-1.0669,13.561-3.2799,18.7054-8.5368,5.7597-5.8857,7.2548-18.828-4.1898-23.6075-1.8338-.7659-3.6831-1.5317-5.5866-2.0876-9.8485-2.8761-19.9076-2.8124-30.0179-2.078-2.1856.1588-2.5991,1.3777-2.5866,3.2468.0476,7.0976.0191,14.1956.0191,21.2935Z"/>
    <path d="M634.0666,277.2205c1.0258-4.4497,2.4047-8.7244,2.9308-13.1016.8466-7.0427-1.7757-13.2467-7.0515-17.7257-4.4055-3.74-9.6933-6.4272-14.4702-9.7532-1.1048-.7692-2.3572-2.1952-2.4446-3.3987-.2969-4.0843-.3016-8.2212.0446-12.2987.0865-1.0185,2.0175-2.7981,2.9159-2.6902,10.668,1.2827,21.1506,3.3312,30.6924,8.6998,12.1816,6.8538,17.5395,18.1341,13.6225,29.968-3.3936,10.2526-10.3403,17.1571-20.9449,20.0393-.9528.259-1.9634.362-2.9534.4097-.8458.0408-1.7005-.1022-2.3416-.1487ZM639.4579,273.5056c6.5142-1.8596,11.4103-6.0728,15.0293-11.8454,6.3062-10.0589,4.793-20.5674-4.314-28.1433-9.7158-8.0823-21.6015-10.2057-34.0243-11.9648-.0779,1.7319-.0269,3.0887-.2184,4.4104-.7172,4.9498.7972,7.8931,5.793,10.27,9.7054,4.6176,17.141,11.904,18.482,23.2703.5254,4.4529-.4387,9.0815-.7478,14.0028Z"/>
    <path d="M501.3579,139.399c-33.1046,37.6297-65.6803,74.6582-98.8212,112.3292,2.0403.3966,2.8463.679,3.6566.6922,16.6147.2695,33.2305.689,49.8448.6397,4.7968-.0142,9.736-.9136,14.3322-2.3171,3.0404-.9284,5.824-3.2232,8.2123-5.4528.748-.6983.4299-3.6895-.4579-4.7203-1.3466-1.5635-2.7199-.4758-3.597,1.3418-.3251.6736-1.6282,1.2104-2.4993,1.2316-6.297.1536-11.8908-1.582-15.8461-6.8172-3.3422-4.4237-3.1932-9.5525.403-13.7699,3.8077-4.4653,8.5567-6.8019,14.6128-7.2259,10.5777-.7406,20.8994-.2783,31.0656,3.0675,20.7189,6.8187,21.7909,33.2783,7.9169,44.7239-8.6626,7.1464-18.8994,9.8892-29.6802,11.2333-15.6357,1.9494-31.1139-.0981-46.6748-1.5434-17.1341-1.5915-34.3661-2.6577-51.5672-2.8378-14.9292-.1563-29.8747,1.2441-45.1945,1.9747.7765-.9204,1.5581-1.9313,2.4253-2.8624,26.9056-28.8871,53.8382-57.7491,80.7152-86.6629,4.8479-5.2153,9.6096-10.5266,14.1037-16.0439,1.1272-1.3838,1.8315-4.0051,1.2904-5.5551-.3904-1.1182-3.3131-2.2129-4.8541-1.9325-12.0047,2.1846-24.0558,4.2758-35.8813,7.2392-12.5705,3.15-24.9089,7.226-37.3496,10.8943-.9245.2726-1.8566.5192-3.3029.9221.3155-1.3559.432-2.2831.7453-3.1381,3.9914-10.894,8.04-21.7672,11.9966-32.6738.6956-1.9176,1.4239-3.0574,3.8588-3.0526,42.6229.083,85.2459.0574,127.869.064.604,0,1.208.1098,2.6775.2522Z"/>
    <path d="M977.1057,228.0747c-.4588,2.7679-.7512,5.5759-1.4074,8.2962-2.0173,8.3616-4.2888,16.6634-6.2056,25.0469-.5652,2.4719-1.6552,3.2494-4.0456,3.2553-16.1172.0397-32.2382-.0189-48.3502.3212-21.4523.4528-42.9715-.0725-64.2606,3.4019-3.4264.5591-6.7549,1.7011-10.1493,2.4835-1.0779.2485-2.3544.5644-3.3089.2161-1.7706-.646-4.4567-1.4882-4.7691-2.7441-.3951-1.5884.668-4.6024,2.029-5.3807,5.9398-3.3969,5.8772-8.6605,5.9025-14.4324.1331-30.3571.5469-60.7129.6912-91.0699.0102-2.1542-1.053-4.4893-2.1555-6.4353-2.0859-3.6817-4.7705-7.0296-6.7788-10.7471-.8414-1.5574-.5934-3.7031-.8407-5.5814,1.7808-.1353,3.6045-.5855,5.3345-.3491,6.1713.8434,12.2926,2.0568,18.4666,2.8742,7.9748,1.0558,15.7211.1175,22.8753-3.7888,3.1904-1.742,3.7386-.0802,3.7357,2.51-.0127,11.1211.034,22.2437-.127,33.363-.2441,16.8589-.7881,33.7146-.9029,50.5737-.0447,6.5747.3496,13.2078,1.2551,19.7153.6692,4.8098,3.8578,7.3748,9.0407,8.5208,22.1036,4.8874,42.2824-1.0619,61.9562-10.216,6.105-2.8407,11.9767-6.1817,17.97-9.265.945-.4861,1.9681-.8203,2.955-1.2248.3633.2188.7266.4377,1.0898.6565Z"/>
    <path d="M240.9367,277.0091c-20.6551-.1839-40.5866-3.5435-58.4124-14.6734-21.2272-13.2536-32.0846-32.7347-31.2571-57.6816.9022-27.1961,14.8461-46.4899,39.1121-58.3293,15.2109-7.4214,31.5707-9.9315,48.322-10.0378,19.003-.1206,37.6772,2.0266,54.9919,10.5463,22.8329,11.2349,34.6241,29.9827,36.735,55.1505,3.0108,35.8982-20.4051,56.6796-43.4781,66.3827-14.7204,6.1905-30.1234,8.6932-46.0134,8.6427ZM240.36,253.4919c17.2463.8291,33.1504-9.7688,39.6858-26.4757,3.9373-10.0652,4.1009-20.4566,2.5255-30.97-1.0861-7.248-3.3773-14.0785-7.582-20.1458-8.1583-11.7724-20.1352-16.0454-33.7207-16.1538-17.0657-.1361-30.1655,7.038-37.784,22.7858-4.1665,8.6124-5.4908,17.8694-5.0113,27.3405,1.2457,24.6011,16.125,43.2591,41.8866,43.619Z"/>
    <path d="M747.5864,141.3741h40.0792c.076,1.2618.2109,2.4611.2113,3.6604.0104,38.6172-.0062,77.2344.0409,115.8515.0028,2.3527-.0938,4.2323-3.1152,4.2513-12.3497.0774-24.0889,3.525-35.9116,6.5229-1.5646.3967-3.1936.5397-4.9942.8331-1.4414-4.9582-1.9988-10.0191.5909-14.5029,3.3019-5.7169,3.4513-11.7854,3.4319-17.9854-.0937-29.9887-.2199-59.9773-.3319-89.9659-.0102-2.7228-.0014-5.4457-.0014-8.6649Z"/>
    <path d="M283.8816,86.7613c4.1936,1.0065,8.1641,1.5768,11.8425,2.9369,4.8604,1.797,7.5283,5.6313,7.6897,10.9102.1592,5.2083-2.4942,8.7753-7.0432,10.9459-8.2615,3.9418-16.6261,3.918-24.8992.0863-4.5695-2.1164-7.1937-5.8033-7.1021-10.943.0912-5.1135,2.7586-8.9245,7.3951-10.7487,3.8685-1.522,8.0836-2.1632,12.1173-3.1875Z"/>
    <path d="M197.2076,86.5823c4.5436,1.2951,8.9789,1.8861,12.766,3.7759,8.4779,4.2303,8.9105,15.4929.7816,20.3487-8.7957,5.2542-18.2045,5.2639-27.1043.4068-8.789-4.7966-8.5206-16.2327.4381-20.698,3.9971-1.9923,8.6899-2.5888,13.1186-3.8333Z"/>
    <path d="M768.0598,113.0447c-4.5355-1.3715-9.1338-1.9965-12.9446-4.0693-8.6427-4.701-8.5797-15.9235.1345-20.4514,8.4175-4.3737,17.4523-4.4017,25.895-.1069,8.5912,4.3702,8.6006,15.8851.042,20.4824-3.9314,2.1118-8.6376,2.7811-13.1269,4.1453Z"/>
    <path d="M603.2905,182.6713c0-7.0979.0284-14.196-.0191-21.2935-.0125-1.8691.401-3.0881,2.5866-3.2468,10.1103-.7344,20.1694-.798,30.0179,2.078,1.9035.5559,3.7527,1.3217,5.5866,2.0876,11.4446,4.7795,9.9495,17.7218,4.1898,23.6075-5.1444,5.257-11.792,7.4699-18.7054,8.5368-6.7414,1.0404-13.6288,1.1143-20.4436,1.7102-2.6083.2281-3.6522-.9302-3.645-3.3864.0099-3.3641.0025-6.7282.0025-10.0923.1432-.0004.2865-.0007.4297-.0011ZM614.4726,193.0606c7.6657-.9478,14.3844-3.0089,20.5941-6.5907,4.0427-2.3319,7.4047-5.4183,7.2594-10.5236-.1529-5.3746-3.2927-9.0038-7.9312-11.3644-5.5205-2.8094-11.4684-3.1066-17.5126-2.7969-2.3161.1187-2.4274,1.5941-2.4184,3.3578.0332,6.4883.0102,12.9768.0088,19.4653-.0005,2.7018,0,5.4035,0,8.4525Z" fill="#fff200"/>
    <path d="M240.36,253.4919c-25.7617-.3599-40.6409-19.0179-41.8866-43.619-.4796-9.4711.8448-18.7281,5.0113-27.3405,7.6185-15.7478,20.7183-22.9219,37.784-22.7858,13.5856.1084,25.5624,4.3813,33.7207,16.1538,4.2047,6.0674,6.4959,12.8978,7.582,20.1458,1.5754,10.5134,1.4118,20.9048-2.5255,30.97-6.5354,16.7068-22.4395,27.3048-39.6858,26.4757ZM273.6902,203.9712c-.5261-2.8548-1.0205-8.5074-2.6534-13.8093-4.0111-13.0235-13.1024-20.2552-26.714-21.6049-13.2665-1.3155-25.0094,4.4823-30.7539,15.6593-6.7608,13.1544-7.3001,26.9631-1.9212,40.5869,7.1587,18.1319,27.8051,25.636,44.2749,16.3502,13.3263-7.5135,17.6108-19.97,17.7676-37.1822Z" fill="#fff200"/>
    <path d="M614.4726,193.0606c0-3.049-.0005-5.7507,0-8.4525.0014-6.4884.0244-12.977-.0088-19.4653-.009-1.7637.1024-3.2391,2.4184-3.3578,6.0442-.3097,11.9921-.0125,17.5126,2.7969,4.6385,2.3605,7.7783,5.9898,7.9312,11.3644.1453,5.1053-3.2168,8.1917-7.2594,10.5236-6.2097,3.5818-12.9284,5.6429-20.5941,6.5907ZM618.0208,189.022c6.5112-1.2028,12.3875-3.0501,17.4327-6.9086,4.613-3.5279,4.9322-8.1245.6944-12.1425-5.1137-4.8485-11.4964-5.1349-18.1272-4.7595v23.8106Z"/>
    <path d="M273.6902,203.9712c-.1569,17.2122-4.4413,29.6687-17.7676,37.1822-16.4697,9.2858-37.1161,1.7817-44.2749-16.3502-5.3788-13.6238-4.8395-27.4325,1.9212-40.5869,5.7445-11.177,17.4874-16.9747,30.7539-15.6593,13.6116,1.3497,22.7029,8.5814,26.714,21.6049,1.6329,5.3019,2.1272,10.9545,2.6534,13.8093ZM210.8682,206.5769c1.228,5.555,1.9044,11.3068,3.8009,16.6233,3.7499,10.5117,11.4707,16.8129,22.6671,18.0803,11.8787,1.3446,21.5228-2.9686,27.5956-13.3621,7.8521-13.4388,7.0654-27.5389,1.0462-41.3527-4.6281-10.6213-13.8773-14.5867-24.8684-14.7774-10.2229-.1774-18.442,3.93-23.8967,12.7904-4.103,6.6648-5.5933,14.0628-6.3448,21.9982Z"/>
  </g>
  <g>
    <path d="M286.0404,391.7972h-3.5977c-.6719-2.5254-2.0713-5.2275-4.1973-8.1055-2.127-2.8779-4.165-4.4609-6.1152-4.749-.9912-.127-2.167-.2236-3.5254-.2881-1.3594-.0635-2.9014-.0957-4.6289-.0957h-11.415v27.3398h7.8379c2.3711,0,4.2139-.2471,5.5283-.7432s2.4365-1.2549,3.3662-2.2783c.6406-.7031,1.2256-1.7988,1.7549-3.2861.5293-1.4863.874-3.0771,1.0342-4.7725h3.5977v26.7646h-3.5977c-.0957-1.4072-.4248-3.0059-.9854-4.7969-.5615-1.79-1.1631-3.085-1.8037-3.8848-.9619-1.1826-2.1719-1.9902-3.6299-2.4219-1.459-.4316-3.2139-.6475-5.2646-.6475h-7.8379v23.416c0,1.0537.207,1.9961.623,2.8262.416.8301,1.1514,1.5,2.207,2.0107.4795.2236,1.5186.4941,3.1172.8135s2.8135.4961,3.6455.5273v3.4053h-29.498v-3.4053c.959-.0635,2.2373-.168,3.8369-.3115,1.5986-.1445,2.6387-.3281,3.1182-.5518.959-.415,1.6543-1.0312,2.0859-1.8467s.6475-1.7988.6475-2.9502v-49.1152c0-1.0557-.1758-1.9902-.5273-2.8057-.3525-.8154-1.0879-1.4795-2.2061-1.9912-.8633-.415-2.0234-.7832-3.4775-1.1025-1.4561-.3193-2.6143-.5117-3.4775-.5762v-3.4053h53.3848v17.0273Z"/>
    <path d="M346.7152,422.5902l-1.4395,20.2412h-53.1924v-3.4053c.7676-.0635,1.8779-.1758,3.334-.3359,1.4541-.1592,2.4697-.3672,3.0459-.624.959-.415,1.6543-1.0225,2.0859-1.8223.4316-.7988.6475-1.8223.6475-3.0693v-48.7324c0-1.0859-.1846-2.0459-.5518-2.8779-.3672-.8311-1.0957-1.502-2.1816-2.0137-.7363-.3838-1.7676-.7598-3.0938-1.1279-1.3271-.3672-2.4229-.583-3.2861-.6475v-3.4053h28.7314v3.4053c-.8965.0322-2.0557.1924-3.4775.4795-1.4238.2881-2.4551.5449-3.0938.7676-1.0879.3838-1.8311,1.04-2.2305,1.9668-.4004.9277-.5996,1.9189-.5996,2.9736v45.71c0,2.1104.1035,3.75.3115,4.917s.6953,2.0703,1.4629,2.71c.7354.5752,1.8301.9512,3.2861,1.127,1.4541.1758,3.4932.2637,6.1152.2637,1.1826,0,2.4141-.0312,3.6934-.0957,1.2783-.0635,2.4941-.1924,3.6445-.3838,1.1191-.1924,2.1504-.4561,3.0938-.792.9434-.335,1.6387-.7588,2.0869-1.2705,1.3105-1.4707,2.8369-3.7012,4.5801-6.6914,1.7432-2.9893,2.9502-5.4111,3.6221-7.2666h3.4053Z"/>
    <path d="M406.3354,382.8275c3.0049,3.1348,5.3555,6.916,7.0508,11.3438,1.6943,4.4297,2.542,9.3291,2.542,14.7012,0,5.4043-.8633,10.3125-2.5898,14.7256-1.7275,4.4121-4.125,8.1699-7.1953,11.2715-2.9736,3.0693-6.4268,5.4365-10.3604,7.0986-3.9326,1.6621-8.1221,2.4941-12.5664,2.4941-4.7324,0-9.1055-.8877-13.1182-2.6621-4.0137-1.7744-7.459-4.2451-10.3359-7.4102-2.8779-3.1016-5.1406-6.8672-6.7871-11.2959-1.6475-4.4287-2.4707-9.1689-2.4707-14.2217,0-5.5312.8633-10.4639,2.5898-14.7969,1.7275-4.332,4.1094-8.082,7.1475-11.248,3.0049-3.1328,6.499-5.5312,10.4795-7.1943,3.9814-1.6621,8.1465-2.4941,12.4951-2.4941,4.5088,0,8.7607.8477,12.7588,2.542,3.9961,1.6953,7.4502,4.0771,10.3604,7.1465ZM399.1879,431.0804c1.791-2.9092,3.0938-6.2031,3.9092-9.8809.8154-3.6768,1.2236-7.7861,1.2236-12.3271,0-4.668-.4561-8.9531-1.3672-12.8545-.9111-3.9004-2.2471-7.2256-4.0049-9.9766-1.7588-2.7168-3.9658-4.8359-6.6191-6.3555-2.6543-1.5176-5.6924-2.2783-9.1133-2.2783-3.8369,0-7.0986.8799-9.7852,2.6387-2.6855,1.7588-4.876,4.1094-6.5703,7.0508-1.5996,2.8135-2.791,6.1074-3.5732,9.8809-.7842,3.7734-1.1758,7.7383-1.1758,11.8945,0,4.6045.415,8.7617,1.2471,12.4707.8311,3.71,2.1426,7.0029,3.9336,9.8809,1.7266,2.8145,3.9004,5.0127,6.5225,6.5947,2.6221,1.583,5.7559,2.375,9.4014,2.375,3.4209,0,6.5068-.7988,9.2568-2.3984,2.75-1.5986,4.9883-3.8369,6.7148-6.7148Z"/>
    <path d="M493.2943,378.1751c-.8955.0322-2.2061.2246-3.9326.5762-1.7275.3516-3.1348.8799-4.2217,1.582-1.0869.7363-1.8389,2.2549-2.2539,4.5566-.416,2.3027-.623,5.1172-.623,8.4424v29.5938c0,3.7734-.7842,7.0508-2.3506,9.833-1.5674,2.7812-3.6299,5.0684-6.1875,6.8584-2.5264,1.7266-5.1885,2.9668-7.9863,3.7178s-5.4756,1.127-8.0342,1.127c-4.0928,0-7.7383-.5361-10.9355-1.6064-3.1982-1.0713-5.8838-2.5186-8.0576-4.3408-2.1426-1.8232-3.7578-3.9092-4.8447-6.2598-1.0879-2.3506-1.6309-4.8037-1.6309-7.3623v-40.2422c0-1.1191-.1846-2.0547-.5518-2.8057-.3682-.751-1.1113-1.4473-2.2305-2.0869-.7998-.4473-1.8223-.8066-3.0693-1.0791-1.2471-.2715-2.2705-.4395-3.0693-.5039v-3.4053h28.3467v3.4053c-.8955.0322-2.0225.1768-3.3818.4316-1.3594.2559-2.3584.4961-2.998.7188-1.0869.3838-1.8145,1.0225-2.1816,1.917-.3682.8955-.5518,1.8691-.5518,2.9238v37.5742c0,1.8213.1992,3.7305.5996,5.7275.3994,1.9971,1.1904,3.8574,2.374,5.583,1.2471,1.7578,2.9414,3.1953,5.084,4.3135s5.085,1.6777,8.8262,1.6777c3.5166,0,6.4668-.5596,8.8486-1.6777s4.2607-2.5879,5.6357-4.4092c1.3115-1.7256,2.2383-3.5303,2.7822-5.416.543-1.8848.8154-3.7861.8154-5.7031v-27.8936c0-3.5459-.2559-6.4453-.7676-8.6982-.5117-2.252-1.2637-3.7305-2.2539-4.4336-1.1201-.7988-2.6465-1.4209-4.5811-1.8691-1.9346-.4463-3.4131-.7021-4.4365-.7666v-3.4053h27.8193v3.4053Z"/>
    <path d="M565.0492,442.8314h-18.3281c-4.0566-6.3623-7.7227-11.8633-10.9971-16.5-3.2744-4.6357-6.8281-9.416-10.6602-14.3408h-6.9717v21.584c0,1.1191.1748,2.1025.5273,2.9492.3516.8477,1.1035,1.4951,2.2549,1.9424.5752.2246,1.582.4326,3.0215.624,1.4385.1914,2.6533.3047,3.6455.3359v3.4053h-28.7793v-3.4053c.7676-.0635,1.8779-.1758,3.334-.3359,1.4541-.1592,2.4697-.3672,3.0459-.624.959-.415,1.6543-1.0225,2.0859-1.8223.4316-.7988.6475-1.8223.6475-3.0693v-49.2119c0-1.1191-.1602-2.1104-.4795-2.9736-.3203-.8633-1.0713-1.5186-2.2539-1.9668-.7998-.2871-1.8398-.5518-3.1182-.791-1.2793-.2402-2.3662-.3916-3.2617-.4561v-3.4053h31.417c2.8779,0,5.5791.2959,8.1064.8877,2.5254.5918,4.8115,1.543,6.8584,2.8535,1.9824,1.2793,3.5654,2.9502,4.748,5.0127s1.7754,4.5488,1.7754,7.458c0,2.6221-.4004,4.9404-1.1992,6.9551-.7998,2.0146-1.9834,3.7578-3.5498,5.2275-1.4385,1.376-3.165,2.5664-5.1797,3.5742-2.0146,1.0068-4.2373,1.8623-6.667,2.5654,3.3574,4.4453,6.1465,8.1865,8.3691,11.2236,2.2227,3.0381,4.9482,6.7314,8.1787,11.0801,1.4062,1.9189,2.6777,3.333,3.8125,4.2451,1.1348.9111,2.2617,1.6543,3.3818,2.2305.8311.415,1.8701.7354,3.1172.959s2.2861.3525,3.1182.3838v3.4053ZM539.8197,392.1117c0-4.1182-1.1836-7.3828-3.5488-9.793-2.3672-2.4102-5.708-3.6152-10.0244-3.6152h-8.1543v29.1621h6.2832c4.4131,0,8.0898-1.4121,11.0322-4.2373,2.9414-2.8252,4.4121-6.6641,4.4121-11.5166Z"/>
    <path d="M673.3051,442.8314h-30.0742v-3.4053c1.0869-.0312,2.4863-.1445,4.1973-.3359,1.71-.1914,2.8848-.4629,3.5254-.8154.9902-.6074,1.7188-1.3027,2.1826-2.0859.4629-.7832.6953-1.7666.6953-2.9502v-49.499h-.7197l-23.2148,57.9883h-2.3984l-22.1113-59.1875h-.623v40.626c0,3.9326.2471,6.9229.7432,8.9688.4951,2.0469,1.2549,3.5186,2.2783,4.4131.7031.6709,2.1582,1.3115,4.3643,1.918,2.207.6084,3.6455.9287,4.3174.96v3.4053h-27.4834v-3.4053c1.4385-.1279,2.9492-.3672,4.5322-.7197,1.583-.3516,2.8057-.8789,3.6689-1.583,1.1191-.8945,1.8867-2.2695,2.3027-4.125.415-1.8535.623-4.9561.623-9.3047v-34.8223c0-2.0146-.2393-3.6611-.7188-4.9404-.4805-1.2783-1.168-2.3184-2.0625-3.1172-.9922-.8633-2.207-1.5029-3.6455-1.9189-1.4395-.415-2.8623-.6553-4.2686-.7197v-3.4053h23.2061l19.4961,51.0869,16.6436-42.7354c.6074-1.5684,1.126-3.208,1.5576-4.9199s.6631-2.8555.6953-3.4316h22.1943v3.4053c-.8955.0322-2.0381.1768-3.4287.4316-1.3916.2568-2.4072.4961-3.0459.7197-1.0879.3838-1.8232,1.0234-2.207,1.9189-.3828.8955-.5752,1.8701-.5752,2.9258v49.0674c0,1.1191.1924,2.0625.5752,2.8301.3838.7676,1.1191,1.4385,2.207,2.0146.5752.3193,1.5986.6152,3.0693.8867,1.4707.2725,2.6387.4248,3.502.4561v3.4053Z"/>
    <path d="M712.2035,442.8314h-30.6494v-3.4053c.8633-.0635,2.1104-.1602,3.7412-.2881,1.6309-.127,2.7822-.3193,3.4531-.5752,1.0557-.415,1.8232-.9834,2.3027-1.7031s.7197-1.7188.7197-2.998v-49.3066c0-1.1191-.1768-2.0547-.5283-2.8066-.3516-.751-1.1826-1.3828-2.4941-1.8945-.959-.3838-2.166-.7432-3.6211-1.0791s-2.6465-.5352-3.5732-.5996v-3.4053h30.6494v3.4053c-.9912.0322-2.1748.1523-3.5498.3604s-2.5742.4717-3.5967.791c-1.2158.3838-2.0312,1.0068-2.4463,1.8711-.416.8633-.624,1.8223-.624,2.877v49.2598c0,1.0557.2314,1.9902.6963,2.8057.4629.8154,1.2539,1.4629,2.374,1.9434.6709.2559,1.7666.5352,3.2852.8389,1.5186.3047,2.8057.4727,3.8613.5039v3.4053Z"/>
    <path d="M775.3725,422.5902l-1.4395,20.2412h-53.1924v-3.4053c.7676-.0635,1.8779-.1758,3.334-.3359,1.4541-.1592,2.4697-.3672,3.0459-.624.959-.415,1.6543-1.0225,2.0859-1.8223.4316-.7988.6475-1.8223.6475-3.0693v-48.7324c0-1.0859-.1846-2.0459-.5518-2.8779-.3672-.8311-1.0957-1.502-2.1816-2.0137-.7363-.3838-1.7676-.7598-3.0938-1.1279-1.3271-.3672-2.4229-.583-3.2861-.6475v-3.4053h28.7314v3.4053c-.8965.0322-2.0557.1924-3.4775.4795-1.4238.2881-2.4551.5449-3.0938.7676-1.0879.3838-1.8311,1.04-2.2305,1.9668-.4004.9277-.5996,1.9189-.5996,2.9736v45.71c0,2.1104.1035,3.75.3115,4.917s.6953,2.0703,1.4629,2.71c.7354.5752,1.8301.9512,3.2861,1.127,1.4541.1758,3.4932.2637,6.1152.2637,1.1826,0,2.4141-.0312,3.6934-.0957,1.2783-.0635,2.4941-.1924,3.6445-.3838,1.1191-.1924,2.1504-.4561,3.0938-.792.9434-.335,1.6387-.7588,2.0869-1.2705,1.3105-1.4707,2.8369-3.7012,4.5801-6.6914,1.7432-2.9893,2.9502-5.4111,3.6221-7.2666h3.4053Z"/>
    <path d="M834.6566,422.5902l-1.4395,20.2412h-53.1924v-3.4053c.7676-.0635,1.8779-.1758,3.334-.3359,1.4541-.1592,2.4697-.3672,3.0459-.624.959-.415,1.6543-1.0225,2.0859-1.8223.4316-.7988.6475-1.8223.6475-3.0693v-48.7324c0-1.0859-.1846-2.0459-.5518-2.8779-.3672-.8311-1.0957-1.502-2.1816-2.0137-.7363-.3838-1.7676-.7598-3.0938-1.1279-1.3271-.3672-2.4229-.583-3.2861-.6475v-3.4053h28.7314v3.4053c-.8965.0322-2.0557.1924-3.4775.4795-1.4238.2881-2.4551.5449-3.0938.7676-1.0879.3838-1.8311,1.04-2.2305,1.9668-.4004.9277-.5996,1.9189-.5996,2.9736v45.71c0,2.1104.1035,3.75.3115,4.917s.6953,2.0703,1.4629,2.71c.7354.5752,1.8301.9512,3.2861,1.127,1.4541.1758,3.4932.2637,6.1152.2637,1.1826,0,2.4141-.0312,3.6934-.0957,1.2783-.0635,2.4941-.1924,3.6445-.3838,1.1191-.1924,2.1504-.4561,3.0938-.792.9434-.335,1.6387-.7588,2.0869-1.2705,1.3105-1.4707,2.8369-3.7012,4.5801-6.6914,1.7432-2.9893,2.9502-5.4111,3.6221-7.2666h3.4053Z"/>
    <path d="M881.6615,411.6068c1.4395,1.5986,2.502,3.3496,3.1895,5.252s1.0312,4.1172,1.0312,6.6426c0,6.0127-2.2227,10.9688-6.667,14.8691-4.4443,3.9014-9.96,5.8516-16.5469,5.8516-3.0391,0-6.0762-.4717-9.1133-1.415-3.0391-.9424-5.6602-2.0859-7.8662-3.4287l-2.0625,3.501h-3.8379l-.6709-23.3105h3.8848c.7988,2.8779,1.7344,5.4766,2.8057,7.7939,1.0713,2.3193,2.4863,4.4854,4.2451,6.499,1.6621,1.8877,3.6055,3.3896,5.8281,4.5088,2.2217,1.1201,4.8037,1.6787,7.7461,1.6787,2.2061,0,4.1318-.2871,5.7793-.8643,1.6465-.5762,2.9814-1.3926,4.0049-2.4492s1.7822-2.2969,2.2783-3.7227c.4961-1.4248.7441-3.0664.7441-4.9229,0-2.7217-.7676-5.2588-2.3027-7.6123s-3.8213-4.1387-6.8584-5.3555c-2.0791-.8271-4.4609-1.7432-7.1475-2.7461-2.6855-1.0029-5.0039-1.9512-6.9541-2.8428-3.8379-1.7256-6.8193-3.9873-8.9453-6.7842-2.127-2.7979-3.1904-6.4502-3.1904-10.957,0-2.5898.5283-5.0029,1.583-7.2402,1.0557-2.2383,2.5586-4.2363,4.5088-5.9941,1.8545-1.6621,4.0449-2.9648,6.5713-3.9082,2.5254-.9424,5.1641-1.415,7.9141-1.415,3.1338,0,5.9395.4805,8.418,1.4395,2.4775.959,4.7402,2.0791,6.7871,3.3574l1.9658-3.2617h3.8379l.3838,22.5908h-3.8857c-.7031-2.5898-1.4951-5.0674-2.374-7.4336-.8799-2.3662-2.0225-4.5088-3.4297-6.4277-1.375-1.8545-3.0537-3.333-5.0361-4.4365-1.9834-1.1035-4.4131-1.6553-7.29-1.6553-3.0391,0-5.6289.9766-7.7705,2.9258-2.1426,1.9512-3.2139,4.334-3.2139,7.1475,0,2.9424.6875,5.3799,2.0625,7.3145s3.373,3.5254,5.9951,4.7725c2.334,1.1191,4.6289,2.0859,6.8838,2.9014,2.2539.8154,4.4365,1.6875,6.5469,2.6143,1.918.832,3.7646,1.7744,5.54,2.8301,1.7744,1.0547,3.3164,2.2861,4.6279,3.6934Z"/>
  </g>
  <g>
    <path d="M468.2704,508.4916c.7061.7842,1.2266,1.6416,1.5635,2.5742s.5059,2.0176.5059,3.2549c0,2.9463-1.0898,5.375-3.2676,7.2871-2.1787,1.9111-4.8809,2.8672-8.1094,2.8672-1.4883,0-2.9775-.2314-4.4658-.6934s-2.7734-1.0225-3.8545-1.6807l-1.0107,1.7158h-1.8809l-.3291-11.4229h1.9043c.3916,1.4102.8496,2.6836,1.375,3.8193.5244,1.1357,1.2188,2.1973,2.0801,3.1846.8145.9248,1.7666,1.6611,2.8564,2.21,1.0889.5479,2.3535.8223,3.7959.8223,1.0811,0,2.0244-.1406,2.832-.4238.8066-.2822,1.4609-.6826,1.9629-1.2002.501-.5176.873-1.126,1.1162-1.8242s.3643-1.502.3643-2.4121c0-1.334-.376-2.5771-1.1279-3.7305-.7529-1.1533-1.873-2.0283-3.3613-2.625-1.0186-.4053-2.1865-.8535-3.502-1.3457-1.3164-.4912-2.4531-.9551-3.4082-1.3926-1.8809-.8457-3.3418-1.9541-4.3838-3.3252-1.043-1.3701-1.5635-3.1602-1.5635-5.3691,0-1.2686.2588-2.4512.7754-3.5479.5176-1.0967,1.2539-2.0762,2.21-2.9375.9082-.8145,1.9824-1.4531,3.2197-1.915,1.2383-.4619,2.5312-.6934,3.8789-.6934,1.5352,0,2.9102.2354,4.125.7051,1.2139.4707,2.3223,1.0186,3.3262,1.6455l.9629-1.5986h1.8809l.1875,11.0713h-1.9033c-.3447-1.2695-.7324-2.4834-1.1641-3.6436-.4307-1.1592-.9912-2.209-1.6797-3.1494-.6748-.9092-1.4971-1.6338-2.4688-2.1738-.9717-.541-2.1621-.8115-3.5723-.8115-1.4893,0-2.7578.4785-3.8076,1.4336-1.0508.9561-1.5752,2.124-1.5752,3.5029,0,1.4414.3369,2.6357,1.0107,3.584s1.6533,1.7275,2.9385,2.3389c1.1436.5488,2.2676,1.0225,3.373,1.4219,1.1045.3994,2.1738.8271,3.208,1.2812.9404.4072,1.8447.8691,2.7148,1.3867.8691.5166,1.625,1.1201,2.2676,1.8096Z"/>
    <path d="M485.1474,523.7933h-11.1885v-1.5518c.3604-.0312.7324-.0615,1.1162-.0938.3838-.0312.7168-.0938.999-.1875.4385-.1406.7646-.3867.9756-.7393.2119-.3525.3174-.8105.3174-1.374v-14.2969c0-.501-.1143-.959-.3408-1.374-.2275-.4141-.5449-.7627-.9521-1.0439-.2979-.1875-.7285-.3486-1.293-.4814-.5635-.1328-1.0811-.2148-1.5508-.2471v-1.5508l8.1797-.5176.3291.3291v18.8984c0,.5479.1045,1.0029.3154,1.3633.21.3604.54.627.9912.7988.3428.1406.6768.2549,1.0039.3408s.6924.1445,1.0977.1758v1.5518ZM482.2089,491.1927c0,.8926-.2939,1.6729-.8809,2.3379-.5879.667-1.3125.999-2.1748.999-.7988,0-1.4922-.3174-2.0801-.9512-.5879-.6348-.8809-1.3594-.8809-2.1748,0-.8613.293-1.6133.8809-2.2559s1.2812-.9639,2.0801-.9639c.8936,0,1.626.3018,2.1982.9043.5713.6035.8574,1.3047.8574,2.1045Z"/>
    <path d="M513.6112,523.7933h-11.3291v-1.5518c.3604-.0312.7559-.0615,1.1865-.0938.4307-.0312.7871-.0938,1.0693-.1875.4385-.1416.7646-.3887.9756-.7412.2119-.3525.3174-.8105.3174-1.375v-11.916c0-1.6455-.3887-2.915-1.166-3.8086-.7773-.8926-1.7246-1.3398-2.8389-1.3398-.833,0-1.5947.1299-2.2861.3887-.6904.2578-1.3027.5752-1.8369.9512-.5186.3613-.9307.749-1.2373,1.1641-.3057.415-.5303.748-.6709.999v13.3271c0,.5322.1094.9717.3291,1.3164.2188.3447.5479.6104.9873.7988.3291.1572.6846.2744,1.0693.3525.3838.0781.7793.1328,1.1865.1641v1.5518h-11.3525v-1.5518c.3604-.0312.7324-.0615,1.1162-.0938.3838-.0312.7168-.0938.999-.1875.4385-.1406.7637-.3867.9756-.7393s.3174-.8105.3174-1.374v-14.2969c0-.5322-.1143-1.0215-.3408-1.4678-.2275-.4453-.5449-.8096-.9521-1.0918-.2979-.1875-.6504-.3242-1.0576-.4102-.4072-.0859-.8457-.1445-1.3164-.1768v-1.5508l7.71-.5176.3291.3291v3.2676h.1172c.376-.376.8467-.8262,1.4102-1.3516.5645-.5254,1.0967-.9521,1.5986-1.2812.5791-.376,1.2695-.6895,2.0684-.9404.7988-.25,1.7002-.376,2.7031-.376,2.2246,0,3.874.6934,4.9473,2.0801s1.6104,3.2324,1.6104,5.5361v12.0576c0,.5488.0938.9912.2822,1.3281.1875.3369.5088.5996.9639.7871.376.1572.7012.2666.9756.3291.2734.0625.6533.1094,1.1396.1406v1.5518Z"/>
    <path d="M527.1737,524.4046c-3.3535,0-5.9775-1.1123-7.874-3.3379-1.8955-2.2246-2.8438-5.21-2.8438-8.9551,0-1.6299.2549-3.1533.7637-4.5723.5088-1.418,1.25-2.7061,2.2217-3.8662.9238-1.1123,2.084-2.0098,3.4785-2.6914s2.9141-1.0225,4.5596-1.0225c2.2725,0,4.1211.5449,5.5469,1.6338s2.1396,2.5742,2.1396,4.4541c0,.7842-.1885,1.4775-.5645,2.0801-.376.6035-.9951.9053-1.8564.9053-.9248,0-1.6416-.2344-2.1514-.7031-.5088-.4688-.7637-.9912-.7637-1.5693,0-.7031.0938-1.4258.2822-2.168.1875-.7412.2979-1.2842.3291-1.6279-.2812-.4844-.7002-.8076-1.2549-.9727-.5547-.1631-1.1523-.2461-1.793-.2461-.75,0-1.4658.1611-2.1455.4824s-1.3398.9131-1.9805,1.7744c-.5791.7842-1.0479,1.8418-1.4072,3.1729-.3594,1.332-.5391,2.9229-.5391,4.7715,0,2.915.6455,5.293,1.9365,7.1338,1.29,1.8418,2.9844,2.7617,5.0801,2.7617,1.5176,0,2.7891-.3701,3.8145-1.1104,1.0244-.7402,1.9746-1.8506,2.8506-3.332l1.5029.9873c-1.0342,1.8496-2.3975,3.3145-4.0898,4.3955s-3.4404,1.6221-5.2422,1.6221Z"/>
    <path d="M558.9042,518.3402c-.9717,1.8496-2.2725,3.3223-3.9014,4.4189-1.6299,1.0967-3.502,1.6455-5.6182,1.6455-1.8643,0-3.498-.3291-4.9004-.9873s-2.5586-1.5518-3.4668-2.6797c-.9092-1.1279-1.5869-2.4443-2.0332-3.9492-.4463-1.5039-.6699-3.0938-.6699-4.7705,0-1.5049.2383-2.9814.7168-4.4307.4775-1.4492,1.1787-2.7539,2.1035-3.9141.8936-1.1123,2.002-2.0098,3.3262-2.6914s2.8086-1.0225,4.4541-1.0225c1.6924,0,3.1416.2666,4.3486.7998,1.2061.5322,2.1855,1.2607,2.9375,2.1855.7207.8779,1.2578,1.9121,1.6104,3.1025.3525,1.1914.5293,2.4834.5293,3.8779v1.5518h-15.3486c0,1.5234.1445,2.9053.4346,4.1465.29,1.2402.748,2.332,1.375,3.2744.6113.9111,1.4102,1.6299,2.3975,2.1553.9873.5264,2.1621.7891,3.5254.7891,1.3945,0,2.5977-.3262,3.6084-.9805,1.0107-.6533,1.9863-1.8311,2.9258-3.5322l1.6455,1.0107ZM553.7099,509.5023c0-.875-.0742-1.8115-.2236-2.8115-.1484-1-.3877-1.8359-.7168-2.5078-.3604-.7188-.8535-1.3037-1.4805-1.7568s-1.4336-.6807-2.4209-.6807c-1.6455,0-3.0127.6836-4.1016,2.0508-1.0898,1.3672-1.6807,3.2695-1.7744,5.7061h10.7178Z"/>
    <path d="M590.5194,523.7933h-15.8428v-1.6689c.4707-.0312,1.2031-.0977,2.1982-.1992.9951-.1025,1.6807-.208,2.0566-.3174.4854-.1572.8574-.4121,1.1162-.7646s.3877-.8809.3877-1.5859v-16.501h-5.8525v-1.9736h1.293c1.6924,0,3.208-.3135,4.5479-.9404s2.2998-1.3008,2.8799-2.0215h1.9502c-.0469,1.0186-.0938,2.209-.1406,3.5723s-.0703,2.5859-.0703,3.667v13.9385c0,.5488.1211,1.0381.3643,1.4688.2422.4316.5908.749,1.0459.9521.4072.1729,1.0732.3291,1.998.4697.9238.1416,1.6133.2197,2.0684.2354v1.6689Z"/>
    <path d="M617.0087,511.6791c0,2.7246-.4316,5.2891-1.293,7.6924-.8623,2.4043-2.1006,4.5137-3.7139,6.3301-1.583,1.7852-3.5137,3.2695-5.7939,4.4512-2.2803,1.1826-4.8301,1.9609-7.6504,2.3369l-.4238-2.1152,2.1162-.376c3.3682-1.0654,6.001-2.7021,7.8975-4.9111,1.8955-2.208,3.1182-5.0127,3.666-8.4121-1.2842,1.0957-2.5654,1.8975-3.8428,2.4062s-2.7148.7627-4.3125.7627c-2.5547,0-4.7764-.9932-6.6641-2.9814-1.8887-1.9883-2.832-4.4922-2.832-7.5137,0-3.2393,1.0928-5.9717,3.2783-8.1943,2.1865-2.2227,4.8857-3.334,8.0977-3.334,3.4941,0,6.2793,1.2451,8.3564,3.7344,2.0752,2.4902,3.1143,5.8643,3.1143,10.124ZM612.0253,511.4066c0-3.667-.5996-6.5381-1.7979-8.6143-1.1992-2.0762-2.7773-3.1152-4.7363-3.1152-1.8652,0-3.3691.8037-4.5127,2.4092-1.1445,1.6064-1.7158,3.8203-1.7158,6.6406,0,2.5381.583,4.5752,1.751,6.1113,1.167,1.5361,2.7305,2.3037,4.6895,2.3037,1.2217,0,2.3418-.2236,3.3604-.6699,1.0186-.4473,1.9668-1.1641,2.8447-2.1514,0-.0625.0117-.1875.0352-.376.0234-.1875.0352-.4541.0352-.7988,0-.2197.0078-.4854.0234-.7998.0156-.3125.0234-.626.0234-.9395Z"/>
    <path d="M639.2431,512.7699c1.0342.8145,1.8926,1.8643,2.5742,3.1494s1.0234,2.8906,1.0234,4.8184c0,3.3691-1.1523,6.1504-3.4561,8.3438-2.3027,2.1943-5.2256,3.291-8.7666,3.291-2.7422,0-5.0615-.6504-6.958-1.9512-1.8955-1.3008-2.8438-2.8125-2.8438-4.5361,0-.7988.1963-1.4961.5879-2.0918s.9951-.8936,1.8096-.8936c.9404,0,1.6572.2471,2.1504.7412.4941.4932.7412,1.0293.7412,1.6094,0,.502-.0869,1.1289-.2588,1.8809-.1729.752-.3057,1.3076-.3994,1.6689.125.1094.3291.2578.6104.4463.2822.1885.6191.3682,1.0107.541.4072.1719.9053.3242,1.4932.458.5869.1328,1.2725.1992,2.0566.1992,1.002,0,1.9502-.2031,2.8438-.6104.8936-.4082,1.6455-1.0107,2.2568-1.8105.6729-.877,1.1787-1.876,1.5156-2.9961.3369-1.1211.5059-2.543.5059-4.2666,0-2.209-.6152-4.0391-1.8457-5.4883s-2.8477-2.1738-4.8535-2.1738c-1.2539,0-2.4248.2344-3.5137.7051-1.0898.4697-2.0654,1.2539-2.9268,2.3506l-1.5742-.6113,1.9971-16.9707h16.8301v4.1836h-14.9316l-1.2217,9.9697c.7051-.502,1.6338-1,2.7861-1.4941s2.418-.7422,3.7969-.7422c1.1445,0,2.332.1768,3.5625.5293s2.3623.9365,3.3975,1.751Z"/>
    <path d="M671.1161,514.9554c0,2.6328-1.1367,4.8975-3.4082,6.793-2.2725,1.8965-5.2578,2.8438-8.9551,2.8438-3.4639,0-6.2373-.8691-8.3213-2.6084-2.084-1.7393-3.126-3.9805-3.126-6.7227,0-2.0215.6152-3.71,1.8457-5.0654,1.2295-1.3555,3.0508-2.5029,5.4648-3.4434-1.9902-1.1123-3.4795-2.335-4.4668-3.667-.9863-1.3311-1.4805-2.8359-1.4805-4.5127,0-2.5537,1.085-4.6924,3.2559-6.417,2.1699-1.7236,4.7666-2.585,7.791-2.585s5.4727.8145,7.3457,2.4443c1.8721,1.6299,2.8086,3.6748,2.8086,6.1348,0,1.583-.5166,3.083-1.5508,4.501-1.0342,1.4189-2.5547,2.582-4.5605,3.4902,2.6016,1.1133,4.4775,2.3428,5.6299,3.6904,1.1514,1.3477,1.7275,3.0557,1.7275,5.124ZM666.4149,516.0599c0-.9873-.2119-1.8525-.6348-2.5967s-1.0342-1.4219-1.833-2.0332c-.7686-.5957-1.8379-1.2188-3.209-1.8691-1.3711-.6494-2.8555-1.3115-4.4541-1.9854-1.5039.8145-2.6084,1.8525-3.3135,3.1143-.7051,1.2607-1.0576,2.6992-1.0576,4.3125,0,2.3037.6768,4.165,2.0332,5.583,1.3545,1.418,3.1611,2.127,5.417,2.127,2.1631,0,3.8789-.627,5.1484-1.8809,1.2686-1.2529,1.9033-2.8438,1.9033-4.7715ZM665.4276,497.891c0-1.9111-.5684-3.4668-1.7041-4.665-1.1357-1.1992-2.5898-1.7988-4.3604-1.7988s-3.2197.5762-4.3477,1.7275c-1.1289,1.1523-1.6924,2.582-1.6924,4.29,0,1.6455.6426,3.04,1.9268,4.1836,1.2852,1.1445,3.5732,2.3662,6.8633,3.667,1.1758-.752,2.0215-1.7471,2.5391-2.9854.5166-1.2373.7754-2.7109.7754-4.4189Z"/>
  </g>
</svg>