<?xml version="1.0" encoding="utf-8"?>
<!-- Generator: Adobe Illustrator 27.5.0, SVG Export Plug-In . SVG Version: 6.00 Build 0)  -->
<svg version="1.1" id="katman_2_00000011016406885537107260000003027125665859659398_"
	 xmlns="http://www.w3.org/2000/svg" xmlns:xlink="http://www.w3.org/1999/xlink" x="0px" y="0px" viewBox="0 0 102 27.8"
	 style="enable-background:new 0 0 102 27.8;" xml:space="preserve">
<style type="text/css">
	.st0{fill:#EF7723;}
	.st1{fill:#141E29;}
</style>
<g id="katman_1">
	<path class="st0" d="M0,0h8.2c4.2,0,6,2.8,6,6.4c0,4.3-2.4,6.5-6.9,6.5H5.5v8H0V0z M5.4,9h1c1.4,0,2.1-0.8,2.1-2.5S7.9,3.9,6.5,3.9
		h-1V9z"/>
	<path class="st0" d="M15.6,5.1h5.1v2.5h0.1c0.6-1.9,2-2.9,3.5-2.9h0.9v4.9c-0.5-0.1-0.9-0.1-1.3-0.1c-1.9,0-3,0.7-3,2.8v8.6h-5.3
		C15.6,20.9,15.6,5.1,15.6,5.1z"/>
	<path class="st0" d="M32.3,21.3c-6.2,0-6.7-3.8-6.7-8.4c0-4.1,0.8-8.3,6.7-8.3S39,8.4,39,13C39,17.1,38.2,21.3,32.3,21.3
		 M32.3,17.9c1.2,0,1.5-0.9,1.5-4.9s-0.3-4.9-1.5-4.9S30.8,9,30.8,13S31.1,17.9,32.3,17.9"/>
	<rect x="0.1" y="24.9" class="st0" width="2.8" height="2.8"/>
	<rect x="44.5" y="24.9" class="st0" width="2.8" height="2.8"/>
	<rect x="72.3" y="24.9" class="st0" width="2.8" height="2.8"/>
	<polygon class="st1" points="40.7,0 48.5,0 50.7,12.4 50.8,12.4 53,0 60.8,0 60.8,20.9 55.7,20.9 55.7,5.3 55.6,5.3 52.7,20.9 
		48.8,20.9 45.9,5.3 45.8,5.3 45.8,20.9 40.7,20.9 	"/>
	<path class="st1" d="M70.6,20.9c-0.2-0.6-0.2-1.1-0.3-1.8h-0.1c-0.6,1.4-2,2.2-3.6,2.2c-3.2,0-4.4-2-4.4-4.7c0-2.9,1-4.3,4.4-5.1
		l2.1-0.5c1.1-0.3,1.6-0.8,1.6-1.7s-0.4-1.5-1.3-1.5c-1,0-1.5,0.4-1.5,2.1h-4.6c0-4.6,3.7-5.3,6.1-5.3c3.7,0,6.3,1,6.3,5.1v7.7
		c0,1.5,0.1,2.6,0.5,3.4L70.6,20.9L70.6,20.9z M70.3,15.2v-1.9h-0.1c-0.3,0.4-1,0.4-1.8,0.7c-0.8,0.4-1.1,1-1.1,2s0.5,1.7,1.3,1.7
		C69.8,17.8,70.3,16.9,70.3,15.2"/>
	<path class="st1" d="M81.6,16c0,0.6,0.1,1.2,0.4,1.5c0.3,0.4,0.6,0.6,1.1,0.6c0.8,0,1.5-0.5,1.5-1.4c0-2.8-7.7-1.1-7.7-7.1
		c0-2.8,2-4.9,6.3-4.9c4,0,5.9,1.7,5.9,5h-4.6c0-1.4-0.5-1.8-1.4-1.8c-0.8,0-1.3,0.4-1.3,1.2c0,2.6,7.7,0.8,7.7,6.9
		c0,3.1-2.4,5.3-6.4,5.3c-4.4,0-6.2-1.9-6.2-5.3C77,16,81.6,16,81.6,16z"/>
	<path class="st1" d="M90.1,5.1h1.8V0.4h5.3v4.7h2.1v3.5h-2.1v7.6c0,0.9,0.4,1.2,1.3,1.2h0.8v3.5c-1,0.1-2,0.2-2.9,0.2
		c-3.2,0-4.5-0.5-4.5-4V8.6h-1.8C90.1,8.6,90.1,5.1,90.1,5.1z"/>
	<path class="st1" d="M5.7,25.3H4.6c0,0-0.1,0-0.1-0.1v-0.2c0,0,0-0.1,0.1-0.1h1.5c0,0,0.1,0,0.1,0.1v2.4c0,0,0,0,0,0h0.9
		c0,0,0.1,0,0.1,0.1v0.2c0,0,0,0.1-0.1,0.1H4.6c0,0-0.1,0-0.1-0.1v-0.2c0,0,0-0.1,0.1-0.1h1.1c0,0,0,0,0,0L5.7,25.3L5.7,25.3z
		 M5.8,23.7c0.2,0,0.3,0.1,0.3,0.3c0,0.2-0.1,0.3-0.3,0.3S5.6,24.1,5.6,24S5.7,23.7,5.8,23.7"/>
	<path class="st1" d="M9.5,25.1c0.3-0.2,0.6-0.3,0.9-0.3c0.4,0,0.7,0.1,0.8,0.4c0.1,0.2,0.1,0.4,0.1,0.7v1.7c0,0,0,0.1-0.1,0.1h-0.3
		c0,0-0.1,0-0.1-0.1V26c0-0.4-0.1-0.7-0.4-0.7c-0.1,0-0.1,0-0.2,0c-0.3,0-0.6,0.1-0.8,0.2v2.3c0,0,0,0.1-0.1,0.1H9.1
		c0,0-0.1,0-0.1-0.1V25c0,0,0-0.1,0.1-0.1h0.2c0,0,0.1,0,0.1,0L9.5,25.1L9.5,25.1z"/>
	<path class="st1" d="M13.4,27.5l0.1-0.3c0,0,0,0,0.1,0c0.3,0.1,0.6,0.2,0.9,0.2s0.5-0.1,0.7-0.2c0,0,0.1-0.1,0.1-0.2
		c0-0.2-0.1-0.3-0.4-0.5c-0.1,0-0.2-0.1-0.3-0.1c-0.5-0.2-0.8-0.3-0.9-0.5c-0.1-0.1-0.1-0.2-0.1-0.4c0-0.2,0.1-0.4,0.4-0.6
		c0.2-0.1,0.4-0.2,0.7-0.2c0.4,0,0.7,0,1,0.1c0,0,0,0,0,0.1l-0.1,0.3c0,0,0,0-0.1,0c-0.2-0.1-0.5-0.1-0.8-0.1
		c-0.4,0-0.6,0.1-0.7,0.3c0,0,0,0.1,0,0.1c0,0.1,0.1,0.3,0.3,0.4c0.1,0,0.2,0.1,0.4,0.2c0.5,0.2,0.8,0.3,0.9,0.5
		c0.1,0.1,0.1,0.2,0.1,0.4c0,0.4-0.2,0.6-0.6,0.7c-0.1,0-0.3,0.1-0.5,0.1c-0.4,0-0.7,0-1-0.1C13.5,27.6,13.5,27.6,13.4,27.5
		C13.4,27.6,13.4,27.6,13.4,27.5"/>
	<path class="st1" d="M19.7,27.5c-0.3,0.2-0.6,0.3-0.9,0.3c-0.4,0-0.7-0.1-0.8-0.4c-0.1-0.2-0.1-0.4-0.1-0.7v-1.7c0,0,0-0.1,0.1-0.1
		h0.3c0,0,0,0,0,0.1v1.7c0,0.4,0.1,0.7,0.4,0.7c0,0,0.1,0,0.2,0c0.3,0,0.6-0.1,0.8-0.2v-2.3c0,0,0-0.1,0.1-0.1H20c0,0,0,0,0,0.1v2.7
		c0,0,0,0.1,0,0.1h-0.2c0,0,0,0,0,0L19.7,27.5L19.7,27.5z"/>
	<path class="st1" d="M23.1,23.6H22c0,0-0.1,0-0.1,0v-0.2c0,0,0,0,0.1,0h1.4c0,0,0.1,0,0.1,0v3.5c0,0.4,0.2,0.6,0.6,0.6h0.5
		c0,0,0.1,0,0.1,0v0.3c0,0,0,0.1-0.1,0.1H24c-0.4,0-0.7-0.2-0.9-0.5c0-0.1-0.1-0.2-0.1-0.4V23.6L23.1,23.6z"/>
	<path class="st1" d="M28.3,26.1v-0.2c0-0.4-0.2-0.6-0.6-0.6h-0.9c0,0-0.1,0-0.1,0v-0.3c0,0,0-0.1,0.1-0.1h1c0.5,0,0.7,0.2,0.9,0.5
		c0,0.1,0.1,0.2,0.1,0.4v1.9c0,0,0,0.1-0.1,0.1h-0.2c0,0,0,0,0,0l0-0.2c-0.4,0.2-0.7,0.3-0.9,0.3c0,0-0.1,0-0.1,0
		c-0.4,0-0.6-0.1-0.7-0.5c0-0.1-0.1-0.2-0.1-0.3c0-0.5,0.2-0.7,0.6-0.8c0.1,0,0.3-0.1,0.6-0.1H28.3L28.3,26.1z M28.3,26.4h-0.7
		c-0.4,0-0.7,0.2-0.7,0.5c0,0.3,0.1,0.4,0.3,0.5c0,0,0.1,0,0.1,0c0.2,0,0.5-0.1,1-0.2V26.4z"/>
	<path class="st1" d="M32,24.9h1.3c0,0,0.1,0,0.1,0.1v0.3c0,0,0,0-0.1,0H32v1.5c0,0.4,0.2,0.5,0.5,0.6c0,0,0.1,0,0.1,0h0.7
		c0,0,0.1,0,0.1,0v0.3c0,0,0,0.1-0.1,0.1h-0.8c-0.4,0-0.7-0.2-0.9-0.5c0-0.1-0.1-0.2-0.1-0.4v-1.5h-0.9c0,0-0.1,0-0.1,0V25
		c0,0,0-0.1,0.1-0.1h0.9V24c0,0,0,0,0-0.1l0.3-0.1c0,0,0.1,0,0.1,0v0L32,24.9L32,24.9z"/>
	<path class="st1" d="M35.6,26.5c0,0.5,0.2,0.8,0.5,0.9c0.1,0,0.2,0.1,0.3,0.1c0.2,0,0.5,0,0.8-0.2c0,0,0.1,0,0.1,0l0.1,0.2
		c0,0,0,0,0,0.1c-0.3,0.1-0.6,0.2-0.9,0.2c-0.7,0-1.1-0.3-1.3-1c0-0.1,0-0.3,0-0.5c0-0.6,0.2-1.1,0.6-1.3c0.2-0.1,0.4-0.2,0.6-0.2
		c0.7,0,1,0.4,1.1,1.1c0,0.1,0,0.2,0,0.3v0.2c0,0,0,0.1-0.1,0.1L35.6,26.5L35.6,26.5z M37.1,26.1c0-0.5-0.2-0.9-0.6-0.9
		c0,0-0.1,0-0.1,0c-0.3,0-0.5,0.1-0.7,0.4c-0.1,0.1-0.1,0.3-0.1,0.5H37.1L37.1,26.1z"/>
	<path class="st1" d="M39.5,27.5l0.1-0.3c0,0,0,0,0.1,0c0.3,0.1,0.6,0.2,0.9,0.2s0.5-0.1,0.7-0.2c0,0,0.1-0.1,0.1-0.2
		c0-0.2-0.2-0.3-0.4-0.5c-0.1,0-0.2-0.1-0.3-0.1c-0.5-0.2-0.8-0.3-0.9-0.5c-0.1-0.1-0.1-0.2-0.1-0.4c0-0.2,0.1-0.4,0.4-0.6
		c0.2-0.1,0.4-0.2,0.7-0.2c0.4,0,0.7,0,1,0.1c0,0,0,0,0,0.1l-0.1,0.3c0,0,0,0-0.1,0c-0.2-0.1-0.5-0.1-0.8-0.1
		c-0.4,0-0.6,0.1-0.7,0.3c0,0,0,0.1,0,0.1c0,0.1,0.1,0.3,0.3,0.4c0.1,0,0.2,0.1,0.4,0.2c0.5,0.2,0.7,0.3,0.9,0.5
		c0.1,0.1,0.1,0.2,0.1,0.4c0,0.4-0.2,0.6-0.6,0.7c-0.2,0-0.3,0.1-0.5,0.1c-0.4,0-0.7,0-1-0.1C39.6,27.6,39.6,27.6,39.5,27.5
		C39.5,27.6,39.5,27.6,39.5,27.5"/>
	<path class="st1" d="M50.1,27.5l0.1-0.3c0,0,0,0,0.1,0c0.3,0.1,0.6,0.2,0.9,0.2c0.3,0,0.5-0.1,0.7-0.2c0,0,0.1-0.1,0.1-0.2
		c0-0.2-0.2-0.3-0.4-0.5c-0.1,0-0.2-0.1-0.3-0.1c-0.5-0.2-0.8-0.3-0.9-0.5c-0.1-0.1-0.1-0.2-0.1-0.4c0-0.2,0.1-0.4,0.4-0.6
		c0.2-0.1,0.4-0.2,0.7-0.2c0.4,0,0.7,0,1,0.1c0,0,0,0,0,0.1l-0.1,0.3c0,0,0,0-0.1,0c-0.2-0.1-0.5-0.1-0.8-0.1
		c-0.4,0-0.6,0.1-0.7,0.3c0,0,0,0.1,0,0.1c0,0.1,0.1,0.3,0.3,0.4c0.1,0,0.2,0.1,0.4,0.2c0.5,0.2,0.7,0.3,0.9,0.5
		c0.1,0.1,0.1,0.2,0.1,0.4c0,0.4-0.2,0.6-0.6,0.7c-0.2,0-0.3,0.1-0.5,0.1c-0.4,0-0.7,0-1-0.1C50.2,27.6,50.2,27.6,50.1,27.5
		C50.1,27.6,50.1,27.6,50.1,27.5"/>
	<path class="st1" d="M54.9,26.5c0,0.5,0.2,0.8,0.5,0.9c0.1,0,0.2,0.1,0.3,0.1c0.2,0,0.5,0,0.8-0.2c0,0,0.1,0,0.1,0l0.1,0.2
		c0,0,0,0,0,0.1c-0.3,0.1-0.6,0.2-0.9,0.2c-0.7,0-1.1-0.3-1.3-1c0-0.1,0-0.3,0-0.5c0-0.6,0.2-1.1,0.6-1.3c0.2-0.1,0.4-0.2,0.6-0.2
		c0.7,0,1,0.4,1.1,1.1c0,0.1,0,0.2,0,0.3v0.2c0,0,0,0.1-0.1,0.1L54.9,26.5L54.9,26.5z M56.4,26.1c0-0.5-0.2-0.9-0.6-0.9
		c0,0-0.1,0-0.1,0c-0.3,0-0.5,0.1-0.7,0.4c-0.1,0.1-0.1,0.3-0.1,0.5H56.4L56.4,26.1z"/>
	<path class="st1" d="M60.7,26.1v-0.2c0-0.4-0.2-0.6-0.6-0.6h-0.9c0,0-0.1,0-0.1,0v-0.3c0,0,0-0.1,0.1-0.1h1c0.5,0,0.7,0.2,0.9,0.5
		c0,0.1,0.1,0.2,0.1,0.4v1.9c0,0,0,0.1-0.1,0.1h-0.2c0,0,0,0,0,0l0-0.2c-0.4,0.2-0.7,0.3-0.9,0.3c0,0-0.1,0-0.2,0
		c-0.3,0-0.6-0.1-0.7-0.5c0-0.1-0.1-0.2-0.1-0.3c0-0.5,0.2-0.7,0.6-0.8c0.2,0,0.3-0.1,0.6-0.1H60.7L60.7,26.1z M60.7,26.4H60
		c-0.4,0-0.7,0.2-0.7,0.5c0,0.3,0.1,0.4,0.3,0.5c0,0,0.1,0,0.1,0c0.2,0,0.5-0.1,1-0.2V26.4z"/>
	<path class="st1" d="M64.1,23.6h-1.1c0,0-0.1,0-0.1,0v-0.2c0,0,0,0,0.1,0h1.4c0,0,0.1,0,0.1,0v3.5c0,0.4,0.2,0.6,0.6,0.6h0.5
		c0,0,0.1,0,0.1,0v0.3c0,0,0,0.1-0.1,0.1H65c-0.4,0-0.7-0.2-0.9-0.5c0-0.1-0.1-0.2-0.1-0.4L64.1,23.6L64.1,23.6z"/>
	<path class="st1" d="M67.5,27.5l0.1-0.3c0,0,0,0,0.1,0c0.3,0.1,0.6,0.2,0.9,0.2s0.5-0.1,0.7-0.2c0,0,0.1-0.1,0.1-0.2
		c0-0.2-0.2-0.3-0.4-0.5c-0.1,0-0.2-0.1-0.3-0.1c-0.5-0.2-0.8-0.3-0.9-0.5c-0.1-0.1-0.1-0.2-0.1-0.4c0-0.2,0.1-0.4,0.4-0.6
		c0.2-0.1,0.4-0.2,0.7-0.2c0.4,0,0.7,0,1,0.1c0,0,0,0,0,0.1l-0.1,0.3c0,0,0,0-0.1,0c-0.2-0.1-0.5-0.1-0.8-0.1
		c-0.4,0-0.6,0.1-0.7,0.3c0,0,0,0.1,0,0.1c0,0.1,0.1,0.3,0.3,0.4c0.1,0,0.2,0.1,0.4,0.2c0.5,0.2,0.7,0.3,0.9,0.5
		c0.1,0.1,0.1,0.2,0.1,0.4c0,0.4-0.2,0.6-0.6,0.7c-0.2,0-0.3,0.1-0.5,0.1c-0.4,0-0.7,0-1-0.1C67.6,27.6,67.6,27.6,67.5,27.5
		C67.5,27.6,67.5,27.6,67.5,27.5"/>
	<path class="st1" d="M78.6,25.1c0.3-0.2,0.5-0.3,0.8-0.3c0.7,0,1.1,0.5,1.1,1.5c0,0.9-0.3,1.4-1,1.5c-0.1,0-0.1,0-0.2,0
		c-0.3,0-0.6-0.1-0.8-0.3l0,0.2c0,0,0,0-0.1,0h-0.2c0,0-0.1,0-0.1-0.1v-4.4c0,0,0-0.1,0.1-0.1h0.3c0,0,0.1,0,0.1,0.1L78.6,25.1
		L78.6,25.1z M80.1,26.3c0-0.7-0.2-1-0.6-1.1c0,0-0.1,0-0.1,0c-0.2,0-0.5,0.1-0.7,0.2v1.8c0.2,0.1,0.4,0.2,0.7,0.2
		c0.4,0,0.6-0.2,0.7-0.7C80,26.6,80.1,26.5,80.1,26.3"/>
	<path class="st1" d="M84.8,26.3c0,0.9-0.4,1.4-1.1,1.5h-0.1c-0.8,0-1.2-0.5-1.2-1.5s0.4-1.5,1.2-1.5c0.7,0,1.1,0.4,1.2,1.2
		C84.8,26.2,84.8,26.2,84.8,26.3 M84.4,26.3c0-0.8-0.2-1.1-0.7-1.1c-0.5,0-0.7,0.3-0.7,1c0,0,0,0.1,0,0.2c0,0.7,0.3,1.1,0.8,1.1
		C84.1,27.4,84.4,27.1,84.4,26.3"/>
	<path class="st1" d="M87.3,25.1c0.3-0.2,0.6-0.3,0.9-0.3c0.4,0,0.7,0.1,0.8,0.4c0.1,0.2,0.1,0.4,0.1,0.7v1.7c0,0,0,0.1-0.1,0.1
		h-0.3c0,0-0.1,0-0.1-0.1V26c0-0.4-0.1-0.7-0.4-0.7c-0.1,0-0.1,0-0.2,0c-0.3,0-0.6,0.1-0.8,0.2v2.3c0,0,0,0.1-0.1,0.1h-0.3
		c0,0-0.1,0-0.1-0.1V25c0,0,0-0.1,0.1-0.1h0.2c0,0,0,0,0.1,0L87.3,25.1L87.3,25.1z"/>
	<path class="st1" d="M93,25.1v-1.8c0,0,0-0.1,0.1-0.1h0.3c0,0,0.1,0,0.1,0.1v4.4c0,0,0,0.1-0.1,0.1h-0.2c0,0,0,0-0.1,0l-0.1-0.2
		c-0.3,0.2-0.6,0.3-0.8,0.3c-0.6,0-1-0.3-1.1-1c0-0.1,0-0.3,0-0.5c0-0.8,0.2-1.2,0.8-1.4c0.1,0,0.3-0.1,0.4-0.1
		C92.6,24.9,92.8,24.9,93,25.1 M91.6,26.3c0,0.7,0.3,1.1,0.8,1.1c0.2,0,0.4-0.1,0.7-0.2v-1.8c-0.2-0.1-0.4-0.2-0.7-0.2
		c-0.4,0-0.6,0.2-0.7,0.6C91.6,25.9,91.6,26.1,91.6,26.3"/>
	<path class="st1" d="M95.5,27.5l0.1-0.3c0,0,0,0,0.1,0c0.3,0.1,0.6,0.2,0.9,0.2s0.5-0.1,0.7-0.2c0,0,0.1-0.1,0.1-0.2
		c0-0.2-0.2-0.3-0.4-0.5c-0.1,0-0.2-0.1-0.3-0.1c-0.5-0.2-0.8-0.3-0.9-0.5c-0.1-0.1-0.1-0.2-0.1-0.4c0-0.2,0.1-0.4,0.4-0.6
		c0.2-0.1,0.4-0.2,0.7-0.2c0.4,0,0.7,0,1,0.1c0,0,0,0,0,0.1l-0.1,0.3c0,0,0,0-0.1,0c-0.2-0.1-0.5-0.1-0.8-0.1
		c-0.4,0-0.6,0.1-0.7,0.3c0,0,0,0.1,0,0.1c0,0.1,0.1,0.3,0.3,0.4c0.1,0,0.2,0.1,0.4,0.2c0.5,0.2,0.7,0.3,0.9,0.5
		c0.1,0.1,0.1,0.2,0.1,0.4c0,0.4-0.2,0.6-0.6,0.7c-0.2,0-0.3,0.1-0.5,0.1c-0.4,0-0.7,0-1-0.1C95.6,27.6,95.6,27.6,95.5,27.5
		C95.5,27.6,95.5,27.6,95.5,27.5"/>
	<path class="st1" d="M100.6,1.4c0.4,0,0.7,0.1,1,0.4c0.2,0.3,0.4,0.6,0.4,1s-0.2,0.7-0.4,1s-0.6,0.4-1,0.4s-0.7-0.2-1-0.4
		s-0.4-0.6-0.4-1s0.2-0.7,0.4-1S100.2,1.4,100.6,1.4 M101.5,1.9c-0.2-0.2-0.5-0.4-0.8-0.4s-0.6,0.1-0.8,0.4
		c-0.2,0.2-0.3,0.5-0.3,0.8s0.1,0.6,0.3,0.8c0.2,0.2,0.5,0.3,0.8,0.3s0.6-0.1,0.8-0.3c0.2-0.2,0.3-0.5,0.3-0.8S101.7,2.1,101.5,1.9"
		/>
	<path class="st1" d="M100,3.5h0.3V3h0.2l0.3,0.5h0.4L100.9,3c0.1,0,0.1,0,0.2-0.1s0.1-0.1,0.1-0.2c0-0.1,0-0.1,0-0.2l0,0
		c0-0.1,0-0.1,0-0.2c0-0.1-0.1-0.1-0.1-0.1c-0.1,0-0.1-0.1-0.2-0.1s-0.2,0-0.2,0H100L100,3.5L100,3.5z M100.3,2.7V2.3h0.3
		c0.1,0,0.1,0,0.1,0c0,0,0.1,0,0.1,0.1c0,0,0,0.1,0,0.1l0,0c0,0,0,0.1,0,0.1s-0.1,0-0.1,0.1s-0.1,0-0.1,0L100.3,2.7L100.3,2.7z"/>
</g>
</svg>
